<svg width="136" height="136" viewBox="0 0 136 136" fill="none" xmlns="http://www.w3.org/2000/svg">
<mask id="mask0_130_298" style="mask-type:luminance" maskUnits="userSpaceOnUse" x="8" y="8" width="120" height="120">
<path d="M125.433 125.515V10.4842H10.4022V125.515H125.433Z" fill="white" stroke="white" stroke-width="3.96659"/>
</mask>
<g mask="url(#mask0_130_298)">
<path d="M14.6621 74.0825V64.3407C14.6621 60.6869 17.6243 57.7248 21.2783 57.7248H22.364" stroke="white" stroke-width="3.96659" stroke-miterlimit="10" stroke-linecap="round" stroke-linejoin="round"/>
<path d="M113.704 57.7248H114.557C118.211 57.7248 121.174 60.6869 121.174 64.341V73.8501" stroke="white" stroke-width="3.96659" stroke-miterlimit="10" stroke-linecap="round" stroke-linejoin="round"/>
<path d="M22.376 68.4146V57.2964C22.376 52.4877 25.4627 48.4002 29.7629 46.9069" stroke="white" stroke-width="3.96659" stroke-miterlimit="10" stroke-linecap="round" stroke-linejoin="round"/>
<path d="M43.9111 46.936C48.1676 48.453 51.2146 52.5187 51.2146 57.2963L51.2734 59.8545" stroke="white" stroke-width="3.96659" stroke-miterlimit="10" stroke-linecap="round" stroke-linejoin="round"/>
<path d="M36.8048 49.9653H36.7855C31.8703 49.9653 27.8857 45.9808 27.8857 41.0656V33.4969C27.8857 28.5818 31.8703 24.5974 36.7855 24.5974H36.8048C41.7199 24.5974 45.7045 28.5818 45.7045 33.4969V41.0656C45.7045 45.9808 41.7199 49.9653 36.8048 49.9653Z" stroke="white" stroke-width="3.96659" stroke-miterlimit="10" stroke-linecap="round" stroke-linejoin="round"/>
<path d="M27.8857 37.2812V33.5156C27.8857 28.59 31.8747 24.5973 36.795 24.5973C41.7155 24.5973 45.7045 28.59 45.7045 33.5156L27.8857 37.2812Z" stroke="white" stroke-width="3.96659" stroke-miterlimit="10" stroke-linecap="round" stroke-linejoin="round"/>
<path d="M104.045 25.8368C104.771 23.6783 106.81 22.1235 109.213 22.1235C112.224 22.1235 114.665 24.5643 114.665 27.575V47.2104C114.665 49.01 113.793 50.6057 112.449 51.5986" stroke="white" stroke-width="3.96659" stroke-miterlimit="10" stroke-linecap="round" stroke-linejoin="round"/>
<path d="M106.154 46.9357C110.412 48.4522 113.459 52.5184 113.459 57.2964V68.4146" stroke="white" stroke-width="3.96659" stroke-miterlimit="10" stroke-linecap="round" stroke-linejoin="round"/>
<path d="M84.6211 59.8647V57.2961C84.6211 52.5176 87.6695 48.451 91.9276 46.9349" stroke="white" stroke-width="3.96659" stroke-miterlimit="10" stroke-linecap="round" stroke-linejoin="round"/>
<path d="M99.0499 49.9648H99.0306C94.1154 49.9648 90.1309 45.9803 90.1309 41.0651V33.4965C90.1309 28.5813 94.1154 24.597 99.0306 24.597H99.0499C103.965 24.597 107.95 28.5813 107.95 33.4965V41.0651C107.95 45.9803 103.965 49.9648 99.0499 49.9648Z" stroke="white" stroke-width="3.96659" stroke-miterlimit="10" stroke-linecap="round" stroke-linejoin="round"/>
<path d="M90.1309 37.2812V33.5156C90.1309 28.59 94.1198 24.5973 99.0401 24.5973C103.961 24.5973 107.95 28.59 107.95 33.5156L90.1309 37.2812Z" stroke="white" stroke-width="3.96659" stroke-miterlimit="10" stroke-linecap="round" stroke-linejoin="round"/>
<path d="M84.4486 107.746C79.2113 108.422 73.6626 108.785 67.9179 108.785C62.1612 108.785 56.6013 108.421 51.3545 107.742" stroke="white" stroke-width="3.96659" stroke-miterlimit="10" stroke-linecap="round" stroke-linejoin="round"/>
<path d="M76.3555 59.0657C104.253 60.833 125.673 71.2304 125.673 83.793C125.673 89.8652 120.669 95.4316 112.348 99.7622" stroke="white" stroke-width="3.96659" stroke-miterlimit="10" stroke-linecap="round" stroke-linejoin="round"/>
<path d="M23.607 99.8237C15.2142 95.4845 10.1621 89.8939 10.1621 83.793C10.1621 70.7569 33.2277 60.0518 62.6622 58.9029" stroke="white" stroke-width="3.96659" stroke-miterlimit="10" stroke-linecap="round" stroke-linejoin="round"/>
<path d="M22.376 105.137C22.376 101.255 24.3875 97.843 27.4252 95.8863" stroke="white" stroke-width="3.96659" stroke-miterlimit="10" stroke-linecap="round" stroke-linejoin="round"/>
<path d="M46.0645 95.8219C49.1584 97.7677 51.2144 101.212 51.2144 105.136V111.686" stroke="white" stroke-width="3.96659" stroke-miterlimit="10" stroke-linecap="round" stroke-linejoin="round"/>
<path d="M29.8395 105.347C28.5722 103.77 27.8827 101.807 27.8858 99.7831V81.3371C27.8858 76.4219 31.8703 72.4374 36.7855 72.4374H36.8048C41.7199 72.4374 45.7045 76.4219 45.7045 81.3371V99.7831C45.7045 103.333 43.6262 106.397 40.6204 107.826" stroke="white" stroke-width="3.96659" stroke-miterlimit="10" stroke-linecap="round" stroke-linejoin="round"/>
<path d="M113.459 105.574V105.137C113.459 100.317 110.359 96.2224 106.044 94.7373" stroke="white" stroke-width="3.96659" stroke-miterlimit="10" stroke-linecap="round" stroke-linejoin="round"/>
<path d="M92.0989 94.7162C87.7518 96.1833 84.6221 100.294 84.6221 105.136V111.771" stroke="white" stroke-width="3.96659" stroke-miterlimit="10" stroke-linecap="round" stroke-linejoin="round"/>
<path d="M99.0499 97.8057H99.0306C94.1154 97.8057 90.1309 93.8211 90.1309 88.9059V81.3373C90.1309 76.4221 94.1154 72.4378 99.0306 72.4378H99.0499C103.965 72.4378 107.95 76.4221 107.95 81.3373V88.9059C107.95 93.8211 103.965 97.8057 99.0499 97.8057Z" stroke="white" stroke-width="3.96659" stroke-miterlimit="10" stroke-linecap="round" stroke-linejoin="round"/>
<path d="M41.9528 125.755H19.013C16.61 125.755 14.6621 123.807 14.6621 121.405V112.182C14.6621 108.528 17.6243 105.566 21.2783 105.566H35.3366C38.9906 105.566 41.9528 108.528 41.9528 112.182V125.755Z" stroke="white" stroke-width="3.96659" stroke-miterlimit="10" stroke-linecap="round" stroke-linejoin="round"/>
<path d="M41.8838 117.606L51.2144 111.783C53.4823 110.299 56.4912 111.926 56.4912 114.636C56.4912 115.203 56.3502 115.76 56.0808 116.258C55.8114 116.756 55.4221 117.18 54.9482 117.49L41.8838 125.755" stroke="white" stroke-width="3.96659" stroke-miterlimit="10" stroke-linecap="round" stroke-linejoin="round"/>
<path d="M93.8826 117.606L84.552 111.783C82.2843 110.299 79.2754 111.926 79.2754 114.636C79.2754 115.787 79.8555 116.86 80.8182 117.49L93.8826 125.755V117.606Z" stroke="white" stroke-width="3.96659" stroke-miterlimit="10" stroke-linecap="round" stroke-linejoin="round"/>
<path d="M121.173 112.414V112.182C121.173 108.528 118.211 105.566 114.557 105.566H100.499C96.845 105.566 93.8828 108.528 93.8828 112.182V125.755H116.823C119.138 125.755 121.025 123.946 121.16 121.665" stroke="white" stroke-width="3.96659" stroke-miterlimit="10" stroke-linecap="round" stroke-linejoin="round"/>
<path d="M84.1973 81.5487C84.1973 75.5064 79.2991 70.6082 73.2568 70.6082C67.2146 70.6082 62.3164 75.5064 62.3164 81.5487C62.3164 87.5909 67.2146 92.4891 73.2568 92.4891C73.9984 92.4891 74.7224 92.4145 75.4224 92.2739L80.4742 95.2349V89.7672C82.7556 87.7622 84.1973 84.8247 84.1973 81.5487Z" stroke="white" stroke-width="3.96659" stroke-miterlimit="10" stroke-linecap="round" stroke-linejoin="round"/>
<path d="M68.0569 81.4725C68.0568 81.4725 68.0568 81.4725 68.0567 81.4725C68.0452 81.4743 68.0157 81.4802 67.9746 81.4988C67.91 81.528 67.8543 81.572 67.8146 81.6182C67.7765 81.6626 67.7629 81.6953 67.7584 81.711C67.7629 81.7269 67.7766 81.7602 67.8154 81.8054C67.8554 81.852 67.9114 81.8961 67.976 81.9254C68.0163 81.9436 68.0454 81.9495 68.0569 81.9514C68.057 81.9514 68.0571 81.9514 68.0571 81.9514C68.0686 81.9496 68.0981 81.9438 68.1392 81.9251C68.2037 81.8959 68.2594 81.8519 68.2991 81.8057C68.3372 81.7613 68.3508 81.7286 68.3553 81.7129C68.3509 81.6971 68.3371 81.6637 68.2983 81.6185C68.2583 81.5718 68.2023 81.5278 68.1377 81.4985C68.0974 81.4803 68.0684 81.4744 68.0569 81.4725ZM67.7565 81.7213C67.7567 81.7214 67.7571 81.7195 67.7573 81.7154C67.7564 81.7193 67.7563 81.7213 67.7565 81.7213ZM67.7573 81.7066C67.7571 81.7025 67.7567 81.7006 67.7565 81.7007C67.7564 81.7008 67.7565 81.7028 67.7573 81.7066ZM68.3572 81.7026C68.3571 81.7026 68.3566 81.7045 68.3564 81.7085C68.3573 81.7047 68.3574 81.7027 68.3572 81.7026ZM68.3564 81.7174C68.3566 81.7214 68.357 81.7233 68.3572 81.7232C68.3574 81.7232 68.3573 81.7212 68.3564 81.7174Z" fill="white" stroke="white" stroke-width="3.96659"/>
<path d="M73.2569 81.4725C73.2569 81.4725 73.2568 81.4725 73.2567 81.4725C73.2453 81.4743 73.2157 81.4801 73.1747 81.4988C73.1101 81.528 73.0544 81.572 73.0147 81.6182C72.9766 81.6626 72.963 81.6953 72.9585 81.711C72.963 81.7268 72.9767 81.7602 73.0155 81.8054C73.0556 81.8521 73.1115 81.8961 73.1761 81.9254C73.2164 81.9436 73.2454 81.9495 73.2569 81.9514C73.257 81.9514 73.2571 81.9514 73.2572 81.9514C73.2686 81.9496 73.2982 81.9437 73.3393 81.9251C73.4039 81.8958 73.4596 81.8519 73.4993 81.8057C73.5374 81.7613 73.551 81.7286 73.5555 81.7129C73.551 81.6971 73.5373 81.6637 73.4985 81.6185C73.4585 81.5719 73.4025 81.5278 73.3379 81.4985C73.2975 81.4803 73.2684 81.4744 73.2569 81.4725ZM72.9566 81.7213C72.9568 81.7213 72.9572 81.7194 72.9574 81.7154C72.9565 81.7192 72.9564 81.7212 72.9566 81.7213ZM72.9574 81.7065C72.9572 81.7025 72.9568 81.7006 72.9566 81.7006C72.9565 81.7007 72.9566 81.7027 72.9574 81.7065ZM73.5574 81.7026C73.5573 81.7025 73.5568 81.7045 73.5566 81.7085C73.5575 81.7047 73.5576 81.7027 73.5574 81.7026ZM73.5566 81.7174C73.5568 81.7214 73.5572 81.7233 73.5574 81.7233C73.5576 81.7232 73.5575 81.7212 73.5566 81.7174Z" fill="white" stroke="white" stroke-width="3.96659"/>
<path d="M78.4553 81.4725C78.4552 81.4725 78.4551 81.4725 78.455 81.4725C78.4436 81.4743 78.4141 81.4801 78.373 81.4988C78.3084 81.528 78.2528 81.572 78.2131 81.6182C78.1749 81.6626 78.1613 81.6953 78.1569 81.711C78.1613 81.7268 78.175 81.7602 78.2139 81.8054C78.2539 81.8521 78.3099 81.8961 78.3744 81.9254C78.4147 81.9436 78.4438 81.9495 78.4553 81.9514C78.4553 81.9514 78.4554 81.9514 78.4555 81.9514C78.4669 81.9496 78.4965 81.9437 78.5375 81.9251C78.6021 81.8959 78.6578 81.8519 78.6975 81.8057C78.7356 81.7613 78.7493 81.7285 78.7537 81.7129C78.7493 81.697 78.7356 81.6637 78.6968 81.6185C78.6568 81.5719 78.6008 81.5278 78.5362 81.4985C78.4958 81.4803 78.4668 81.4744 78.4553 81.4725ZM78.1549 81.7213C78.1551 81.7213 78.1555 81.7194 78.1557 81.7154C78.1549 81.7192 78.1548 81.7212 78.1549 81.7213ZM78.1557 81.7065C78.1555 81.7025 78.1551 81.7006 78.155 81.7006C78.1548 81.7007 78.1549 81.7027 78.1557 81.7065ZM78.7557 81.7026C78.7555 81.7025 78.7551 81.7044 78.7549 81.7085C78.7557 81.7046 78.7558 81.7026 78.7557 81.7026ZM78.7549 81.7173C78.7551 81.7214 78.7555 81.7233 78.7556 81.7232C78.7558 81.7231 78.7557 81.7211 78.7549 81.7173Z" fill="white" stroke="white" stroke-width="3.96659"/>
<path d="M72.296 31.4337C72.8637 32.7797 73.1552 34.2261 73.1534 35.6869C73.1534 41.7291 68.2552 46.6275 62.213 46.6275C61.4714 46.6275 60.7474 46.5527 60.0474 46.4121L54.9956 49.373V43.9054C52.7144 41.9004 51.2725 38.9628 51.2725 35.6869C51.2725 29.6445 56.1707 24.7466 62.213 24.7466C63.6758 24.7446 65.124 25.0369 66.4714 25.6061" stroke="white" stroke-width="3.96659" stroke-miterlimit="10" stroke-linecap="round" stroke-linejoin="round"/>
<path d="M57.0148 35.6102C57.0148 35.6102 57.0147 35.6102 57.0146 35.6102C57.0032 35.612 56.9736 35.6178 56.9326 35.6364C56.868 35.6657 56.8123 35.7096 56.7726 35.7559C56.7345 35.8003 56.7209 35.833 56.7164 35.8487C56.7209 35.8645 56.7346 35.8979 56.7734 35.9431C56.8135 35.9898 56.8694 36.0338 56.934 36.0631C56.9743 36.0813 57.0033 36.0872 57.0148 36.0891C57.0149 36.0891 57.015 36.0891 57.0151 36.0891C57.0265 36.0873 57.056 36.0814 57.0971 36.0628C57.1617 36.0336 57.2174 35.9896 57.2571 35.9434C57.2952 35.899 57.3088 35.8662 57.3133 35.8506C57.3088 35.8347 57.2951 35.8014 57.2564 35.7562C57.2163 35.7096 57.1604 35.6655 57.0958 35.6362C57.0554 35.618 57.0263 35.6121 57.0148 35.6102ZM56.7145 35.859C56.7147 35.859 56.7151 35.8571 56.7153 35.8531C56.7144 35.8569 56.7143 35.8589 56.7145 35.859ZM56.7153 35.8442C56.7151 35.8402 56.7147 35.8383 56.7145 35.8383C56.7144 35.8384 56.7145 35.8404 56.7153 35.8442ZM57.3152 35.8403C57.3151 35.8402 57.3147 35.8421 57.3145 35.8462C57.3153 35.8423 57.3154 35.8403 57.3152 35.8403ZM57.3144 35.855C57.3146 35.8591 57.3151 35.861 57.3152 35.8609C57.3154 35.8608 57.3153 35.8588 57.3144 35.855Z" fill="white" stroke="white" stroke-width="3.96659"/>
<path d="M62.2141 35.6102C62.2141 35.6102 62.214 35.6102 62.2139 35.6102C62.2025 35.612 62.1729 35.6178 62.1319 35.6364C62.0673 35.6657 62.0116 35.7096 61.9719 35.7559C61.9338 35.8003 61.9202 35.833 61.9157 35.8487C61.9202 35.8645 61.9339 35.8979 61.9727 35.9431C62.0128 35.9898 62.0687 36.0338 62.1333 36.0631C62.1736 36.0813 62.2026 36.0872 62.2141 36.0891C62.2142 36.0891 62.2143 36.0891 62.2144 36.0891C62.2258 36.0873 62.2553 36.0814 62.2964 36.0628C62.361 36.0336 62.4166 35.9896 62.4563 35.9434C62.4945 35.899 62.5081 35.8663 62.5125 35.8506C62.5081 35.8348 62.4944 35.8014 62.4555 35.7562C62.4155 35.7095 62.3595 35.6654 62.295 35.6362C62.2547 35.618 62.2256 35.6121 62.2141 35.6102ZM61.9138 35.859C61.914 35.859 61.9144 35.8571 61.9146 35.8531C61.9137 35.8569 61.9136 35.8589 61.9138 35.859ZM61.9146 35.8442C61.9144 35.8402 61.914 35.8383 61.9138 35.8383C61.9137 35.8384 61.9138 35.8404 61.9146 35.8442ZM62.5145 35.8403C62.5143 35.8403 62.5139 35.8422 62.5137 35.8462C62.5145 35.8424 62.5146 35.8404 62.5145 35.8403ZM62.5137 35.8551C62.5138 35.8591 62.5143 35.861 62.5144 35.8609C62.5146 35.8609 62.5145 35.8589 62.5137 35.8551Z" fill="white" stroke="white" stroke-width="3.96659"/>
<path d="M67.4124 35.6102C67.4123 35.6102 67.4122 35.6102 67.4121 35.6102C67.4007 35.612 67.3712 35.6178 67.3301 35.6365C67.2655 35.6657 67.2098 35.7097 67.1701 35.7559C67.132 35.8003 67.1184 35.833 67.1139 35.8487C67.1184 35.8646 67.1321 35.8979 67.1708 35.9431C67.2109 35.9897 67.2668 36.0338 67.3314 36.0631C67.3718 36.0813 67.4009 36.0872 67.4124 36.0891C67.4125 36.0891 67.4125 36.0891 67.4126 36.0891C67.424 36.0873 67.4536 36.0814 67.4946 36.0628C67.5592 36.0336 67.6149 35.9896 67.6546 35.9434C67.6927 35.899 67.7063 35.8663 67.7108 35.8506C67.7063 35.8348 67.6926 35.8014 67.6538 35.7562C67.6137 35.7095 67.5578 35.6654 67.4932 35.6362C67.4529 35.618 67.4239 35.6121 67.4124 35.6102ZM67.112 35.859C67.1121 35.8591 67.1126 35.8572 67.1128 35.8531C67.1119 35.857 67.1118 35.859 67.112 35.859ZM67.1128 35.8443C67.1126 35.8402 67.1122 35.8383 67.112 35.8384C67.1118 35.8384 67.1119 35.8405 67.1128 35.8443ZM67.7127 35.8403C67.7125 35.8403 67.7121 35.8422 67.7119 35.8462C67.7128 35.8424 67.7129 35.8404 67.7127 35.8403ZM67.7119 35.8551C67.7121 35.8591 67.7125 35.861 67.7127 35.8609C67.7128 35.8609 67.7127 35.8589 67.7119 35.8551Z" fill="white" stroke="white" stroke-width="3.96659"/>
<path d="M87.8167 21.1845C87.8167 15.1421 82.9185 10.2439 76.8761 10.2439C70.834 10.2439 65.9355 15.1421 65.9355 21.1845C65.9355 27.2266 70.834 32.1248 76.8761 32.1248C77.6178 32.1248 78.3418 32.0502 79.0418 31.9096L84.0936 34.8706V29.403C86.3748 27.3979 87.8167 24.4604 87.8167 21.1845Z" stroke="white" stroke-width="3.96659" stroke-miterlimit="10" stroke-linecap="round" stroke-linejoin="round"/>
<path d="M74.0264 18.3961L79.725 24.0947" stroke="white" stroke-width="3.96659" stroke-miterlimit="10" stroke-linecap="round" stroke-linejoin="round"/>
<path d="M79.725 18.3961L74.0264 24.0947" stroke="white" stroke-width="3.96659" stroke-miterlimit="10" stroke-linecap="round" stroke-linejoin="round"/>
</g>
</svg>
