<svg width="135" height="136" viewBox="0 0 135 136" fill="none" xmlns="http://www.w3.org/2000/svg">
<path d="M59.5337 29.2856C59.8863 31.012 60.0635 32.7697 60.0626 34.5318C60.0626 48.9082 48.4082 60.5626 34.0318 60.5626C19.6553 60.5626 8.00098 48.908 8.00098 34.5318C8.00098 20.1556 19.6553 8.50098 34.0318 8.50098C43.6663 8.50098 52.0782 13.7352 56.5793 21.5148M112.583 57.8335C109.087 59.5799 105.142 60.5623 100.968 60.5623C86.5914 60.5623 74.937 48.908 74.937 34.5315C74.937 20.1551 86.5914 8.50098 100.968 8.50098C115.344 8.50098 126.999 20.1553 126.999 34.5318C126.999 41.6999 124.101 48.1914 119.414 52.8988" stroke="white" stroke-width="3.61542" stroke-miterlimit="10" stroke-linecap="round" stroke-linejoin="round"/>
<path d="M100.968 127.499C115.345 127.499 126.999 115.844 126.999 101.468C126.999 87.0914 115.345 75.437 100.968 75.437C86.5919 75.437 74.9375 87.0914 74.9375 101.468C74.9375 115.844 86.5919 127.499 100.968 127.499Z" stroke="white" stroke-width="3.61542" stroke-miterlimit="10" stroke-linecap="round" stroke-linejoin="round"/>
<path d="M34.0318 127.499C48.4082 127.499 60.0626 115.844 60.0626 101.468C60.0626 87.0914 48.4082 75.437 34.0318 75.437C19.6554 75.437 8.00098 87.0914 8.00098 101.468C8.00098 115.844 19.6554 127.499 34.0318 127.499Z" stroke="white" stroke-width="3.61542" stroke-miterlimit="10" stroke-linecap="round" stroke-linejoin="round"/>
<path d="M47.8771 96.0192C48.5597 97.7546 48.909 99.6032 48.9066 101.468C48.9066 109.683 42.2471 116.343 34.0319 116.343C25.8168 116.343 19.1572 109.683 19.1572 101.468C19.1572 93.2528 25.8168 86.5933 34.0319 86.5933C37.2956 86.5933 40.3142 87.6444 42.7667 89.4267" stroke="white" stroke-width="3.61542" stroke-miterlimit="10" stroke-linecap="round" stroke-linejoin="round"/>
<path d="M76.7967 75.4369V62.4217C76.7967 57.2873 72.6344 53.125 67.5 53.125C62.3656 53.125 58.2033 57.2873 58.2033 62.4217V76.8886C58.2033 78.8721 59.8114 80.4801 61.7948 80.4801H65.6406M34.032 86.593C38.1394 86.593 41.4692 93.2526 41.4692 101.468C41.4692 109.683 38.1394 116.342 34.032 116.342C29.9245 116.342 26.5947 109.683 26.5947 101.468C26.5947 93.2526 29.9245 86.593 34.032 86.593Z" stroke="white" stroke-width="3.61542" stroke-miterlimit="10" stroke-linecap="round" stroke-linejoin="round"/>
<path d="M48.9066 101.468H19.1553M34.0319 86.5933V116.343M58.2033 73.0429H54.3575C52.3741 73.0429 50.766 71.4349 50.766 69.4514V65.4783C50.766 63.4948 52.3741 61.8868 54.3575 61.8868H58.2033V73.0429ZM76.7966 73.0429H80.6424C82.6258 73.0429 84.2338 71.4349 84.2338 69.4514V65.4783C84.2338 63.4948 82.6258 61.8868 80.6424 61.8868H76.7966V73.0429ZM113.447 87.864C113.175 87.564 112.879 87.286 112.563 87.0324C112.183 86.7255 111.703 86.5701 111.214 86.5961C110.726 86.6221 110.265 86.8278 109.92 87.1734L103.458 93.6355C102.765 94.3277 102.678 95.426 103.263 96.2101C103.454 96.4655 103.663 96.7069 103.889 96.9322C104.438 97.4826 105.08 97.9312 105.786 98.2572C106.629 98.6461 107.016 99.6371 106.636 100.484C106.041 101.812 105.112 103.165 103.889 104.388C102.665 105.612 101.312 106.541 99.9844 107.136C99.1373 107.516 98.1463 107.129 97.7574 106.286C97.4315 105.58 96.9828 104.937 96.4324 104.388C96.207 104.163 95.9657 103.954 95.7103 103.763C94.9259 103.177 93.8279 103.265 93.1357 103.957L86.6739 110.419C86.3283 110.765 86.1226 111.226 86.0965 111.714C86.0704 112.202 86.2256 112.682 86.5324 113.063C86.7859 113.379 87.0641 113.674 87.3642 113.947C92.2493 118.443 101.776 116.442 108.859 109.359C115.942 102.276 117.943 92.7493 113.447 87.864ZM109.857 19.6572H92.0791C88.7732 19.6572 86.0933 22.3372 86.0933 25.643V35.9836C86.0933 39.2894 88.7732 41.9694 92.0791 41.9694H100.968L105.34 46.3412C106.471 47.4725 108.405 46.6711 108.405 45.0715V41.9694H109.857C113.162 41.9694 115.842 39.2894 115.842 35.9836V25.643C115.843 22.3369 113.163 19.6572 109.857 19.6572ZM47.1109 45.6878H20.9529C20.4767 45.6878 20.0199 45.4986 19.6831 45.1618C19.3464 44.8251 19.1572 44.3683 19.1572 43.892V25.1716C19.1572 24.6953 19.3464 24.2386 19.6831 23.9018C20.0199 23.565 20.4767 23.3758 20.9529 23.3758H47.1109C47.5871 23.3758 48.0439 23.565 48.3806 23.9018C48.7174 24.2386 48.9066 24.6953 48.9066 25.1716V43.8923C48.9065 44.3685 48.7173 44.8252 48.3806 45.1619C48.0438 45.4986 47.5871 45.6878 47.1109 45.6878Z" stroke="white" stroke-width="3.61542" stroke-miterlimit="10" stroke-linecap="round" stroke-linejoin="round"/>
<path d="M19.6826 23.9019L30.8516 35.0709C32.6079 36.8271 35.4552 36.8271 37.2114 35.0709L48.3804 23.9019M37.7501 34.5319L48.3802 45.162M19.6826 45.162L30.3127 34.5319M58.4435 92.412C61.2638 93.4585 64.3149 94.0305 67.4996 94.0305C70.6842 94.0305 73.7351 93.4585 76.5556 92.412M43.0873 58.9439C42.0408 61.7644 41.4688 64.8153 41.4688 68C41.4688 71.1846 42.0408 74.2355 43.0873 77.056M76.5556 43.588C73.7353 42.5412 70.6842 41.9694 67.4996 41.9694C64.3149 41.9694 61.264 42.5414 58.4435 43.588M91.9116 77.056C92.9581 74.2357 93.5301 71.1846 93.5301 68C93.5301 64.8153 92.9581 61.7644 91.9116 58.9439" stroke="white" stroke-width="3.61542" stroke-miterlimit="10" stroke-linecap="round" stroke-linejoin="round"/>
</svg>
