<svg width="136" height="136" viewBox="0 0 136 136" fill="none" xmlns="http://www.w3.org/2000/svg">
<path d="M63.1094 59.3483V76.5567C63.1094 77.849 64.1569 78.8967 65.4494 78.8967H68.7971L76.6361 83.7659C77.7273 84.4436 79.1383 83.659 79.1383 82.3746V78.8967H85.7527C87.045 78.8967 88.0927 77.8492 88.0927 76.5567V51.1041C88.0927 49.8119 87.0452 48.7642 85.7527 48.7642H74.0381M95.6107 91.9191V95.2104C95.6107 98.5316 98.3033 101.224 101.625 101.224C104.946 101.224 107.638 98.5316 107.638 95.2104V91.8445M112.085 88.3148C119.953 89.1138 126.093 95.7584 126.093 103.837V122.023M79.3605 95.8365C81.8276 91.7137 86.1439 88.8245 91.1636 88.3148M105.453 82.1006C105.453 84.2151 103.739 85.9292 101.624 85.9292C99.5098 85.9292 97.7957 84.2151 97.7957 82.1006" stroke="white" stroke-width="3.96659" stroke-miterlimit="10" stroke-linecap="round" stroke-linejoin="round"/>
<path d="M113.242 102.903V109.85C113.242 110.073 113.198 110.294 113.113 110.5C113.028 110.707 112.902 110.894 112.744 111.052C112.587 111.21 112.399 111.335 112.193 111.42C111.987 111.506 111.766 111.55 111.542 111.55H100.321V122.023M101.625 92.9969C94.1517 92.9969 88.0938 86.9386 88.0938 79.4657V73.3024C88.0938 66.3966 93.692 60.7983 100.598 60.7983H102.652C109.558 60.7983 115.156 66.3966 115.156 73.3024V79.4657C115.156 86.9389 109.098 92.9969 101.625 92.9969Z" stroke="white" stroke-width="3.96659" stroke-miterlimit="10" stroke-linecap="round" stroke-linejoin="round"/>
<path d="M90.4651 122.024V117.352C90.4651 114.148 93.0626 111.55 96.2667 111.55H100.321V122.024M41.0644 91.845V95.2109C41.0644 98.5321 38.3718 101.225 35.0506 101.225C31.7293 101.225 29.0367 98.5321 29.0367 95.2109V91.8824M24.6322 88.3108C16.7439 89.0904 10.582 95.7443 10.582 103.838V122.023M57.312 95.8372C54.8596 91.7395 50.5819 88.8598 45.6014 88.3248M38.879 82.1011C38.879 84.2156 37.1649 85.9297 35.0503 85.9297C32.9358 85.9297 31.2217 84.2156 31.2217 82.1011" stroke="white" stroke-width="3.96659" stroke-miterlimit="10" stroke-linecap="round" stroke-linejoin="round"/>
<path d="M23.4333 102.903V109.85C23.4333 110.073 23.4772 110.294 23.5627 110.5C23.6481 110.707 23.7733 110.894 23.9312 111.052C24.089 111.21 24.2764 111.335 24.4826 111.42C24.6889 111.506 24.9099 111.55 25.1332 111.55H36.3546M36.3546 111.55V122.023M36.3546 111.55H40.4091C42.6835 111.55 44.6521 112.858 45.6032 114.764M60.9758 122.023H78.4848C79.6464 122.023 80.6544 121.222 80.9175 120.091L85.7506 99.2922C86.1144 97.7264 84.9256 96.2294 83.3179 96.2294H52.1788C51.6147 96.2294 51.0672 96.4203 50.6254 96.7711C50.1837 97.122 49.8737 97.612 49.746 98.1615L44.9129 118.96C44.5489 120.526 45.738 122.023 47.3456 122.023H52.6257M67.2104 28.5801H50.9216C49.6294 28.5801 48.5816 29.6276 48.5816 30.9201V36.2548M48.5818 44.6046V56.3724C48.5818 57.6647 49.6294 58.7124 50.9218 58.7124H53.7922V62.1903C53.7922 63.4747 55.2032 64.2593 56.2944 63.5816L64.1334 58.7124H71.225C72.5172 58.7124 73.565 57.6647 73.565 56.3724V37.811M66.1257 43.9499H56.0211M66.1257 50.0888H56.0211M61.0734 37.811H56.0211M80.6537 65.2936H70.5491M80.6537 71.4324H70.5491M35.0507 92.9969C27.5775 92.9969 21.5195 86.9387 21.5195 79.4657V73.3025C21.5195 66.3966 27.1178 60.7984 34.0236 60.7984H36.078C42.9838 60.7984 48.5821 66.3966 48.5821 73.3025V79.4657C48.5818 86.9389 42.5239 92.9969 35.0507 92.9969Z" stroke="white" stroke-width="3.96659" stroke-miterlimit="10" stroke-linecap="round" stroke-linejoin="round"/>
<path d="M80.6526 39.7154C87.7602 39.7154 93.522 33.9536 93.522 26.846C93.522 19.7384 87.7602 13.9766 80.6526 13.9766C73.545 13.9766 67.7832 19.7384 67.7832 26.846C67.7832 33.9536 73.545 39.7154 80.6526 39.7154Z" stroke="white" stroke-width="3.96659" stroke-miterlimit="10" stroke-linecap="round" stroke-linejoin="round"/>
<path d="M75.6055 26.2827L79.346 30.0235L85.7005 23.6689" stroke="white" stroke-width="3.96659" stroke-miterlimit="10" stroke-linecap="round" stroke-linejoin="round"/>
</svg>
