<svg width="136" height="136" viewBox="0 0 136 136" fill="none" xmlns="http://www.w3.org/2000/svg">
<mask id="mask0_130_299" style="mask-type:luminance" maskUnits="userSpaceOnUse" x="0" y="8" width="120" height="120">
<path d="M117.272 125.515V10.4842H2.24111V125.515H117.272Z" fill="white" stroke="white" stroke-width="3.96659"/>
</mask>
<g mask="url(#mask0_130_299)">
<path d="M86.6445 75.103C86.6445 68.5604 95.9152 68.5604 95.9152 75.103V89.7578" stroke="white" stroke-width="3.96659" stroke-miterlimit="10" stroke-linecap="round" stroke-linejoin="round"/>
<path d="M95.916 79.0532C95.916 72.5039 105.18 72.5107 105.18 79.0532V89.6387" stroke="white" stroke-width="3.96659" stroke-miterlimit="10" stroke-linecap="round" stroke-linejoin="round"/>
<path d="M68.1035 55.0398C68.1035 48.4972 77.3742 48.4972 77.3742 55.0398V85.1016" stroke="white" stroke-width="3.96659" stroke-miterlimit="10" stroke-linecap="round" stroke-linejoin="round"/>
<path d="M77.373 71.1523C77.373 64.6098 86.6439 64.6098 86.6439 71.1523V87.4297" stroke="white" stroke-width="3.96659" stroke-miterlimit="10" stroke-linecap="round" stroke-linejoin="round"/>
<path d="M68.1035 55.0399V87.4233" stroke="white" stroke-width="3.96659" stroke-miterlimit="10" stroke-linecap="round" stroke-linejoin="round"/>
<path d="M68.1042 84.9564V88.3464C68.1042 91.8682 67.3596 94.5262 64.981 91.5649C61.3109 86.2226 58.616 83.3141 53.4633 84.211C50.4391 84.7453 49.2859 87.555 51.3551 90.2195L66.0353 111.773C69.1782 116.396 69.6131 119.338 69.6131 123.46C69.6131 124.72 70.6473 125.755 71.9126 125.755H99.3755C100.641 125.755 101.675 124.72 101.675 123.46V116.35C101.675 110.388 104.396 110.949 105.18 103.661V97.6919" stroke="white" stroke-width="3.96659" stroke-miterlimit="10" stroke-linecap="round" stroke-linejoin="round"/>
<path d="M97.6228 29.7198L84.168 43.1875" stroke="white" stroke-width="3.96659" stroke-miterlimit="10" stroke-linecap="round" stroke-linejoin="round"/>
<path d="M101.635 54.6309H88.8984" stroke="white" stroke-width="3.96659" stroke-miterlimit="10" stroke-linecap="round" stroke-linejoin="round"/>
<path d="M54.2402 36.1111L61.3104 43.188" stroke="white" stroke-width="3.96659" stroke-miterlimit="10" stroke-linecap="round" stroke-linejoin="round"/>
<path d="M25.1096 36.1904H11.3717C9.09841 36.1904 7.24023 34.3306 7.24023 32.0553V14.3795C7.24023 12.1041 9.09841 10.2443 11.3717 10.2443H50.9321C53.2052 10.2443 55.0633 12.1041 55.0633 14.3795V32.0553C55.0633 34.3239 53.2052 36.1904 50.9321 36.1904H33.1615" stroke="white" stroke-width="3.96659" stroke-miterlimit="10" stroke-linecap="round" stroke-linejoin="round"/>
<path d="M28.5895 18.9434H46.7885M14.3047 18.9434H19.6087" stroke="white" stroke-width="3.96659" stroke-miterlimit="10" stroke-linecap="round" stroke-linejoin="round"/>
<path d="M35.1328 71.5283L57.1269 58.8125" stroke="white" stroke-width="3.96659" stroke-miterlimit="10" stroke-linecap="round" stroke-linejoin="round"/>
<path d="M68.1028 70.1235C62.9171 68.567 58.6344 64.4316 57.1255 58.8125C54.8195 50.1856 59.9324 41.3149 68.5574 39.0066C77.1757 36.6915 86.038 41.8163 88.3443 50.4429C89.9584 56.4579 87.9554 62.5916 83.6724 66.5422" stroke="white" stroke-width="3.96659" stroke-miterlimit="10" stroke-linecap="round" stroke-linejoin="round"/>
<path d="M32.5034 27.2998H14.3047M46.7885 27.2998H41.4843" stroke="white" stroke-width="3.96659" stroke-miterlimit="10" stroke-linecap="round" stroke-linejoin="round"/>
<path d="M99.6921 15.8501C103.58 11.9588 109.892 11.9588 113.779 15.8501C117.673 19.7415 117.673 26.0597 113.779 29.9511C109.892 33.849 103.58 33.849 99.6921 29.9511C95.7979 26.0597 95.7979 19.7415 99.6921 15.8501Z" stroke="white" stroke-width="3.96659" stroke-miterlimit="10" stroke-linecap="round" stroke-linejoin="round"/>
<path d="M108.165 48.0948C111.769 48.0948 114.688 51.0233 114.688 54.6309C114.688 58.2384 111.769 61.1602 108.165 61.1602C104.56 61.1602 101.635 58.2384 101.635 54.6309C101.635 51.0233 104.56 48.0948 108.165 48.0948Z" stroke="white" stroke-width="3.96659" stroke-miterlimit="10" stroke-linecap="round" stroke-linejoin="round"/>
<path d="M28.3585 96.8217C20.2146 101.531 9.79745 98.741 5.09936 90.5825C0.395005 82.4307 3.18866 72.01 11.3326 67.3008C19.4765 62.5918 29.8936 65.3882 34.5917 73.54C39.2963 81.6918 36.5027 92.1192 28.3585 96.8217Z" stroke="white" stroke-width="3.96659" stroke-miterlimit="10" stroke-linecap="round" stroke-linejoin="round"/>
<path d="M23.39 88.2012C19.9967 90.1601 15.6677 88.9994 13.7108 85.6093C11.7541 82.2193 12.9136 77.8796 16.3004 75.9208C19.6937 73.962 24.0227 75.1227 25.9796 78.5192C27.9366 81.9092 26.7768 86.2424 23.39 88.2012Z" stroke="white" stroke-width="3.96659" stroke-miterlimit="10" stroke-linecap="round" stroke-linejoin="round"/>
</g>
</svg>
