<svg width="179" height="37" viewBox="0 0 179 37" fill="none" xmlns="http://www.w3.org/2000/svg">
<g clip-path="url(#clip0_55_1094)">
<path d="M77.0445 13.8061C77.2183 13.4564 77.4121 13.1067 78.154 13.1067C78.8959 13.1067 79.4908 13.4765 79.4908 14.0683V25.4871C79.4908 26.0453 79.1633 26.3815 78.4481 26.3815C77.7864 26.3815 77.372 26.0654 77.372 25.4871V17.3366L74.6249 22.3197C74.3977 22.7568 73.9298 22.898 73.4285 22.898C72.9272 22.898 72.4193 22.777 72.1786 22.3197L69.4316 17.0945V25.4871C69.4316 26.0654 69.0306 26.3815 68.3688 26.3815C67.6537 26.3815 67.3262 26.052 67.3262 25.4871V14.0683C67.3262 13.4564 67.8809 13.1067 68.6095 13.1067C69.338 13.1067 69.5653 13.4564 69.7591 13.8061L73.4619 20.1879L77.0445 13.8061Z" fill="#3483B4"/>
<path d="M83.9621 22.4475C83.9621 23.779 84.8109 24.2497 86.014 24.2497C87.1102 24.2497 88.0459 23.5503 88.0459 22.3802V17.2223C88.0459 16.6103 88.5138 16.4153 89.0685 16.4153C89.6233 16.4153 90.0912 16.6103 90.0912 17.2223V23.6243C90.0912 24.1287 90.3853 24.4447 90.6794 24.6398C90.9601 24.8482 91.0069 25.0567 91.0069 25.3391C91.0069 25.7964 90.6058 26.2672 89.9441 26.2672C89.1621 26.2672 88.4871 25.4266 88.3801 25.1105C87.7919 25.8771 86.9565 26.247 85.4058 26.247C83.8552 26.247 81.9102 25.3929 81.9102 22.7703V17.229C81.9102 16.617 82.3981 16.422 82.9528 16.422C83.5076 16.422 83.942 16.617 83.942 17.229V22.4542L83.9621 22.4475Z" fill="#3483B4"/>
<path d="M94.2154 12.6225C94.944 12.6225 95.5188 13.1807 95.5188 13.9137C95.5188 14.6467 94.944 15.1712 94.2154 15.1712C93.4869 15.1712 92.9321 14.6265 92.9321 13.9137C92.9321 13.2008 93.4735 12.6225 94.2154 12.6225ZM93.1527 17.2357C93.1527 16.7314 93.5203 16.3951 94.1954 16.3951C94.8704 16.3951 95.2715 16.7246 95.2715 17.2357V25.5207C95.2715 26.0251 94.8905 26.3748 94.2087 26.3748C93.527 26.3748 93.146 26.0251 93.146 25.5207V17.2357H93.1527Z" fill="#3483B4"/>
<path d="M98.8539 20.9277C98.1053 20.9277 97.7778 20.4569 97.7778 19.7374C97.7778 19.0178 98.1053 18.5807 98.8539 18.5807H106.781C107.53 18.5807 107.857 19.0178 107.857 19.7374C107.857 20.4569 107.53 20.9277 106.781 20.9277H98.8539Z" fill="#3483B4"/>
<path d="M116.6 17.1147C116.84 17.2559 117.054 17.5316 117.054 17.9687C117.054 18.3722 116.686 18.9304 116.185 18.9304C116.045 18.9304 115.891 18.9102 115.697 18.8228C115.263 18.5807 114.862 18.4193 114.133 18.4193C112.85 18.4193 111.633 18.9976 111.633 21.358C111.633 23.7185 112.85 24.4716 114.347 24.4716C114.989 24.4716 115.443 24.317 115.878 24.0009C116.085 23.8597 116.259 23.8261 116.432 23.8261C117.007 23.8261 117.335 24.4716 117.335 24.8415C117.335 25.1576 117.281 25.366 116.9 25.6821C116.312 26.1865 115.443 26.4891 114.274 26.4891C111.647 26.4891 109.602 25.0231 109.602 21.3311C109.602 17.6392 111.633 16.3682 114 16.3682C115.356 16.3682 116.065 16.7179 116.606 17.1214L116.6 17.1147Z" fill="#3483B4"/>
<path d="M121.325 17.2021V17.4846C121.673 16.9062 122.749 16.4691 123.671 16.4691C124.453 16.4691 125.202 16.6103 125.703 16.9062C126.03 17.1147 126.137 17.377 126.137 17.8006C126.137 18.2579 125.843 18.8497 125.268 18.8497C124.921 18.8497 124.66 18.6076 123.597 18.6076C122.662 18.6076 121.619 19.1859 121.318 19.9727V25.635C121.318 26.2268 120.85 26.442 120.296 26.442C119.707 26.442 119.233 26.2336 119.233 25.635V17.2088C119.233 16.6305 119.701 16.422 120.296 16.422C120.764 16.422 121.318 16.6305 121.318 17.2088L121.325 17.2021Z" fill="#3483B4"/>
<path d="M130.415 22.3937C130.014 22.3937 129.6 22.044 129.6 21.3782C129.6 20.7125 130.014 20.4166 130.415 20.4166H134.044C133.937 19.0851 133.209 18.3857 131.852 18.3857C130.495 18.3857 129.212 19.0514 129.212 21.3917C129.212 23.7319 130.448 24.5053 132.099 24.5053C132.968 24.5053 133.61 24.2228 134.151 23.8933C134.345 23.7723 134.532 23.6983 134.739 23.6983C135.227 23.6983 135.642 24.1018 135.642 24.6398C135.642 25.0231 135.535 25.2316 135.274 25.4467C134.82 25.8301 133.83 26.4756 132.093 26.4756C128.584 26.4756 127.173 24.2901 127.173 21.3849C127.173 18.4798 128.63 16.3481 131.812 16.3481C134.191 16.3481 135.949 17.9755 135.949 20.894C135.949 21.6607 135.635 22.3802 134.646 22.3802H130.408L130.415 22.3937Z" fill="#3483B4"/>
<path d="M143.288 25.1912C143.288 25.5611 143.094 25.8233 142.82 25.9982C142.406 26.2604 141.463 26.4891 140.681 26.4891C138.857 26.4891 137.346 25.5073 137.346 23.2746C137.346 21.042 138.93 19.7777 141.604 19.7777C142.299 19.7777 143.134 19.8988 143.375 19.9727V19.9189C143.375 18.7152 142.366 18.3453 141.31 18.3453C140.581 18.3453 139.973 18.574 139.452 18.7623C139.211 18.8295 139.104 18.9035 138.863 18.9035C138.322 18.9035 137.961 18.3252 137.961 17.767C137.961 17.3971 138.101 17.1214 138.502 16.9264C139.231 16.5229 140.381 16.3144 141.423 16.3144C143.736 16.3144 145.367 17.4173 145.367 19.6365V23.5369C145.367 24.169 145.681 24.4313 145.975 24.6532C146.216 24.8617 146.289 25.0567 146.289 25.2988C146.289 25.8032 145.835 26.2604 145.28 26.2604C144.986 26.2604 144.705 26.1932 144.464 26.0184C143.876 25.6014 143.442 25.0231 143.442 24.1152V21.9633C143.322 21.9095 142.64 21.7683 141.985 21.7683C140.073 21.7683 139.398 22.2726 139.398 23.3082C139.398 24.0951 139.886 24.5658 140.735 24.5658C141.256 24.5658 141.624 24.4985 142.058 24.3237C142.232 24.2564 142.372 24.1825 142.513 24.1825C142.981 24.1825 143.315 24.6734 143.315 25.1979L143.288 25.1912Z" fill="#3483B4"/>
<path d="M147.545 18.7421C147.164 18.7421 146.797 18.4126 146.797 17.7603C146.797 17.0811 147.164 16.765 147.579 16.765H148.969V14.8215C148.969 14.3172 149.337 13.9809 150.012 13.9809C150.687 13.9809 151.001 14.3104 151.001 14.8215V16.765H153.14C153.594 16.765 154.029 17.0811 154.029 17.7603C154.029 18.3924 153.594 18.7421 153.14 18.7421H151.001V23.1805C151.001 23.9471 151.435 24.3708 152.184 24.3708C152.705 24.3708 153.033 24.1421 153.28 24.1421C153.835 24.1421 154.149 24.5792 154.149 25.1576C154.149 25.7695 153.822 25.978 153.421 26.1394C153.04 26.2941 152.518 26.4017 152.05 26.4017C150.346 26.4017 148.976 25.857 148.976 23.4965V18.7421H147.552H147.545Z" fill="#3483B4"/>
<path d="M157.351 12.6225C158.079 12.6225 158.654 13.1807 158.654 13.9137C158.654 14.6467 158.079 15.1712 157.351 15.1712C156.622 15.1712 156.067 14.6265 156.067 13.9137C156.067 13.2008 156.609 12.6225 157.351 12.6225ZM156.288 17.2357C156.288 16.7314 156.656 16.3951 157.331 16.3951C158.006 16.3951 158.407 16.7246 158.407 17.2357V25.5207C158.407 26.0251 158.026 26.3748 157.344 26.3748C156.662 26.3748 156.281 26.0251 156.281 25.5207V17.2357H156.288Z" fill="#3483B4"/>
<path d="M162.424 16.9735L164.877 23.9135L167.343 16.8995C167.483 16.5498 167.724 16.3951 168.158 16.3951C168.874 16.3951 169.355 16.7986 169.355 17.377C169.355 17.5316 169.321 17.7065 169.248 17.8679L166.207 25.6687C166.033 26.1058 165.719 26.4353 164.85 26.4353C164.068 26.4353 163.7 26.1192 163.527 25.6687L160.485 17.8679C160.419 17.7132 160.378 17.5383 160.378 17.377C160.378 16.8188 160.779 16.4153 161.528 16.4153C162.069 16.4153 162.277 16.6103 162.417 16.9735H162.424Z" fill="#3483B4"/>
<path d="M173.459 22.3937C173.058 22.3937 172.644 22.044 172.644 21.3782C172.644 20.7125 173.058 20.4166 173.459 20.4166H177.088C176.981 19.0851 176.253 18.3857 174.896 18.3857C173.539 18.3857 172.256 19.0514 172.256 21.3917C172.256 23.7319 173.492 24.5053 175.143 24.5053C176.012 24.5053 176.654 24.2228 177.195 23.8933C177.389 23.7723 177.576 23.6983 177.783 23.6983C178.271 23.6983 178.686 24.1018 178.686 24.6398C178.686 25.0231 178.579 25.2316 178.318 25.4467C177.864 25.8301 176.874 26.4756 175.137 26.4756C171.628 26.4756 170.217 24.2901 170.217 21.3849C170.217 18.4798 171.674 16.3481 174.856 16.3481C177.235 16.3481 178.993 17.9755 178.993 20.894C178.993 21.6607 178.679 22.3802 177.69 22.3802H173.452L173.459 22.3937Z" fill="#3483B4"/>
<path d="M45.1026 10.1141C44.8152 10.1074 44.5211 10.1141 44.2271 10.1276C41.4599 4.06852 35.5514 0.141225 28.8408 3.5488e-06C21.6891 -0.134493 15.0855 4.25009 12.4186 10.9278C12.0577 11.8222 12.4922 12.8444 13.3811 13.2008C14.2701 13.564 15.286 13.1269 15.6403 12.2325C17.7724 6.89295 23.0393 3.36242 28.7673 3.49691C34.4352 3.61123 39.3813 7.10142 41.4132 12.414C41.5067 12.7839 41.7206 13.1134 42.0214 13.3555C42.3957 13.6581 42.8769 13.7926 43.3582 13.7119C43.9062 13.6312 44.4677 13.5842 45.0291 13.6043C50.4564 13.7119 54.7875 18.2445 54.6806 23.7117C54.5736 29.1118 50.1757 33.4224 44.8353 33.4224C44.7684 33.4224 44.7016 33.4224 44.6348 33.4224C42.2754 33.3753 40.4306 32.4002 38.0445 30.7257L36.7345 29.8313C34.6023 28.3519 31.8753 28.056 29.4825 29.0445L36.0594 33.5972C38.2985 35.1641 40.9854 36.8521 44.5612 36.9193C44.6481 36.9193 44.7417 36.9193 44.8286 36.9193C52.0538 36.9193 58.0091 31.0754 58.1495 23.779C58.2965 16.3884 52.4348 10.2486 45.0893 10.1007L45.1026 10.1141Z" fill="#3483B4"/>
<path d="M41.3194 18.3319C42.2422 18.3319 42.9904 17.5792 42.9904 16.6507C42.9904 15.7222 42.2422 14.9695 41.3194 14.9695C40.3966 14.9695 39.6484 15.7222 39.6484 16.6507C39.6484 17.5792 40.3966 18.3319 41.3194 18.3319Z" fill="#E88D23"/>
<path d="M28.3864 24.0076L17.4182 16.3817C17.3714 16.3481 17.3246 16.3481 17.2778 16.3212C12.559 13.2546 6.29627 14.1894 2.64021 18.5269C-0.795283 22.6089 -0.882173 28.6074 2.43301 32.7903C3.58263 34.2428 5.07313 35.3928 6.74409 36.1258C8.08086 36.7108 9.5112 37 10.9549 37C13.0403 37 15.1457 36.4015 17.0238 35.2246L28.2861 28.1905L31.5077 26.1798L41.0656 20.2081C39.5016 18.7488 37.1689 18.5269 35.3576 19.6567L28.3797 24.0144L28.3864 24.0076ZM15.1858 32.2523C12.9734 33.6376 10.3333 33.8797 8.12765 32.918C6.96466 32.4069 5.96208 31.6336 5.15334 30.6114C2.90757 27.7803 2.96772 23.5571 5.2937 20.7932C7.84024 17.7737 12.2115 17.1349 15.4732 19.307C15.4932 19.3204 15.52 19.3204 15.54 19.3339L25.1648 26.0251L15.1858 32.259V32.2523Z" fill="#3483B4"/>
</g>
<defs>
<clipPath id="clip0_55_1094">
<rect width="179" height="37" fill="white"/>
</clipPath>
</defs>
</svg>
