<svg width="216" height="104" viewBox="0 0 216 104" fill="none" xmlns="http://www.w3.org/2000/svg">
<path fill-rule="evenodd" clip-rule="evenodd" d="M27.3546 0.884333C29.0493 1.2246 30.0441 2.3317 30.0441 3.87736C30.0441 5.36 29.4624 6.63516 27.3729 9.73211C26.5803 10.9071 25.9316 11.9624 25.9316 12.0769C25.9316 12.1913 41.8049 12.2851 61.2056 12.2851C97.2339 12.2851 98.0687 12.3158 99.6677 13.7028C100.566 14.4816 100.887 16.5634 100.32 17.9365C99.5088 19.9005 98.1644 20.3203 92.198 20.4726L86.8706 20.6091V30.5156V40.4221L92.9458 40.451C96.5023 40.4679 99.6408 40.6663 100.516 40.9297C103.526 41.8357 104.226 45.8222 101.705 47.7017C100.741 48.4209 100.063 48.4986 93.7608 48.6115L86.8706 48.7353V58.8346V68.9343L91.4503 68.9365C98.5734 68.9395 100.143 69.6895 100.143 73.0899C100.143 75.4452 99.3133 76.3047 96.5445 76.8183C95.1631 77.0745 79.5343 77.1709 50.3801 77.103C7.25032 77.0025 6.27791 76.9845 5.08343 76.2597C3.60707 75.3634 3.0246 73.65 3.54875 71.7446C4.17159 69.4813 5.1511 69.1391 11.4271 68.9936L16.959 68.8656V58.7704V48.6756H10.6109C1.88059 48.6756 0.509277 48.102 0.509277 44.4513C0.509277 42.5425 1.46598 41.3825 3.53117 40.7883C4.23104 40.5868 7.53856 40.4221 10.8812 40.4221H16.959V31.936V23.4498L12.3258 27.9439C7.3221 32.7973 5.02586 34.2755 3.13601 33.859C0.657326 33.3128 -0.305734 30.0433 1.35046 27.7965C1.8133 27.1688 3.45341 25.5192 4.99558 24.1308C10.1814 19.4615 13.3431 15.6852 18.382 8.14218C21.9785 2.75863 22.475 2.17488 24.25 1.24599C25.5081 0.587957 25.7417 0.56057 27.3546 0.884333ZM24.8101 30.4804V40.4221H31.1657H37.5213V30.4804V20.5386H31.1657H24.8101V30.4804ZM45.3723 30.4804V40.4221H51.7279H58.0835V30.4804V20.5386H51.7279H45.3723V30.4804ZM65.9345 30.4804V40.4221H72.477H79.0195V30.4804V20.5386H72.477H65.9345V30.4804ZM24.8101 58.805V68.9343H31.1657H37.5213V58.805V48.6756H31.1657H24.8101V58.805ZM45.3723 58.805V68.9343H51.7279H58.0835V58.805V48.6756H51.7279H45.3723V58.805ZM65.9345 58.805V68.9343H72.477H79.0195V58.805V48.6756H72.477H65.9345V58.805ZM90.4858 81.2921C91.1374 81.6909 92.3453 82.9143 93.1704 84.0105C95.5116 87.1224 101.001 96.2441 101.269 97.4675C101.885 100.286 99.5227 103.074 96.5172 103.074C93.2411 103.074 92.7214 102.415 86.2421 90.0412C83.9627 85.6886 83.489 84.4971 83.6834 83.6083C84.2483 81.0268 87.9768 79.7569 90.4858 81.2921ZM16.153 81.5224C18.819 82.5931 19.0616 84.5923 17.1875 90.0479C15.0251 96.342 10.5963 102.591 7.79802 103.295C5.04455 103.989 2.16584 101.623 2.50643 98.9471C2.5984 98.2249 4.33161 94.2576 6.35792 90.1308C9.36598 84.0056 10.276 82.4727 11.313 81.7835C12.8055 80.7916 14.1521 80.7192 16.153 81.5224ZM65.0234 82.9495C66.2183 84.3361 69.463 91.2282 70.8092 95.2394C72.0736 99.0052 71.01 101.887 68.1212 102.523C64.5882 103.302 62.9081 101.625 60.404 94.8203C56.8894 85.2699 56.7877 84.7409 58.1351 83.0223C59.1991 81.665 60.1745 81.2921 62.1952 81.4703C63.5627 81.5907 64.0914 81.8672 65.0234 82.9495ZM39.708 83.3333C40.9279 84.4374 42.0861 86.8606 43.4951 91.2563C46.1421 99.514 45.2209 102.699 40.1854 102.699C38.7337 102.699 38.0757 102.487 37.1829 101.733C35.8871 100.639 35.7776 100.318 33.7995 91.8412C32.0588 84.3834 32.1698 83.8008 35.5551 82.61C37.2233 82.0232 38.5079 82.2472 39.708 83.3333Z" fill="#3483B4"/>
<path d="M203.613 15.4704C203.613 13.6254 202.662 11.8154 201.299 11.0683C200.12 10.4221 198.086 10.3806 164.805 10.32C145.041 10.2842 129.061 10.4036 128.423 10.592C125.915 11.3335 124.592 13.9114 125.243 16.7891C125.645 18.569 126.946 19.8131 128.978 20.3632C129.971 20.6318 141.716 20.7275 165.248 20.6585C198.061 20.5625 200.122 20.5176 201.299 19.8726C202.662 19.1255 203.613 17.3155 203.613 15.4704Z" fill="#3483B4"/>
<path d="M215.611 88.2345C215.611 85.9426 214.391 84.2607 212.306 83.6789C210.165 83.081 117.578 83.2038 115.92 83.8067C113.864 84.5542 112.874 86.0157 112.876 88.3023C112.878 91.0444 113.816 92.4614 116.146 93.2387C117.802 93.7918 122.463 93.8404 165.013 93.75C209.164 93.6562 212.123 93.6095 213.261 92.9844C214.84 92.1175 215.611 90.5584 215.611 88.2345Z" fill="#3483B4"/>
</svg>
