<svg width="96" height="53" viewBox="0 0 96 53" fill="none" xmlns="http://www.w3.org/2000/svg">
<path d="M9.59954 19.8448C10.8106 18.1428 11.7576 16.2677 12.4085 14.2828C15.7504 4.0928 26.3083 -1.87015 36.7604 0.529255L44.8335 2.38253C47.0219 2.8849 49.26 3.13849 51.5053 3.13849H68.2448C78.5884 3.13849 87.7343 9.85426 90.831 19.7234L91.1388 20.7046C91.5999 22.1741 92.2657 23.5713 93.1164 24.8552C99.7478 34.8626 93.7375 48.3699 81.864 50.1432L68.5529 52.1312C65.4799 52.5902 62.3483 52.4717 59.3188 51.7818L40.5441 47.5064C37.1675 46.7374 33.6571 46.7758 30.2981 47.6184L17.0119 50.9513C7.07765 53.4433 -1.96898 44.5314 0.373735 34.5608C0.77915 32.8354 1.51615 31.2052 2.54372 29.7611L9.59954 19.8448Z" fill="#014B78" fill-opacity="0.8"/>
</svg>
