<svg width="97" height="54" viewBox="0 0 97 54" fill="none" xmlns="http://www.w3.org/2000/svg">
<path d="M9.85735 20.8072C11.0684 19.1052 12.0154 17.2301 12.6663 15.2452C16.0082 5.05521 26.5661 -0.907747 37.0182 1.49166L45.0913 3.34493C47.2797 3.8473 49.5178 4.10089 51.7631 4.10089H68.5027C78.8462 4.10089 87.9921 10.8167 91.0888 20.6858L91.3967 21.667C91.8577 23.1365 92.5235 24.5337 93.3742 25.8176C100.006 35.825 93.9953 49.3323 82.1218 51.1056L68.8107 53.0936C65.7377 53.5526 62.6061 53.4341 59.5766 52.7442L40.8019 48.4688C37.4253 47.6998 33.9149 47.7382 30.5559 48.5808L17.2697 51.9137C7.33546 54.4057 -1.71117 45.4938 0.631548 35.5232C1.03696 33.7978 1.77397 32.1676 2.80154 30.7235L9.85735 20.8072Z" fill="#014B78" fill-opacity="0.8"/>
</svg>
