<svg width="1228" height="1183" viewBox="0 0 1228 1183" fill="none" xmlns="http://www.w3.org/2000/svg">
<path d="M66.3042 336.226C118.915 122.959 323.143 -16.9095 541.007 11.1178L713.28 33.2799C750.923 38.1225 789.177 32.9114 824.153 18.1764C994.548 -53.6095 1170.05 108.985 1111.46 284.357L1075.93 390.715C1044.14 485.877 1071.13 590.836 1144.88 658.858C1278.36 781.961 1243.98 1001.17 1079.24 1077.51L926.732 1148.18C766.177 1222.58 575.394 1171.75 473.132 1027.34L434.774 973.166C389.908 909.804 317.04 872.208 239.402 872.363C84.1504 872.673 -30.1177 727.09 7.06649 576.357L66.3042 336.226Z" fill="#3483B4"/>
</svg>
