<svg width="2294" height="1164" viewBox="0 0 2294 1164" fill="none" xmlns="http://www.w3.org/2000/svg">
<path d="M2239.03 540.798C2230.64 803.305 2015.83 1005.44 1749.27 1001.64L1604.72 999.584C1532.76 998.559 1462.26 1014.3 1398.94 1045.53C1325.59 1081.7 1242.8 1097 1159.5 1089.77L751.788 1054.4C705.747 1050.4 659.998 1058.98 619.568 1079.18L486.018 1145.92C371.657 1203.07 233.036 1111.23 240.327 983.14C243.761 922.812 213.101 864.175 160.598 830.658L105.627 795.564C1.13927 728.86 -31.4078 592.886 33.2565 493.217L53.7269 461.665C104.83 382.898 211.661 360.815 295.349 411.72C355.819 448.502 431.006 448.151 488.064 410.818L549.221 370.803C611.878 329.808 689.184 315.017 764.928 329.534L953.077 365.592C1110.59 395.779 1270.25 351.067 1383.5 245.054L1530.53 107.424C1641.28 3.759 1804.25 -27.2223 1952.09 27.2845C2111.77 86.1536 2223.28 233.298 2234.07 399.373L2240.42 497.157L2239.03 540.798Z" fill="#E5E9EB"/>
<path d="M83.9109 626.055C144.23 387.615 372.676 231.417 616.752 261.73L805.682 285.194C870.732 293.272 936.735 288.481 999.937 271.094L1015.88 266.708C1089.08 246.568 1165.91 243.364 1240.54 257.338L1655.37 335.017C1693.38 342.133 1732.51 340.415 1769.74 329.994L1973.75 272.9C2074.21 244.786 2166.66 337.585 2138.16 437.935C2122.87 491.787 2142.79 549.461 2188.07 582.383L2217.37 603.685C2312.03 672.514 2320.02 810.751 2233.92 890.025L2226.73 896.644C2160.09 957.998 2059.79 964.883 1985.4 913.21L1981.4 910.435C1926.93 872.6 1857.21 864.314 1795.39 888.328L1724.13 916.006C1654.76 942.951 1578.51 946.618 1506.88 926.456L1290.74 865.625C1161.53 829.258 1023.12 846.374 906.655 913.122L685.503 1039.87C573.038 1104.33 436.513 1111.05 318.259 1057.96C154.681 984.517 58.8729 812.251 82.7697 634.542L83.9109 626.055Z" fill="#3483B4"/>
</svg>
