<svg width="194" height="50" viewBox="0 0 194 50" fill="none" xmlns="http://www.w3.org/2000/svg">
<path d="M176.87 29.9268L160.43 46.2868L143.98 29.9268L127.54 46.2868L111.1 29.9268L96.6 44.3568L82.09 29.9268L65.65 46.2868L49.2 29.9268L32.76 46.2868L16.32 29.9268L0 46.1668L1.82 47.9868L16.32 33.5568L32.76 49.9168L49.2 33.5568L65.65 49.9168L82.09 33.5568L96.6 47.9968L111.1 33.5568L127.54 49.9168L143.98 33.5568L160.43 49.9168L176.87 33.5568L191.38 47.9868L193.19 46.1668L176.87 29.9268Z" fill="#014B78"/>
<path d="M176.87 0.676758L160.43 17.0368L143.98 0.676758L127.54 17.0368L111.1 0.676758L98.0598 13.6568L98.0498 17.2968L111.1 4.30676L127.54 20.6668L143.98 4.30676L160.43 20.6668L176.87 4.30676L191.38 18.7368L193.19 16.9068L176.87 0.676758Z" fill="#FF9D00"/>
</svg>
