<svg width="194" height="50" viewBox="0 0 194 50" fill="none" xmlns="http://www.w3.org/2000/svg">
<path d="M177.445 29.3892L161.005 45.7492L144.555 29.3892L128.115 45.7492L111.675 29.3892L97.1752 43.8192L82.6652 29.3892L66.2252 45.7492L49.7752 29.3892L33.3352 45.7492L16.8952 29.3892L0.575195 45.6292L2.3952 47.4492L16.8952 33.0192L33.3352 49.3792L49.7752 33.0192L66.2252 49.3792L82.6652 33.0192L97.1752 47.4592L111.675 33.0192L128.115 49.3792L144.555 33.0192L161.005 49.3792L177.445 33.0192L191.955 47.4492L193.765 45.6292L177.445 29.3892Z" fill="white"/>
<path d="M177.445 0.13916L161.005 16.4992L144.555 0.13916L128.115 16.4992L111.675 0.13916L98.635 13.1192L98.625 16.7592L111.675 3.76916L128.115 20.1292L144.555 3.76916L161.005 20.1292L177.445 3.76916L191.955 18.1992L193.765 16.3692L177.445 0.13916Z" fill="white"/>
</svg>
