<svg width="1257" height="1113" viewBox="0 0 1257 1113" fill="none" xmlns="http://www.w3.org/2000/svg">
<path d="M1236.7 388.441C1300.43 588.469 1203.97 804.485 1012.48 890.541L861.064 958.589C827.978 973.458 799.42 996.822 778.292 1026.31C675.361 1169.95 451.128 1125.21 411.203 953.064L386.99 848.663C365.326 755.252 290.881 683.238 196.802 664.686C26.5443 631.112 -55.0159 435.354 41.038 290.824L129.954 157.036C223.564 16.1837 404.385 -37.7639 559.869 28.7718L618.191 53.7293C686.409 82.9215 764.56 77.1296 827.729 38.1999C954.047 -39.6472 1119.9 21.8383 1164.94 163.215L1236.7 388.441Z" fill="#3483B4"/>
</svg>
