<svg width="249" height="203" viewBox="0 0 249 203" fill="none" xmlns="http://www.w3.org/2000/svg">
<path d="M108.695 23.4294C109.514 23.7491 110.41 23.8185 111.269 23.6287C112.128 23.4389 112.911 22.9985 113.52 22.3631C114.129 21.7278 114.537 20.9261 114.691 20.0594C114.845 19.1927 114.739 18.2999 114.386 17.494C114.033 16.688 113.449 16.0051 112.708 15.5315C111.967 15.058 111.102 14.8151 110.222 14.8336C109.343 14.852 108.489 15.131 107.767 15.6353C107.046 16.1396 106.49 16.8464 106.17 17.6665C105.742 18.7663 105.768 19.9908 106.241 21.0712C106.714 22.1516 107.597 22.9997 108.695 23.4294ZM111.122 17.2097C111.531 17.3696 111.884 17.6475 112.136 18.0082C112.388 18.3689 112.527 18.7963 112.536 19.2363C112.545 19.6763 112.423 20.1091 112.186 20.4801C111.949 20.8511 111.608 21.1435 111.205 21.3205C110.802 21.4974 110.356 21.5508 109.923 21.474C109.49 21.3972 109.09 21.1937 108.773 20.8891C108.455 20.5845 108.236 20.1925 108.141 19.7628C108.047 19.333 108.082 18.8848 108.242 18.4747C108.456 17.9251 108.88 17.4832 109.42 17.246C109.96 17.0089 110.572 16.9958 111.122 17.2097ZM235.557 93.8104C235.011 93.5972 234.413 93.551 233.841 93.6775C233.268 93.804 232.746 94.0976 232.34 94.5212C231.933 94.9447 231.662 95.4792 231.559 96.057C231.457 96.6348 231.527 97.23 231.763 97.7673C231.998 98.3046 232.387 98.7599 232.881 99.0756C233.375 99.3913 233.952 99.5532 234.538 99.5409C235.124 99.5286 235.694 99.3426 236.175 99.0064C236.656 98.6703 237.026 98.199 237.24 97.6523C237.525 96.9191 237.508 96.1028 237.192 95.3825C236.877 94.6622 236.289 94.0968 235.557 93.8104ZM233.939 97.9568C233.666 97.8502 233.43 97.665 233.263 97.4245C233.095 97.184 233.002 96.8991 232.996 96.6058C232.99 96.3124 233.071 96.0239 233.229 95.7765C233.387 95.5292 233.615 95.3343 233.883 95.2163C234.152 95.0984 234.449 95.0628 234.738 95.1139C235.026 95.1651 235.293 95.3008 235.505 95.5039C235.716 95.707 235.863 95.9683 235.926 96.2548C235.989 96.5413 235.966 96.8401 235.859 97.1135C235.715 97.4798 235.433 97.7743 235.073 97.9324C234.713 98.0905 234.305 98.0993 233.939 97.9568ZM171.026 47.1689C170.48 46.9557 169.882 46.9095 169.31 47.036C168.737 47.1626 168.215 47.4562 167.809 47.8797C167.402 48.3033 167.131 48.8377 167.028 49.4155C166.925 49.9933 166.996 50.5885 167.232 51.1258C167.467 51.6631 167.856 52.1184 168.35 52.4341C168.844 52.7498 169.421 52.9118 170.007 52.8994C170.593 52.8871 171.163 52.7011 171.644 52.365C172.125 52.0288 172.495 51.5575 172.709 51.0108C172.994 50.2776 172.977 49.4613 172.661 48.741C172.346 48.0207 171.758 47.4553 171.026 47.1689ZM169.408 51.3153C169.135 51.2088 168.899 51.0235 168.731 50.783C168.564 50.5426 168.471 50.2576 168.465 49.9643C168.459 49.671 168.54 49.3824 168.698 49.1351C168.856 48.8877 169.084 48.6928 169.352 48.5748C169.621 48.4569 169.918 48.4213 170.207 48.4725C170.495 48.5236 170.762 48.6594 170.974 48.8624C171.185 49.0655 171.332 49.3268 171.395 49.6133C171.458 49.8998 171.434 50.1986 171.328 50.472C171.184 50.8383 170.902 51.1328 170.542 51.2909C170.182 51.449 169.774 51.4578 169.408 51.3153ZM57.7254 52.727C57.9387 52.1803 57.9853 51.5826 57.8593 51.0097C57.7333 50.4367 57.4402 49.914 57.0173 49.5079C56.5943 49.1018 56.0605 48.8304 55.4832 48.728C54.9059 48.6256 54.3111 48.6969 53.774 48.9327C53.2369 49.1686 52.7817 49.5585 52.4659 50.0532C52.1501 50.5478 51.9879 51.125 51.9998 51.7116C52.0117 52.2983 52.1972 52.8682 52.5328 53.3491C52.8684 53.8301 53.339 54.2006 53.8852 54.4137C54.6176 54.6987 55.4333 54.6811 56.1533 54.3649C56.8732 54.0487 57.4386 53.4597 57.7254 52.727ZM53.5832 51.1106C53.6898 50.8372 53.8751 50.6016 54.1155 50.4335C54.3559 50.2654 54.6407 50.1724 54.9338 50.1663C55.2269 50.1601 55.5152 50.2411 55.7623 50.3989C56.0093 50.5568 56.2039 50.7844 56.3216 51.0531C56.4393 51.3217 56.4747 51.6193 56.4233 51.9082C56.372 52.1971 56.2362 52.4643 56.0331 52.6761C55.8301 52.8879 55.5689 53.0347 55.2825 53.098C54.9962 53.1612 54.6976 53.1381 54.4245 53.0315C54.0586 52.8883 53.7645 52.6056 53.6067 52.2455C53.449 51.8853 53.4405 51.4772 53.5832 51.1106Z" fill="#3483B4"/>
<path d="M28.4628 108.576L29.93 105.271L28.4034 104.829L27.7796 108.288L27.7338 108.299L25.6061 105.516L24.4219 106.625L27.1802 108.856L27.1911 108.902L23.7915 109.259L24.1529 110.781L27.3718 109.568L27.3824 109.613L25.8992 112.85L27.369 113.353L28.079 109.849L28.122 109.839L30.2118 112.654L31.4339 111.513L28.6431 109.336L28.6326 109.292L32.1141 108.892L31.7528 107.369L28.4733 108.621L28.4628 108.576ZM76.0331 96.4405L75.1793 98.3044L76.0261 98.5932L76.4348 96.5765L76.4606 96.5703L77.6629 98.1912L78.367 97.5343L76.76 96.2816L76.7539 96.2559L78.7584 96.025L78.5502 95.1478L76.6619 95.868L76.6557 95.8423L77.5004 93.9397L76.6224 93.6855L76.2623 95.6772L76.2364 95.6833L75.0114 94.0815L74.3286 94.7197L75.9173 96.0039L75.9235 96.0297L73.9661 96.2357L74.1743 97.1129L76.027 96.4148L76.0331 96.4405ZM206.5 87.3061L206.145 85.812L202.928 87.0396L202.918 86.9952L204.357 83.7545L202.859 83.3222L202.247 86.7145L202.203 86.725L200.115 83.9961L198.954 85.0834L201.659 87.2714L201.669 87.3157L198.335 87.6657L198.689 89.1597L201.847 87.9704L201.857 88.0133L200.403 91.1882L201.845 91.6819L202.541 88.2456L202.584 88.2354L204.634 90.996L205.832 89.8771L203.095 87.7422L203.085 87.6993L206.5 87.3061ZM177.239 33.8966L178.48 31.1017L177.189 30.7278L176.662 33.6541L176.623 33.6632L174.822 31.3094L173.821 32.2468L176.154 34.1345L176.163 34.1731L173.286 34.4748L173.592 35.7627L176.316 34.7368L176.325 34.774L175.07 37.5131L176.313 37.9392L176.915 34.9742L176.952 34.9654L178.72 37.3484L179.753 36.3821L177.392 34.5405L177.383 34.5033L180.329 34.1639L180.024 32.876L177.248 33.9352L177.239 33.8966Z" fill="#E88D23"/>
<path d="M76.0639 182.344C75.6897 182.346 75.3188 182.274 74.9724 182.133C74.626 181.991 74.3108 181.783 74.0449 181.52C73.5078 180.988 73.204 180.265 73.2002 179.509C73.1965 178.753 73.493 178.027 74.0247 177.49C74.5564 176.953 75.2797 176.649 76.0354 176.646H76.0639C76.8196 176.646 77.5444 176.946 78.0787 177.48C78.6131 178.014 78.9133 178.739 78.9133 179.495C78.9133 180.251 78.6131 180.975 78.0787 181.51C77.5444 182.044 76.8196 182.344 76.0639 182.344Z" fill="#3483B4"/>
<path d="M174.905 106.248C174.64 105.982 174.326 105.772 173.98 105.628C173.634 105.484 173.262 105.41 172.888 105.41H141.544V101.096C141.58 99.3352 142.007 97.6044 142.796 96.0296C143.585 94.4548 144.714 93.0756 146.103 91.9922C150.745 88.2092 154.309 83.2705 156.437 77.6728C158.565 72.0751 159.182 66.0159 158.225 60.1044C156.885 51.5938 152.382 43.9026 145.616 38.5689C138.85 33.2351 130.321 30.652 121.732 31.336C113.144 32.0201 105.131 35.9209 99.2948 42.2584C93.4587 48.5959 90.23 56.903 90.2545 65.5183C90.2445 70.6185 91.3803 75.6557 93.578 80.2581C95.7756 84.8605 98.979 88.9105 102.951 92.1091C104.31 93.1793 105.41 94.541 106.172 96.0936C106.933 97.6461 107.336 99.3499 107.351 101.079V105.41H76.0074C75.2518 105.41 74.5271 105.711 73.9929 106.245L39.7999 140.438C39.2808 140.975 38.9936 141.695 39.0001 142.442C39.0066 143.189 39.3063 143.904 39.8346 144.432C40.3629 144.961 41.0775 145.26 41.8247 145.267C42.5718 145.273 43.2915 144.986 43.8289 144.467L73.158 115.138V168.097C73.158 168.853 73.4582 169.578 73.9926 170.112C74.5269 170.647 75.2517 170.947 76.0074 170.947C76.7631 170.947 77.4879 170.647 78.0223 170.112C78.5566 169.578 78.8568 168.853 78.8568 168.097V111.109H170.038V190.893C170.038 192.404 169.438 193.854 168.369 194.922C167.3 195.991 165.851 196.592 164.339 196.592H84.5557C83.0442 196.592 81.5947 195.991 80.526 194.922C79.4572 193.854 78.8568 192.404 78.8568 190.893C78.8568 190.137 78.5566 189.412 78.0223 188.878C77.4879 188.343 76.7631 188.043 76.0074 188.043C75.2517 188.043 74.5269 188.343 73.9926 188.878C73.4582 189.412 73.158 190.137 73.158 190.893C73.158 193.916 74.3588 196.815 76.4963 198.952C78.6338 201.09 81.5328 202.29 84.5557 202.29H164.339C167.362 202.29 170.261 201.09 172.399 198.952C174.536 196.815 175.737 193.916 175.737 190.893V115.138L205.066 144.467C205.603 144.986 206.323 145.273 207.07 145.267C207.817 145.26 208.532 144.961 209.06 144.432C209.589 143.904 209.888 143.189 209.895 142.442C209.901 141.695 209.614 140.975 209.095 140.438L174.905 106.248ZM135.845 101.096V105.41H127.297V85.4642H130.146C130.902 85.4642 131.627 85.164 132.161 84.6297C132.696 84.0953 132.996 83.3705 132.996 82.6148C132.996 81.8591 132.696 81.1343 132.161 80.6C131.627 80.0656 130.902 79.7654 130.146 79.7654H118.749C117.993 79.7654 117.268 80.0656 116.734 80.6C116.199 81.1343 115.899 81.8591 115.899 82.6148C115.899 83.3705 116.199 84.0953 116.734 84.6297C117.268 85.164 117.993 85.4642 118.749 85.4642H121.598V105.41H113.05V101.079C113.035 98.5017 112.442 95.9605 111.315 93.6427C110.187 91.3249 108.554 89.2896 106.536 87.6868C101.726 83.8077 98.3073 78.4702 96.7953 72.4787C95.2833 66.4873 95.7599 60.1667 98.1534 54.4697C100.547 48.7728 104.727 44.0083 110.065 40.8945C115.402 37.7807 121.607 36.4863 127.744 37.2065C133.306 37.8521 138.555 40.1221 142.835 43.7331C147.114 47.344 150.235 52.1358 151.807 57.51C153.379 62.8842 153.333 68.6025 151.675 73.9506C150.016 79.2988 146.819 84.0398 142.481 87.5813C140.44 89.1992 138.786 91.2517 137.638 93.5896C136.49 95.9274 135.877 98.4918 135.845 101.096Z" fill="#3483B4"/>
<path d="M127.114 42.874C123.017 42.4028 118.868 43.0474 115.106 44.7397C111.344 46.4319 108.11 49.109 105.744 52.488C105.518 52.7941 105.356 53.1423 105.267 53.5121C105.178 53.8818 105.164 54.2657 105.225 54.6411C105.287 55.0164 105.423 55.3756 105.626 55.6975C105.828 56.0194 106.093 56.2975 106.405 56.5153C106.717 56.7331 107.069 56.8863 107.441 56.9658C107.813 57.0454 108.197 57.0496 108.571 56.9784C108.944 56.9071 109.3 56.7617 109.617 56.5509C109.933 56.34 110.204 56.0679 110.414 55.7505C112.196 53.2154 114.629 51.2074 117.456 49.9378C120.283 48.6682 123.4 48.1839 126.479 48.5358C127.221 48.6019 127.958 48.3751 128.535 47.9041C129.111 47.4331 129.48 46.7552 129.564 46.0154C129.647 45.2757 129.437 44.5328 128.979 43.9457C128.521 43.3586 127.852 42.974 127.114 42.874Z" fill="#3483B4"/>
<path d="M104.502 68.3678C106.075 68.3678 107.351 67.0921 107.351 65.5184C107.351 63.9447 106.075 62.6689 104.502 62.6689C102.928 62.6689 101.652 63.9447 101.652 65.5184C101.652 67.0921 102.928 68.3678 104.502 68.3678Z" fill="#3483B4"/>
<path d="M101.536 166.057L104.305 156.7H116.09L118.866 166.057C118.972 166.416 119.148 166.751 119.383 167.041C119.619 167.332 119.909 167.574 120.238 167.753C120.567 167.931 120.928 168.043 121.3 168.082C121.672 168.121 122.049 168.087 122.408 167.981C122.766 167.874 123.101 167.698 123.392 167.463C123.683 167.227 123.924 166.937 124.103 166.608C124.281 166.279 124.393 165.918 124.433 165.546C124.472 165.174 124.437 164.798 124.331 164.439L115.657 135.181C115.321 133.993 114.607 132.946 113.622 132.201C112.637 131.456 111.436 131.053 110.201 131.053C108.966 131.053 107.764 131.456 106.78 132.201C105.795 132.946 105.08 133.993 104.744 135.181L96.0704 164.439C95.8558 165.164 95.9379 165.944 96.2986 166.608C96.6593 167.272 97.2691 167.766 97.9938 167.981C98.7185 168.195 99.4988 168.113 100.163 167.753C100.827 167.392 101.321 166.782 101.536 166.057ZM110.201 136.802L114.401 151.001H105.989L110.201 136.802ZM152.942 145.302C152.937 141.525 151.435 137.904 148.764 135.233C146.093 132.562 142.472 131.06 138.695 131.055H135.845C134.334 131.055 132.885 131.655 131.816 132.724C130.747 133.793 130.147 135.242 130.147 136.754V162.399C130.147 163.91 130.747 165.36 131.816 166.428C132.885 167.497 134.334 168.097 135.845 168.097H138.695C142.472 168.093 146.093 166.59 148.764 163.92C151.435 161.249 152.937 157.628 152.942 153.85V145.302ZM147.243 153.85C147.243 156.118 146.343 158.292 144.739 159.895C143.136 161.498 140.962 162.399 138.695 162.399H135.845V136.754H138.695C140.962 136.754 143.136 137.655 144.739 139.258C146.343 140.861 147.243 143.035 147.243 145.302V153.85Z" fill="#3483B4"/>
</svg>
