<svg width="84" height="84" viewBox="0 0 84 84" fill="none" xmlns="http://www.w3.org/2000/svg">
<path d="M37.3852 38.839L35.427 35.584L33.7397 36.5992L35.6993 39.8575C35.7997 40.0276 35.8605 40.2181 35.877 40.415C35.8935 40.6118 35.8654 40.8098 35.7947 40.9942C35.7241 41.1787 35.6127 41.3448 35.4689 41.4802C35.3251 41.6157 35.1526 41.7169 34.9643 41.7764L31.5059 42.8342L32.082 44.717L35.5398 43.6591C36.0136 43.5107 36.4477 43.2569 36.8095 42.9169C37.1713 42.5769 37.4515 42.1594 37.629 41.6957C37.8066 41.232 37.8768 40.7341 37.8346 40.2394C37.7924 39.7446 37.6387 39.2659 37.3852 38.839Z" fill="#FFD5C0"/>
<path d="M34.3721 51.4558L31.1013 52.456C30.6667 52.5887 30.1996 52.5671 29.7792 52.3948C29.3588 52.2224 29.0109 51.9099 28.7946 51.5103L20.6328 36.4415L27.7452 34.2673L35.5277 48.6353C35.6667 48.8917 35.7469 49.1759 35.7626 49.4672C35.7782 49.7584 35.729 50.0496 35.6184 50.3195C35.5078 50.5894 35.3386 50.8314 35.1231 51.0279C34.9075 51.2244 34.651 51.3706 34.3721 51.4558Z" fill="#FE5500"/>
<path d="M43.0496 1.45364C42.5373 1.60571 42.06 1.8572 41.6449 2.19375C41.2298 2.5303 40.8851 2.94532 40.6304 3.41511C40.3758 3.88489 40.2161 4.40024 40.1607 4.93173C40.1052 5.46321 40.1549 6.00042 40.3071 6.51267L49.8398 37.7023C50.1716 38.7254 50.892 39.5773 51.8459 40.0743C52.7998 40.5714 53.9108 40.6739 54.9395 40.3596C55.9682 40.0454 56.8323 39.3397 57.3456 38.3945C57.8589 37.4493 57.9805 36.3402 57.6839 35.3063L48.1486 4.11474C47.8249 3.08594 47.106 2.22775 46.1499 1.72876C45.1938 1.22977 44.0786 1.13082 43.0496 1.45364Z" fill="#FFD5C0"/>
<path d="M49.8403 37.7023L40.3043 6.51274C40.184 6.11813 40.1256 5.70725 40.1311 5.29474C34.4696 13.1087 25.246 17.501 19.2879 19.6968C18.2871 20.0663 15.2087 20.9437 15.2087 20.9437C14.4669 21.1705 13.777 21.5412 13.1785 22.0346C12.58 22.528 12.0846 23.1344 11.7205 23.8193C11.3564 24.5042 11.1307 25.2541 11.0564 26.0262C10.9822 26.7984 11.0607 27.5775 11.2876 28.3193L13.5903 35.8504C14.0489 37.3477 15.0834 38.6016 16.4662 39.3364C17.8491 40.0712 19.4671 40.2267 20.9646 39.7689C20.9646 39.7689 24.0077 38.7753 25.0439 38.522C31.2126 37.0126 41.3143 35.4947 50.3751 38.8068C50.1407 38.4686 49.9603 38.096 49.8403 37.7023ZM55.0594 26.718C56.5874 25.903 57.7846 24.5823 58.4462 22.982C59.1078 21.3816 59.1927 19.6011 58.6863 17.9451C58.18 16.289 57.1139 14.8605 55.6704 13.9038C54.227 12.9471 52.4959 12.5217 50.7735 12.7005L55.0594 26.718ZM68.8532 12.7786L65.0883 13.9297C64.5889 14.0823 64.1707 14.4271 63.9255 14.8881C63.6803 15.3491 63.6284 15.8886 63.781 16.388C63.9336 16.8873 64.2784 17.3056 64.7394 17.5508C65.2004 17.7959 65.74 17.8479 66.2393 17.6952L70.0049 16.5435C70.2553 16.4707 70.4888 16.3488 70.6917 16.1849C70.8946 16.0211 71.063 15.8185 71.187 15.5891C71.311 15.3596 71.3881 15.1078 71.414 14.8483C71.4398 14.5887 71.4138 14.3266 71.3375 14.0772C71.2612 13.8278 71.1361 13.5961 70.9695 13.3954C70.8029 13.1948 70.5981 13.0292 70.3669 12.9084C70.1358 12.7876 69.8829 12.7139 69.6231 12.6916C69.3632 12.6693 69.1015 12.6989 68.8532 12.7786ZM70.079 28.0102L66.6009 26.1622C66.3725 26.0408 66.1703 25.8757 66.0057 25.6762C65.8412 25.4767 65.7175 25.2467 65.6418 24.9995C65.5662 24.7522 65.5399 24.4924 65.5646 24.235C65.5893 23.9775 65.6645 23.7275 65.7858 23.4991C65.9072 23.2707 66.0723 23.0685 66.2718 22.9039C66.4713 22.7394 66.7013 22.6157 66.9486 22.54C67.1959 22.4644 67.4556 22.4381 67.7131 22.4628C67.9705 22.4875 68.2205 22.5627 68.4489 22.6841L71.927 24.5327C72.1554 24.6541 72.3576 24.8193 72.5222 25.0188C72.6867 25.2184 72.8104 25.4484 72.886 25.6957C72.9617 25.943 72.9879 26.2028 72.9631 26.4602C72.9384 26.7177 72.8632 26.9677 72.7418 27.1961C72.6204 27.4245 72.4552 27.6267 72.2557 27.7913C72.0561 27.9558 71.8261 28.0794 71.5788 28.1551C71.3315 28.2307 71.0717 28.2569 70.8142 28.2322C70.5568 28.2074 70.3068 28.1322 70.0784 28.0108L70.079 28.0102ZM62.5033 3.23018L60.6546 6.70831C60.5332 6.93668 60.458 7.18673 60.4333 7.44418C60.4085 7.70162 60.4347 7.96142 60.5104 8.20874C60.6632 8.70822 61.0081 9.12655 61.4694 9.3717C61.9306 9.61684 62.4703 9.66873 62.9698 9.51594C63.4693 9.36314 63.8876 9.01819 64.1328 8.55696L65.9814 5.07884C66.2266 4.61761 66.2784 4.07789 66.1256 3.5784C65.9729 3.07892 65.6279 2.66059 65.1667 2.41545C64.7054 2.1703 64.1657 2.11841 63.6662 2.27121C63.1668 2.424 62.7484 2.76895 62.5033 3.23018Z" fill="#FF6A1F"/>
<path d="M25.0436 38.5219L20.9644 39.7688C19.4664 40.2268 17.8479 40.0709 16.4649 39.3356C15.0818 38.6003 14.0475 37.3456 13.5894 35.8477L11.2873 28.3192C11.0606 27.5774 10.9821 26.7983 11.0565 26.0262C11.1309 25.2542 11.3566 24.5043 11.7208 23.8195C12.0849 23.1347 12.5804 22.5283 13.179 22.0349C13.7775 21.5416 14.4673 21.171 15.2091 20.9443L19.2883 19.6974L25.0436 38.5219Z" fill="#FFD5C0"/>
<path d="M8.53125 45.6094V77.1094C8.53125 78.6758 9.15351 80.1781 10.2612 81.2857C11.3688 82.3934 12.8711 83.0156 14.4375 83.0156H69.5625C71.1289 83.0156 72.6312 82.3934 73.7388 81.2857C74.8465 80.1781 75.4688 78.6758 75.4688 77.1094V45.6094C75.4687 45.0872 75.2613 44.5865 74.8921 44.2173C74.5229 43.848 74.0221 43.6406 73.5 43.6406H10.5C9.97786 43.6406 9.4771 43.848 9.10788 44.2173C8.73867 44.5865 8.53125 45.0872 8.53125 45.6094Z" fill="#3F95CA"/>
<path d="M52.5 43.6406V83.0156H69.5625C71.1289 83.0156 72.6312 82.3934 73.7388 81.2857C74.8465 80.1781 75.4688 78.6758 75.4688 77.1094V45.6094C75.4687 45.0872 75.2613 44.5865 74.8921 44.2173C74.5229 43.848 74.0221 43.6406 73.5 43.6406H52.5Z" fill="#3483B4"/>
<path d="M1.84903 51.5583L7.34972 45.0384C7.71933 44.6005 8.18007 44.2486 8.69976 44.0071C9.21946 43.7657 9.78559 43.6406 10.3586 43.6406H52.4997L44.8544 52.7002C44.3 53.3571 43.6088 53.885 42.8292 54.2472C42.0496 54.6093 41.2003 54.7969 40.3407 54.7969H3.35316C2.97794 54.7968 2.61056 54.6895 2.29428 54.4876C1.978 54.2858 1.726 53.9977 1.56795 53.6574C1.4099 53.3171 1.35238 52.9387 1.40218 52.5668C1.45198 52.1949 1.60702 51.845 1.84903 51.5583Z" fill="#61B0E1"/>
<path d="M82.1507 51.5583L76.65 45.0384C76.2804 44.6005 75.8197 44.2486 75.3 44.0071C74.7803 43.7657 74.2141 43.6406 73.6411 43.6406H52.5L60.1453 52.7002C60.6998 53.3571 61.3909 53.885 62.1705 54.2472C62.9501 54.6093 63.7994 54.7969 64.659 54.7969H80.6466C81.0218 54.7968 81.3892 54.6895 81.7054 54.4876C82.0217 54.2858 82.2737 53.9977 82.4318 53.6574C82.5898 53.3171 82.6473 52.9387 82.5975 52.5668C82.5477 52.1949 82.3927 51.845 82.1507 51.5583Z" fill="#3F95CA"/>
<path d="M23.9531 71.8594H15.4219C14.8782 71.8594 14.4375 72.3001 14.4375 72.8438V76.125C14.4375 76.6687 14.8782 77.1094 15.4219 77.1094H23.9531C24.4968 77.1094 24.9375 76.6687 24.9375 76.125V72.8438C24.9375 72.3001 24.4968 71.8594 23.9531 71.8594Z" fill="white"/>
<path d="M46.9219 75.7969H41.0156C40.7546 75.7969 40.5042 75.9006 40.3196 76.0852C40.135 76.2698 40.0312 76.5202 40.0312 76.7812C40.0312 77.0423 40.135 77.2927 40.3196 77.4773C40.5042 77.6619 40.7546 77.7656 41.0156 77.7656H46.9219C47.1829 77.7656 47.4333 77.6619 47.6179 77.4773C47.8025 77.2927 47.9062 77.0423 47.9062 76.7812C47.9062 76.5202 47.8025 76.2698 47.6179 76.0852C47.4333 75.9006 47.1829 75.7969 46.9219 75.7969ZM46.9219 70.5469H41.0156C40.7546 70.5469 40.5042 70.6506 40.3196 70.8352C40.135 71.0198 40.0312 71.2702 40.0312 71.5312C40.0312 71.7923 40.135 72.0427 40.3196 72.2273C40.5042 72.4119 40.7546 72.5156 41.0156 72.5156H46.9219C47.1829 72.5156 47.4333 72.4119 47.6179 72.2273C47.8025 72.0427 47.9062 71.7923 47.9062 71.5312C47.9062 71.2702 47.8025 71.0198 47.6179 70.8352C47.4333 70.6506 47.1829 70.5469 46.9219 70.5469Z" fill="white"/>
</svg>
