<svg width="136" height="136" viewBox="0 0 136 136" fill="none" xmlns="http://www.w3.org/2000/svg">
<path d="M129.918 50.3149L123.347 44.6364C123.153 44.4688 122.928 44.341 122.685 44.2604C122.442 44.1798 122.185 44.1479 121.93 44.1666C121.674 44.1852 121.425 44.254 121.196 44.3691C120.967 44.4841 120.763 44.6431 120.595 44.8371C120.427 45.031 120.3 45.256 120.219 45.4992C120.138 45.7425 120.107 45.9992 120.125 46.2548C120.144 46.5104 120.213 46.7598 120.328 46.9888C120.443 47.2178 120.602 47.4219 120.796 47.5894L127.366 53.268C129.708 55.2922 129.967 58.8445 127.943 61.1868L85.2639 110.57C85.0963 110.764 84.9686 110.989 84.888 111.233C84.8073 111.476 84.7754 111.733 84.794 111.988C84.8126 112.244 84.8814 112.493 84.9964 112.722C85.1114 112.951 85.2704 113.156 85.4643 113.323C85.6582 113.491 85.8832 113.618 86.1265 113.699C86.3697 113.78 86.6265 113.812 86.8821 113.793C87.1377 113.774 87.3872 113.706 87.6162 113.591C87.8452 113.476 88.0494 113.317 88.217 113.123L130.896 63.7386C134.327 59.7683 133.889 53.7462 129.918 50.3149ZM118.35 40.3171L87.9543 14.0484C86.0308 12.3861 83.5749 11.5733 81.0398 11.7569C78.5043 11.9413 76.1927 13.1025 74.5303 15.0257L71.6342 18.3768C71.4666 18.5707 71.3389 18.7958 71.2583 19.039C71.1776 19.2823 71.1457 19.539 71.1643 19.7946C71.1829 20.0503 71.2517 20.2997 71.3667 20.5287C71.4818 20.7577 71.6407 20.9618 71.8346 21.1294C72.0285 21.2971 72.2535 21.4249 72.4968 21.5055C72.7401 21.5862 72.9968 21.6181 73.2525 21.5995C73.5081 21.5809 73.7575 21.5121 73.9866 21.397C74.2156 21.282 74.4197 21.1229 74.5872 20.929L77.4834 17.5778C77.9642 17.0185 78.5511 16.5601 79.2103 16.2291C79.8694 15.8981 80.5876 15.7011 81.3234 15.6495C82.8192 15.5396 84.2675 16.0206 85.4022 17.0012L115.798 43.2699C116.152 43.5768 116.605 43.7455 117.073 43.745C117.471 43.7449 117.86 43.6231 118.186 43.396C118.513 43.1689 118.763 42.8474 118.902 42.4744C119.041 42.1015 119.062 41.695 118.964 41.3094C118.865 40.9238 118.651 40.5776 118.35 40.3171Z" fill="white"/>
<path d="M99.8239 33.4181L47.2391 15.7805C42.2631 14.1116 36.8582 16.8019 35.1895 21.7771L34.4958 23.8452C34.3312 24.3359 34.3684 24.8719 34.599 25.3352C34.8296 25.7986 35.2349 26.1514 35.7256 26.3159C36.2163 26.4805 36.7523 26.4434 37.2157 26.2128C37.679 25.9821 38.0318 25.5769 38.1963 25.0862L38.89 23.0181C39.8745 20.0829 43.0626 18.4958 45.9981 19.4805L98.5832 37.1179C101.518 38.1026 103.105 41.291 102.121 44.2259L77.6546 117.171C77.4983 117.659 77.5406 118.19 77.7723 118.647C78.004 119.105 78.4066 119.453 78.8929 119.616C79.3792 119.779 79.9101 119.744 80.3709 119.519C80.8317 119.293 81.1852 118.896 81.3551 118.412L105.821 45.4674C107.49 40.4925 104.8 35.0868 99.8239 33.4181Z" fill="white"/>
<path d="M67.6121 28.5259H12.1482C6.90037 28.5259 2.63086 32.7951 2.63086 38.043V114.981C2.63086 120.229 6.90037 124.499 12.1482 124.499H67.6124C72.8602 124.499 77.1297 120.229 77.1297 114.981V38.043C77.1294 32.7951 72.8602 28.5259 67.6121 28.5259ZM73.2264 114.981C73.2264 118.077 70.7077 120.596 67.6121 120.596H12.1482C9.05235 120.596 6.53389 118.077 6.53389 114.981V38.043C6.53389 34.9471 9.0526 32.4287 12.1482 32.4287H67.6124C70.7082 32.4287 73.2267 34.9474 73.2267 38.043V114.981H73.2264Z" fill="white"/>
<path d="M68.6284 82.3865H11.1332C10.6156 82.3865 10.1192 82.5921 9.75323 82.9581C9.38725 83.3241 9.18164 83.8205 9.18164 84.3381C9.18164 84.8556 9.38725 85.352 9.75323 85.718C10.1192 86.084 10.6156 86.2896 11.1332 86.2896H68.6287C68.8849 86.2896 69.1387 86.2391 69.3755 86.141C69.6122 86.0429 69.8274 85.8991 70.0086 85.7179C70.1898 85.5367 70.3335 85.3215 70.4315 85.0847C70.5296 84.848 70.5801 84.5942 70.5801 84.3379C70.58 84.0816 70.5295 83.8279 70.4315 83.5911C70.3334 83.3544 70.1896 83.1392 70.0084 82.958C69.8272 82.7768 69.612 82.6331 69.3752 82.535C69.1385 82.437 68.8847 82.3865 68.6284 82.3865ZM59.5309 93.5463H35.3654C34.8478 93.5463 34.3515 93.7519 33.9855 94.1179C33.6195 94.4839 33.4139 94.9802 33.4139 95.4978C33.4139 96.0154 33.6195 96.5118 33.9855 96.8777C34.3515 97.2437 34.8478 97.4493 35.3654 97.4493H59.5309C60.0484 97.4493 60.5448 97.2437 60.9108 96.8777C61.2768 96.5118 61.4824 96.0154 61.4824 95.4978C61.4824 94.9802 61.2768 94.4839 60.9108 94.1179C60.5448 93.7519 60.0484 93.5463 59.5309 93.5463ZM28.8603 93.5463H20.2302C19.7126 93.5463 19.2162 93.7519 18.8503 94.1179C18.4843 94.4839 18.2787 94.9802 18.2787 95.4978C18.2787 96.0154 18.4843 96.5118 18.8503 96.8777C19.2162 97.2437 19.7126 97.4493 20.2302 97.4493H28.8603C29.3779 97.4493 29.8742 97.2437 30.2402 96.8777C30.6062 96.5118 30.8118 96.0154 30.8118 95.4978C30.8118 94.9802 30.6062 94.4839 30.2402 94.1179C29.8742 93.7519 29.3779 93.5463 28.8603 93.5463ZM59.5309 101.006H20.2302C19.7126 101.006 19.2162 101.212 18.8503 101.578C18.4843 101.944 18.2787 102.44 18.2787 102.958C18.2787 103.475 18.4843 103.972 18.8503 104.338C19.2162 104.704 19.7126 104.909 20.2302 104.909H59.5309C60.0484 104.909 60.5448 104.704 60.9108 104.338C61.2768 103.972 61.4824 103.475 61.4824 102.958C61.4824 102.44 61.2768 101.944 60.9108 101.578C60.5448 101.212 60.0484 101.006 59.5309 101.006ZM59.5309 108.466H20.2302C19.7126 108.466 19.2162 108.672 18.8503 109.038C18.4843 109.404 18.2787 109.9 18.2787 110.418C18.2787 110.935 18.4843 111.431 18.8503 111.797C19.2162 112.163 19.7126 112.369 20.2302 112.369H59.5309C60.0484 112.369 60.5448 112.163 60.9108 111.797C61.2768 111.431 61.4824 110.935 61.4824 110.418C61.4824 109.9 61.2768 109.404 60.9108 109.038C60.5448 108.672 60.0484 108.466 59.5309 108.466ZM61.3288 51.1684C61.2164 50.8221 61.0093 50.5142 60.7309 50.2795C60.4525 50.0449 60.1141 49.8928 59.7538 49.8404L47.2308 48.0208L41.6306 36.6731C41.4694 36.3466 41.22 36.0717 40.9108 35.8795C40.6015 35.6873 40.2446 35.5854 39.8805 35.5854C39.5164 35.5854 39.1596 35.6873 38.8503 35.8795C38.541 36.0717 38.2917 36.3466 38.1305 36.6731L32.53 48.0208L20.007 49.8404C19.6468 49.8929 19.3084 50.0451 19.0302 50.2798C18.7519 50.5145 18.5448 50.8223 18.4323 51.1686C18.3198 51.5148 18.3064 51.8856 18.3936 52.239C18.4808 52.5924 18.6651 52.9144 18.9257 53.1686L27.9876 62.0015L25.8483 74.4741C25.7868 74.833 25.827 75.2019 25.9642 75.5392C26.1014 75.8764 26.3302 76.1686 26.6247 76.3826C26.9193 76.5966 27.2679 76.7239 27.631 76.7502C27.9942 76.7765 28.3574 76.7006 28.6797 76.5312L39.8805 70.6422L51.0813 76.5312C51.4036 76.7006 51.7669 76.7765 52.13 76.7502C52.4932 76.7239 52.8418 76.5966 53.1363 76.3826C53.4309 76.1686 53.6597 75.8764 53.7969 75.5392C53.9341 75.2019 53.9742 74.833 53.9127 74.4741L51.7735 62.0015L60.8351 53.1686C61.0958 52.9145 61.2802 52.5925 61.3674 52.239C61.4547 51.8855 61.4413 51.5147 61.3288 51.1684ZM48.3147 59.9229C48.0881 60.1438 47.9186 60.4164 47.8208 60.7173C47.723 61.0182 47.6999 61.3384 47.7534 61.6503L49.3976 71.2367L40.7884 66.7104C40.5084 66.5633 40.1968 66.4864 39.8804 66.4864C39.564 66.4864 39.2524 66.5633 38.9724 66.7104L30.3632 71.2367L32.0074 61.6503C32.0608 61.3384 32.0377 61.0182 31.9399 60.7173C31.8421 60.4164 31.6726 60.1438 31.4461 59.9229L24.4814 53.1339L34.1066 51.7351C34.4197 51.6896 34.717 51.5687 34.973 51.3827C35.229 51.1967 35.4358 50.9513 35.5758 50.6675L39.8803 41.9454L44.1847 50.6675C44.3247 50.9512 44.5316 51.1967 44.7876 51.3827C45.0435 51.5686 45.3409 51.6896 45.654 51.7351L55.2794 53.1339L48.3147 59.9229Z" fill="white"/>
</svg>
