<svg width="110" height="111" viewBox="0 0 110 111" fill="none" xmlns="http://www.w3.org/2000/svg">
<rect y="6" width="105" height="105" rx="30" fill="white"/>
<rect x="76" width="34" height="34" rx="17" fill="#FF9D00"/>
<path fill-rule="evenodd" clip-rule="evenodd" d="M77.5632 74.1702V53.9277C77.5636 53.5846 77.4963 53.2448 77.3653 52.9277C77.2342 52.6107 77.0419 52.3226 76.7995 52.0798C76.557 51.8371 76.2691 51.6446 75.9521 51.5132C75.6352 51.3818 75.2955 51.3142 74.9524 51.3142H67.3967C64.4193 51.3142 61.5638 50.1314 59.4584 48.0261C57.353 45.9207 56.1702 43.0652 56.1702 40.0877V32.5346C56.1702 31.8422 55.8951 31.1781 55.4055 30.6885C54.9159 30.1989 54.2518 29.9238 53.5594 29.9238H42.5026C40.5637 29.8136 38.6234 30.1144 36.8088 30.8064C34.9942 31.4984 33.3463 32.5659 31.9731 33.9392C30.5999 35.3124 29.5323 36.9603 28.8403 38.7749C28.1483 40.5894 27.8476 42.5297 27.9577 44.4687L27.9577 74.1702C27.8476 76.1091 28.1483 78.0494 28.8403 79.864C29.5323 81.6786 30.5999 83.3265 31.9731 84.6997C33.3463 86.0729 34.9942 87.1405 36.8088 87.8325C38.6234 88.5245 40.5637 88.8252 42.5026 88.7151H63.0184C64.9573 88.8252 66.8976 88.5245 68.7122 87.8325C70.5268 87.1405 72.1746 86.0729 73.5479 84.6997C74.9211 83.3265 75.9887 81.6786 76.6807 79.864C77.3726 78.0494 77.6734 76.1091 77.5632 74.1702ZM75.8244 47.727C72.882 47.7348 69.4332 47.727 66.9477 47.7009C65.0725 47.7212 63.2651 47.0007 61.9183 45.6959C60.5714 44.3911 59.794 42.6074 59.7549 40.7326V31.6182C59.7641 31.2832 59.8716 30.9582 60.064 30.6837C60.2564 30.4093 60.5252 30.1974 60.837 30.0744C61.1489 29.9515 61.4899 29.9229 61.8179 29.9922C62.1458 30.0615 62.4462 30.2257 62.6816 30.4642C66.543 34.3622 73.2737 41.1503 77.0411 44.936C77.27 45.1696 77.4239 45.4663 77.4832 45.788C77.5424 46.1097 77.5042 46.4417 77.3735 46.7416C77.2428 47.0414 77.0255 47.2954 76.7495 47.471C76.4735 47.6465 76.1514 47.7357 75.8244 47.727ZM58.4691 75.06V74.1037C60.7819 72.6028 62.4746 70.3168 63.2355 67.6667C63.9964 65.0166 63.7742 62.1808 62.6098 59.6816C61.8827 58.2492 60.8464 56.9962 59.5757 56.0134C58.3051 55.0305 56.832 54.3423 55.2628 53.9985C53.6409 53.63 51.9568 53.6318 50.3357 54.0038C48.7146 54.3759 47.1983 55.1086 45.8994 56.1474C44.6136 57.1755 43.5761 58.4803 42.8642 59.9647C42.1523 61.4491 41.7842 63.0749 41.7873 64.7212C41.8648 66.5955 42.3877 68.4244 43.3125 70.0564C44.2373 71.6885 45.5376 73.0768 47.1057 74.1065V75.2417C47.0722 75.4995 47.0935 75.7615 47.1681 76.0106C47.2427 76.2596 47.369 76.4901 47.5387 76.6871C47.7786 76.8896 48.0564 77.0422 48.356 77.136C48.6555 77.2299 48.9708 77.263 49.2833 77.2335H56.2942C56.6001 77.2545 56.9071 77.2128 57.1963 77.1108C57.4855 77.0088 57.7508 76.8488 57.9759 76.6406C58.1629 76.4256 58.3033 76.1741 58.3882 75.902C58.4731 75.63 58.5006 75.3433 58.4691 75.06ZM48.0497 79.1775C51.13 78.2967 54.3956 78.2967 57.4759 79.1775H57.4705C57.6878 79.2443 57.8742 79.3862 57.9963 79.578C58.1184 79.7697 58.1682 79.9987 58.1368 80.2238C58.1054 80.449 57.9948 80.6555 57.8249 80.8065C57.655 80.9575 57.4368 81.043 57.2095 81.0478C57.1208 81.0476 57.0325 81.0352 56.9472 81.0109C54.2107 80.2281 51.3095 80.2281 48.5729 81.0109C48.3371 81.0583 48.0922 81.0152 47.8868 80.8901C47.6814 80.765 47.5307 80.5671 47.4647 80.3358C47.3987 80.1046 47.4222 79.8569 47.5307 79.6423C47.6391 79.4276 47.8244 79.2617 48.0497 79.1775ZM41.3763 47.9328C42.1711 47.4882 43.1758 47.772 43.6204 48.5668L45.3916 51.7327C45.8362 52.5275 45.5523 53.5322 44.7576 53.9768C43.9628 54.4215 42.9581 54.1376 42.5134 53.3428L40.7423 50.1769C40.2977 49.3821 40.5816 48.3774 41.3763 47.9328ZM38.7961 54.5009C37.9763 54.1043 36.9902 54.4474 36.5936 55.2672C36.197 56.087 36.5401 57.0731 37.3599 57.4696L39.3807 58.5086C40.2005 58.9052 41.1866 58.5621 41.5832 57.7423C41.9798 56.9225 41.6367 55.9364 40.8169 55.5398L38.7961 54.5009Z" fill="#3483B4"/>
<path d="M86.7622 26L86.7378 23.3389L93.0854 17.5039C94.7456 15.917 95.6245 14.9404 95.6245 13.5488C95.6245 11.9863 94.4282 11.0098 92.8169 11.0098C91.1567 11.0098 90.0825 12.0596 90.0825 13.7441H86.5913C86.5669 10.2773 89.1304 8.08008 92.8657 8.08008C96.6499 8.08008 99.1646 10.2285 99.1646 13.3047C99.1646 15.3066 98.188 16.9668 94.5503 20.2627L91.8647 22.875V22.9727H99.4087V26H86.7622Z" fill="white"/>
</svg>
