<svg width="110" height="111" viewBox="0 0 110 111" fill="none" xmlns="http://www.w3.org/2000/svg">
<rect y="6" width="105" height="105" rx="30" fill="white"/>
<rect x="76" width="34" height="34" rx="17" fill="#FF9D00"/>
<path d="M73.6963 54.4843L72.8295 59.3903C71.8211 65.1121 70.5889 68.4772 62.0119 66.9646L52.2027 65.2339C47.6196 64.4266 46.6679 65.3529 46.0674 67.9815C46.7664 68.0914 47.4333 68.3514 48.0222 68.7437C48.6111 69.136 49.108 69.6513 49.4787 70.254C49.8493 70.8567 50.085 71.5326 50.1695 72.2352C50.2539 72.9377 50.1851 73.6502 49.9678 74.3236L48.6705 81.6883C48.6305 82.4507 48.4172 83.1939 48.0469 83.8615C47.6765 84.5291 47.1588 85.1034 46.5332 85.5409C45.9076 85.9784 45.1904 86.2675 44.4363 86.3862C43.6821 86.505 42.9109 86.4502 42.1811 86.2261L39.7281 85.7927C38.966 85.7524 38.2231 85.5389 37.5559 85.1684C36.8887 84.7978 36.3148 84.28 35.8779 83.6543C35.4409 83.0286 35.1524 82.3116 35.0342 81.5576C34.916 80.8036 34.9713 80.0327 35.1959 79.3033L36.4933 71.9386C36.5208 71.2258 36.7033 70.5276 37.0281 69.8925C37.353 69.2574 37.8123 68.7007 38.3742 68.2613C38.9361 67.8218 39.587 67.51 40.2816 67.3478C40.9762 67.1855 41.6979 67.1765 42.3963 67.3215C43.2008 63.7015 44.9881 60.1608 52.8627 61.5516L62.6719 63.2794C68.1898 64.2538 68.3201 63.5174 69.1642 58.7473L70.0139 53.8413C70.8637 49.0599 70.9883 48.3234 65.4818 47.3519L64.734 47.2187C64.452 48.2895 63.9565 49.2922 63.2771 50.1666C62.5978 51.041 61.7487 51.769 60.7808 52.3069C59.813 52.8448 58.7464 53.1815 57.6451 53.2967C56.5439 53.4119 55.4307 53.3033 54.3725 52.9774L39.6516 50.3771C38.4001 50.2409 37.1887 49.8545 36.0895 49.2409C34.9902 48.6273 34.0256 47.799 33.2528 46.8052C32.5819 45.7392 32.1321 44.5492 31.9302 43.3059C31.7282 42.0627 31.7783 40.7915 32.0773 39.5679C32.1506 38.2992 32.5102 37.0634 33.1291 35.9534C33.7479 34.8433 34.61 33.8877 35.6507 33.1582C36.6914 32.4288 37.8837 31.9443 39.1383 31.7411C40.3929 31.5379 41.6771 31.6214 42.8949 31.9851L57.6073 34.5798C58.8592 34.718 60.0706 35.1061 61.1697 35.7211C62.2689 36.3361 63.2334 37.1655 64.006 38.1602C65.0529 39.7499 65.5357 41.6452 65.377 43.542L66.122 43.6723C74.699 45.1793 74.7047 48.7625 73.6963 54.4843Z" fill="#3483B4"/>
<path d="M93.0488 26.2441C89.3623 26.2441 86.6768 24.0713 86.6035 21.0195H90.168C90.2412 22.4111 91.5107 23.3389 93.0488 23.3389C94.8799 23.3389 96.1738 22.0449 96.1738 20.2139C96.1738 18.334 94.8555 17.04 93 17.0156C91.6816 17.0156 90.7539 17.5039 90.2168 18.5049H86.8965L87.8486 8.32422H98.7373V11.3271H90.876L90.3877 15.7949H90.5342C91.1934 14.916 92.5117 14.3057 94.0742 14.3057C97.3213 14.3057 99.7383 16.7227 99.7383 20.1162C99.7383 23.6807 97.0283 26.2441 93.0488 26.2441Z" fill="white"/>
</svg>
