<svg width="110" height="111" viewBox="0 0 110 111" fill="none" xmlns="http://www.w3.org/2000/svg">
<rect y="6" width="105" height="105" rx="30" fill="white"/>
<rect x="76" width="34" height="34" rx="17" fill="#FF9D00"/>
<path d="M68.5267 52.8415L60.7767 45.0915L64.6258 41.2423C65.6535 40.2146 67.0474 39.6373 68.5008 39.6373C69.2205 39.6373 69.9331 39.779 70.598 40.0544C71.2628 40.3298 71.867 40.7335 72.3758 41.2423C72.8847 41.7512 73.2884 42.3553 73.5638 43.0202C73.8392 43.6851 73.9809 44.3977 73.9809 45.1173C73.9809 45.837 73.8392 46.5496 73.5638 47.2145C73.2884 47.8793 72.8847 48.4835 72.3758 48.9923L68.5267 52.8415ZM31.0425 74.8257C30.0148 75.8534 29.4374 77.2473 29.4374 78.7007C29.4374 80.1541 30.0148 81.5479 31.0425 82.5757C32.0702 83.6034 33.4641 84.1807 34.9175 84.1807C36.3709 84.1807 37.7648 83.6034 38.7925 82.5757L66.7183 54.6757L58.9683 46.9257L31.0425 74.8257ZM39.3996 43.2212C39.5233 43.3424 39.6768 43.4288 39.8446 43.4719C40.0124 43.515 40.1886 43.5132 40.3554 43.4666L43.9592 42.41L47.5758 43.4666C47.7428 43.5154 47.9199 43.5184 48.0884 43.4752C48.257 43.432 48.4108 43.3443 48.5337 43.2211C48.6565 43.0979 48.744 42.9439 48.7868 42.7753C48.8297 42.6067 48.8263 42.4296 48.7771 42.2627L47.7076 38.659L48.7642 35.0578C48.8122 34.8923 48.8152 34.7169 48.7729 34.5498C48.7305 34.3827 48.6444 34.2299 48.5233 34.1072C48.4021 33.9845 48.2505 33.8964 48.0839 33.8519C47.9174 33.8073 47.742 33.8081 47.5758 33.854L43.9592 34.9106L40.3554 33.854C40.1876 33.8065 40.0101 33.8055 39.8418 33.851C39.6734 33.8965 39.5206 33.9868 39.3996 34.1123C39.2745 34.2342 39.1846 34.3875 39.1391 34.5562C39.0937 34.7248 39.0944 34.9025 39.1412 35.0707L40.1978 38.6719L39.1542 42.2627C39.1057 42.4299 39.1029 42.6069 39.1461 42.7754C39.1893 42.944 39.2768 43.0979 39.3996 43.2212ZM30.0221 58.9795L33.6387 57.9229L37.2425 58.9795C37.4095 59.0284 37.5865 59.0314 37.7551 58.9882C37.9236 58.945 38.0774 58.8572 38.2003 58.734C38.3232 58.6108 38.4107 58.4569 38.4535 58.2882C38.4963 58.1196 38.493 57.9425 38.4437 57.7757L37.3872 54.159L38.4308 50.5578C38.4789 50.3923 38.4819 50.2169 38.4395 50.0498C38.3972 49.8827 38.311 49.7299 38.1899 49.6072C38.0688 49.4845 37.9172 49.3964 37.7506 49.3519C37.5841 49.3073 37.4087 49.3081 37.2425 49.354L33.6258 50.4106L30.0221 49.354C29.8551 49.3051 29.678 49.3021 29.5095 49.3453C29.3409 49.3885 29.1872 49.4763 29.0643 49.5995C28.9414 49.7226 28.8539 49.8766 28.8111 50.0453C28.7682 50.2139 28.7716 50.391 28.8208 50.5578L29.8774 54.159L28.8208 57.7757C28.7724 57.9428 28.7696 58.1198 28.8128 58.2884C28.8559 58.4569 28.9435 58.6108 29.0662 58.7341C29.1912 58.8533 29.3453 58.9375 29.513 58.9783C29.6808 59.0191 29.8564 59.0151 30.0221 58.9666V58.9795ZM76.1242 67.0886L77.1808 63.4874C77.2301 63.3205 77.2334 63.1435 77.1906 62.9748C77.1478 62.8062 77.0603 62.6522 76.9374 62.5291C76.8145 62.4059 76.6607 62.3181 76.4922 62.2749C76.3236 62.2317 76.1466 62.2347 75.9796 62.2836L72.3758 63.3402L68.7721 62.2836C68.6043 62.2358 68.4267 62.2347 68.2583 62.2802C68.0899 62.3257 67.9371 62.4162 67.8162 62.5419C67.6935 62.6652 67.6059 62.8191 67.5628 62.9876C67.5196 63.1562 67.5224 63.3332 67.5708 63.5003L68.6274 67.1015L67.5708 70.7182C67.5216 70.885 67.5182 71.0621 67.5611 71.2307C67.6039 71.3994 67.6914 71.5533 67.8143 71.6765C67.9372 71.7997 68.0909 71.8875 68.2595 71.9307C68.428 71.9739 68.6051 71.9709 68.7721 71.922L72.3758 70.8654L75.9796 71.922C76.1466 71.9709 76.3236 71.9739 76.4922 71.9307C76.6607 71.8875 76.8145 71.7997 76.9374 71.6765C77.0603 71.5533 77.1478 71.3994 77.1906 71.2307C77.2334 71.0621 77.2301 70.885 77.1808 70.7182L76.1242 67.0886Z" fill="#3483B4"/>
<path d="M93.1953 26.2441C89.5332 26.2197 86.0664 24.0469 86.0664 17.5771C86.0664 11.6201 88.9229 8.08008 93.3418 8.08008C96.9062 8.08008 99.3232 10.3262 99.6895 13.2314H96.0762C95.7832 11.9863 94.7578 11.2295 93.3418 11.2295C90.9492 11.2295 89.6797 13.4023 89.6553 16.8691H89.8262C90.6318 15.3066 92.3896 14.3789 94.3428 14.3789C97.5166 14.3789 99.8848 16.7715 99.8848 20.0918C99.8848 23.6807 97.1748 26.2686 93.1953 26.2441ZM93.1709 23.3389C94.9775 23.3389 96.3203 21.9717 96.3203 20.1895C96.3203 18.4316 95.0264 17.04 93.2197 17.04C91.4131 17.04 90.0459 18.4561 90.0215 20.1895C90.0459 21.9229 91.3643 23.3389 93.1709 23.3389Z" fill="white"/>
</svg>
