<svg width="84" height="84" viewBox="0 0 84 84" fill="none" xmlns="http://www.w3.org/2000/svg">
<path d="M62.7883 11.9388C62.7883 14.1107 61.0266 15.8743 58.8521 15.8743H52.3203V8H58.8521C59.9408 8 60.9246 8.44215 61.6366 9.15418C62.0026 9.51952 62.2928 9.95362 62.4905 10.4315C62.6881 10.9094 62.7894 11.4217 62.7883 11.9388Z" fill="#3483B4"/>
<path d="M62.7892 11.9388V54.7047C62.7892 56.8765 61.0275 58.6402 58.853 58.6402H0V19.8099C0 18.7218 0.439687 17.7375 1.15172 17.0261C1.51691 16.6601 1.95087 16.3699 2.42862 16.1723C2.90638 15.9746 3.4185 15.8734 3.93553 15.8744H58.853C61.028 15.8744 62.7892 14.1107 62.7892 11.9388Z" fill="#3F95CA"/>
<path d="M10.468 23.7487V66.148H3.93553C1.76105 66.148 0 64.3867 0 62.2123V19.8101C0 21.9852 1.76105 23.7489 3.93553 23.7489L10.468 23.7487Z" fill="#61B0E1"/>
<path d="M40.669 33.7598H38.4254C38.099 33.76 37.7859 33.8898 37.5551 34.1206L34.6212 37.0552C34.5069 37.1694 34.4162 37.305 34.3544 37.4543C34.2925 37.6036 34.2607 37.7636 34.2607 37.9251C34.2607 38.0867 34.2925 38.2467 34.3544 38.396C34.4162 38.5452 34.5069 38.6809 34.6212 38.7951C34.7354 38.9094 34.871 39.0001 35.0203 39.0619C35.1696 39.1238 35.3296 39.1556 35.4912 39.1556C35.6528 39.1556 35.8128 39.1238 35.9621 39.0619C36.1114 39.0001 36.247 38.9094 36.3612 38.7951L38.9349 36.2208H39.4385V43.0274H29.0271V36.2208H32.5633C32.8897 36.2208 33.2026 36.0911 33.4334 35.8604C33.6642 35.6296 33.7938 35.3167 33.7938 34.9903C33.7938 34.664 33.6642 34.351 33.4334 34.1202C33.2026 33.8895 32.8897 33.7598 32.5633 33.7598H29.0271V26.3213C29.0271 25.9949 28.8975 25.6819 28.6667 25.4512C28.436 25.2204 28.123 25.0908 27.7967 25.0908H19.293C18.9666 25.0908 18.6537 25.2204 18.4229 25.4512C18.1921 25.6819 18.0625 25.9949 18.0625 26.3213V44.2579C18.0625 44.9371 18.6136 45.4883 19.293 45.4883H40.669C41.3482 45.4883 41.8995 44.9371 41.8995 44.2579V34.9903C41.8995 34.3111 41.3482 33.7598 40.669 33.7598ZM20.5236 43.0274V27.5517H26.5664V33.7598H22.9102C22.5839 33.7598 22.2709 33.8895 22.0401 34.1202C21.8094 34.351 21.6797 34.664 21.6797 34.9903C21.6797 35.3167 21.8094 35.6296 22.0401 35.8604C22.2709 36.0911 22.5839 36.2208 22.9102 36.2208H26.5664V43.0274H20.5236ZM48.7184 47.1834H48.4794V25.0747H48.7184C49.3984 25.0747 49.9489 24.5243 49.9489 23.8442C49.9489 23.5179 49.8192 23.2049 49.5885 22.9742C49.3577 22.7434 49.0447 22.6138 48.7184 22.6138H45.7787C45.4524 22.6138 45.1394 22.7434 44.9087 22.9742C44.6779 23.2049 44.5483 23.5179 44.5483 23.8442C44.5483 24.5243 45.0989 25.0747 45.7787 25.0747H46.0184V47.1834H45.7789C45.6173 47.1834 45.4573 47.2153 45.308 47.2771C45.1587 47.3389 45.0231 47.4296 44.9088 47.5438C44.7946 47.6581 44.7039 47.7937 44.6421 47.943C44.5803 48.0923 44.5484 48.2523 44.5484 48.4139C44.5484 48.5755 44.5803 48.7355 44.6421 48.8848C44.7039 49.0341 44.7946 49.1697 44.9088 49.284C45.0231 49.3982 45.1587 49.4889 45.308 49.5507C45.4573 49.6126 45.6173 49.6444 45.7789 49.6444H48.7184C48.88 49.6444 49.04 49.6126 49.1893 49.5507C49.3386 49.4889 49.4742 49.3982 49.5885 49.284C49.7027 49.1697 49.7934 49.0341 49.8552 48.8848C49.917 48.7355 49.9489 48.5755 49.9489 48.4139C49.9489 48.2523 49.917 48.0923 49.8552 47.943C49.7934 47.7937 49.7027 47.6581 49.5885 47.5438C49.4742 47.4296 49.3386 47.3389 49.1893 47.2771C49.04 47.2153 48.88 47.1834 48.7184 47.1834Z" fill="#E9E7EE"/>
<path d="M82.5154 42.116L51.7594 72.8728L43.5935 76.1384C42.1695 76.7082 40.7569 75.2958 41.3267 73.8717L44.5927 65.7057L75.3491 34.9499C77.3282 32.9708 80.5365 32.9708 82.5154 34.9499C84.4943 36.929 84.4945 40.1374 82.5154 42.116Z" fill="#FF6A1F"/>
<path d="M79.8328 39.4334L49.0768 70.19L41.8279 74.3729C41.6043 74.5024 41.3928 74.5805 41.1992 74.6158C41.2576 75.7335 42.4215 76.6075 43.5935 76.1384L51.7589 72.8726L82.5154 42.116C84.4945 40.1377 84.4945 36.9288 82.5154 34.9497C82.2377 34.6718 81.9286 34.4271 81.5945 34.2205C82.2117 35.5823 81.5279 37.7389 79.8328 39.4334Z" fill="#FE5500"/>
<path d="M41.3267 73.8719L44.5927 65.7058L51.7594 72.8727L43.5935 76.1385C42.1695 76.7083 40.7569 75.2959 41.3267 73.8719Z" fill="#A0A0A0"/>
<path d="M41.1992 74.6159C41.2895 75.8109 42.472 76.5871 43.5935 76.1384L51.7594 72.8725L49.0768 70.1899C41.6273 74.4465 41.7439 74.5171 41.1992 74.6157V74.6159Z" fill="#626262"/>
<path d="M82.5151 34.9499C84.4942 36.9288 84.4942 40.1375 82.5151 42.1161L81.3212 43.3105L74.1543 36.1438L75.3488 34.9499C77.3279 32.9708 80.5362 32.9708 82.5151 34.9499Z" fill="#FFBD9B"/>
<path d="M81.5951 34.2205C82.2116 35.5823 81.5278 37.7389 79.8327 39.4334L78.6387 40.6279L81.3214 43.3107L82.5153 42.116C84.8219 39.8102 84.3795 35.9425 81.5949 34.2205H81.5951Z" fill="#FFA679"/>
<path d="M75.0523 35.2478L73.2598 37.0403L80.426 44.2066L82.2192 42.4141L75.0523 35.2478Z" fill="#555555"/>
</svg>
