<svg width="84" height="84" viewBox="0 0 84 84" fill="none" xmlns="http://www.w3.org/2000/svg">
<g clip-path="url(#clip0_283_227)">
<path d="M71.6695 45.4023V77.9459C71.6695 81.289 68.9585 84 65.6154 84H57.4571L43.3477 78.8806C32.911 69.2619 34.0215 43.4723 49.8209 43.5245L51.4891 40.8658H64.9173L71.6695 45.4023Z" fill="#E9E7EE"/>
<path d="M51.4887 40.866L49.8205 43.5246C40.0329 43.5246 38.4543 67.4452 43.3473 78.8807L41.5828 78.2402L26.5405 84H18.3822C15.0391 84 12.3281 81.289 12.3281 77.9459V45.4023L18.438 40.866H51.4887Z" fill="#D3CEDD"/>
<path d="M57.4566 72.5038V84.0001H51.4447L44.2548 80.723C38.2634 78.6925 36.5386 69.9514 40.6599 63.5596H48.5106C53.451 63.5596 57.4566 67.5652 57.4566 72.5038Z" fill="#A0A0A0"/>
<path d="M44.2553 80.7228L41.999 79.6935L32.5528 84H26.541V72.5036C26.541 67.565 30.5466 63.5594 35.4869 63.5594H40.6604C40.6875 70.058 41.9279 76.6377 44.2553 80.7228Z" fill="#626262"/>
<path d="M51.4449 72.7252V84H47.1199C40.8239 83.337 37.5323 75.5836 40.9983 69.262H47.9803C49.8934 69.262 51.4449 70.8119 51.4449 72.7252Z" fill="#FF8E55"/>
<path d="M31.4702 45.4023V47.591C31.4702 51.6035 29.2257 55.0918 25.9231 56.8683C20.1548 56.4238 18.5918 51.6035 18.5918 47.591L20.376 42.7522L21.2852 42.5105L31.4702 45.4023Z" fill="#61B0E1"/>
<path d="M25.9224 56.8682C24.4401 57.6658 22.7432 58.1188 20.9416 58.1188C15.1258 58.1188 10.4121 53.405 10.4121 47.5909V45.4022L20.3755 42.7521V47.5909C20.3755 51.6034 22.6198 55.0919 25.9224 56.8682Z" fill="#3F95CA"/>
<path d="M47.12 84.0001H32.5527V72.7252C32.5527 70.8119 34.1043 69.2622 36.0176 69.2622H40.9983C41.7707 75.9482 43.8598 81.8757 47.12 84.0001Z" fill="#FF7E3D"/>
<path d="M41.9996 58.1192C36.1845 58.1192 31.4707 53.4052 31.4707 47.5904V45.4033L42.2796 42.5105L52.5286 45.4033V47.5904C52.5285 53.4052 47.8146 58.1192 41.9996 58.1192Z" fill="#FF8E55"/>
<path d="M63.0562 58.1192C57.2412 58.1192 52.5273 53.4052 52.5273 47.5904V45.4033L63.5263 42.5105L73.5851 45.4033V47.5904C73.5851 53.4052 68.8711 58.1192 63.0562 58.1192Z" fill="#61B0E1"/>
<path d="M73.5857 45.4024H52.5281L41.9986 41.689L31.4691 45.4022H20.375L22.0516 39.5576C23.9783 36.9446 26.2937 35.4016 32.9107 35.4016H33.9282L41.9986 38.2732L50.069 35.4016H61.0499C62.6507 35.4018 64.2291 35.7779 65.6579 36.4998C67.0867 37.2217 68.3259 38.2691 69.2758 39.5576L73.5857 45.4024Z" fill="#3F95CA"/>
<path d="M32.9113 35.4017C31.3103 35.4019 29.7316 35.778 28.3026 36.4999C26.8735 37.2218 25.6339 38.2692 24.6837 39.5578L20.3756 45.4023H10.4121L14.722 39.5578C15.6719 38.2692 16.9111 37.2218 18.3399 36.4999C19.7687 35.778 21.3471 35.4018 22.948 35.4017H32.9113Z" fill="#3483B4"/>
<path d="M50.0708 35.4023H33.9284L31.4707 45.4031H52.5284L50.0708 35.4023Z" fill="#FF7E3D"/>
<path d="M58.8284 16.8287C58.8284 26.1126 52.6729 33.0338 47.807 37.0546C40.6612 34.3299 33.4492 26.1126 33.4492 16.8287C33.4492 9.57449 38.0802 1.83977 47.807 1.0293C54.2397 3.39377 58.8284 9.57466 58.8284 16.8287Z" fill="#FF6A1F"/>
<path d="M47.806 37.0547C46.6079 38.0447 45.3564 38.9683 44.0573 39.8214C43.4456 40.2225 42.7301 40.4362 41.9987 40.4362C41.2673 40.4362 40.5518 40.2225 39.9401 39.8214C35.4478 36.8755 25.1699 28.8236 25.1699 16.8287C25.1699 7.53457 32.7045 0 41.9986 0C44.0404 0 45.9958 0.363398 47.806 1.02933C41.3716 3.3938 36.7829 9.57469 36.7829 16.8287C36.7829 26.1127 42.94 33.0355 47.806 37.0547Z" fill="#FE5500"/>
<path d="M53.5479 18.0601C52.977 23.4905 48.6605 27.8054 43.23 28.3763L41.9995 27.2686L40.7691 28.3763C35.3386 27.8054 31.0221 23.4905 30.4512 18.0601L31.5463 16.8296L30.4512 15.5991C31.0221 10.167 35.3386 5.85219 40.7691 5.28125L41.9995 6.84657L43.23 5.28125C48.6605 5.85219 52.977 10.167 53.5479 15.5991L52.5169 16.8296L53.5479 18.0601Z" fill="white"/>
<path d="M43.2292 5.2812V8.27862C43.2292 8.95784 42.678 9.50909 41.9987 9.50909C41.3195 9.50909 40.7683 8.95784 40.7683 8.27862V5.2812C41.1735 5.2369 41.5837 5.21558 41.9987 5.21558C42.4138 5.21558 42.824 5.2369 43.2292 5.2812ZM43.2292 25.3789V28.3763C42.824 28.4206 42.4138 28.4419 41.9987 28.4419C41.5837 28.4419 41.1735 28.4206 40.7683 28.3763V25.3789C40.7683 24.6996 41.3195 24.1484 41.9987 24.1484C42.678 24.1484 43.2292 24.6996 43.2292 25.3789ZM34.6783 16.8296C34.6783 17.5088 34.127 18.06 33.4478 18.06H30.4504C30.4061 17.6548 30.3848 17.2446 30.3848 16.8296C30.3848 16.4145 30.4061 16.0043 30.4504 15.5991H33.4478C34.127 15.5991 34.6783 16.1487 34.6783 16.8296ZM53.6127 16.8296C53.6127 17.2446 53.5914 17.6548 53.5471 18.06H50.5497C49.8705 18.06 49.3192 17.5088 49.3192 16.8296C49.3192 16.1487 49.8705 15.5991 50.5497 15.5991H53.5471C53.5914 16.0043 53.6127 16.4145 53.6127 16.8296ZM41.9986 18.0592C41.837 18.0592 41.677 18.0274 41.5277 17.9656C41.3784 17.9038 41.2428 17.8131 41.1285 17.6989C41.0143 17.5846 40.9237 17.4489 40.8618 17.2996C40.8 17.1503 40.7682 16.9903 40.7683 16.8287V12.5598C40.7683 11.8801 41.3192 11.3294 41.9987 11.3294C42.6783 11.3294 43.2292 11.8801 43.2292 12.5598V13.8031L46.0693 10.8889C46.1821 10.7731 46.3165 10.6807 46.465 10.617C46.6135 10.5532 46.773 10.5193 46.9346 10.5172C47.0962 10.5152 47.2566 10.5449 47.4066 10.6048C47.5567 10.6647 47.6935 10.7536 47.8092 10.8664C47.9249 10.9791 48.0173 11.1136 48.0811 11.2621C48.1448 11.4105 48.1787 11.5701 48.1808 11.7317C48.1829 11.8932 48.1531 12.0536 48.0932 12.2037C48.0333 12.3538 47.9444 12.4906 47.8317 12.6063L42.8799 17.6874C42.7653 17.8051 42.6283 17.8987 42.4769 17.9625C42.3255 18.0264 42.1629 18.0592 41.9986 18.0592Z" fill="#626262"/>
</g>
<defs>
<clipPath id="clip0_283_227">
<rect width="84" height="84" fill="white"/>
</clipPath>
</defs>
</svg>
