<svg width="110" height="111" viewBox="0 0 110 111" fill="none" xmlns="http://www.w3.org/2000/svg">
<rect y="6" width="105" height="105" rx="30" fill="white"/>
<rect x="76" width="34" height="34" rx="17" fill="#FF9D00"/>
<path fill-rule="evenodd" clip-rule="evenodd" d="M43.7158 69.7448V59.429C43.6449 58.2792 43.8236 57.1277 44.2399 56.0507C44.6562 54.9737 45.3008 53.9956 46.131 53.1811C46.9612 52.3665 47.9581 51.7341 49.0558 51.3257C50.1536 50.9172 51.3272 50.7419 52.4991 50.8114H70.04C70.4016 50.8114 70.7374 50.8368 71.0732 50.8621L71.0733 50.8621C72.157 50.9212 73.218 51.1902 74.1952 51.6535C75.1724 52.1169 76.0464 52.7655 76.7669 53.5619C77.4873 54.3583 78.04 55.2868 78.3929 56.2937C78.7459 57.3007 78.8921 58.3663 78.8233 59.429V69.7448C78.8643 70.8944 78.6707 72.0405 78.2536 73.1156C77.8366 74.1908 77.2047 75.1732 76.395 76.0052C75.5484 76.7927 74.5505 77.4067 73.4593 77.8114C72.3682 78.2162 71.2057 78.4034 70.04 78.3624V82.0375C70.0429 82.3484 69.959 82.6542 69.7972 82.9216C69.6354 83.189 69.402 83.4078 69.1223 83.5541C68.8427 83.7004 68.5275 83.7687 68.211 83.7516C67.8946 83.7345 67.589 83.6325 67.3275 83.4569L59.5258 78.3624H52.4991C50.5904 78.4858 48.6982 77.9465 47.1538 76.8391C45.6094 75.7316 44.5113 74.1265 44.0516 72.3047C43.8176 71.4711 43.7046 70.6093 43.7158 69.7448ZM60.0941 33.0693H38.1358C36.6936 33.068 35.2653 33.3457 33.9326 33.8866C32.6 34.4275 31.3891 35.2209 30.3693 36.2214C29.3495 37.2219 28.5409 38.41 27.9896 39.7175C27.4383 41.025 27.1553 42.4263 27.1566 43.8413V56.7677C27.1018 58.2012 27.3411 59.6309 27.8603 60.9719C28.3795 62.313 29.1681 63.538 30.1791 64.5742C30.6947 65.0585 30.3811 65.9425 30.0841 66.7798C29.7727 67.6576 29.4796 68.484 30.1791 68.7447C32.1027 68.6914 36.9069 68.0903 39.4625 67.1685C39.7047 66.9308 39.8408 66.6085 39.8408 66.2724V59.429C39.8391 57.7976 40.1653 56.1819 40.8009 54.6743C41.4364 53.1668 42.3688 51.797 43.5445 50.6434C44.7203 49.4898 46.1164 48.5751 47.653 47.9515C49.1895 47.328 50.8363 47.0079 52.4991 47.0096H69.7816C69.9517 47.0112 70.1205 46.9796 70.278 46.9165C70.4354 46.8534 70.5785 46.7602 70.6988 46.6421C70.8191 46.5241 70.9142 46.3837 70.9785 46.2292C71.0428 46.0747 71.075 45.9092 71.0733 45.7423V43.8413C71.0746 42.4263 70.7916 41.025 70.2403 39.7175C69.689 38.41 68.8804 37.2219 67.8606 36.2214C66.8408 35.2209 65.6299 34.4275 64.2973 33.8866C62.9646 33.3457 61.5363 33.068 60.0941 33.0693ZM69.8147 61.7749C70.7198 60.8869 70.7334 59.4336 69.8451 58.5288C68.9567 57.624 67.5029 57.6104 66.5977 58.4984L59.4326 65.5283L56.3619 62.5155C55.4568 61.6275 54.0029 61.6411 53.1146 62.5459C52.2262 63.4506 52.2398 64.904 53.1449 65.792L57.8242 70.3829C58.7173 71.2593 60.148 71.2593 61.0411 70.3829L69.8147 61.7749Z" fill="#3483B4"/>
<path d="M85.8833 22.875V19.9697L93.354 8.32422H97.9683V19.9209H100.214V22.875H97.9683V26H94.4771V22.875H85.8833ZM89.5942 19.9209H94.5259V12.3525H94.355L89.5942 19.7744V19.9209Z" fill="white"/>
</svg>
