<svg width="110" height="111" viewBox="0 0 110 111" fill="none" xmlns="http://www.w3.org/2000/svg">
<rect y="6" width="105" height="105" rx="30" fill="white"/>
<rect x="76" width="34" height="34" rx="17" fill="#FF9D00"/>
<path d="M62.2745 59.4402V69.7596C62.2857 70.6245 62.1726 71.4866 61.9386 72.3205C61.4789 74.1429 60.3808 75.7487 58.8364 76.8565C57.2921 77.9644 55.3999 78.5038 53.4911 78.3803H46.4645L38.6628 83.4767C38.4013 83.6524 38.0956 83.7544 37.7792 83.7715C37.4627 83.7887 37.1475 83.7203 36.8679 83.5739C36.5882 83.4276 36.3548 83.2087 36.1931 82.9412C36.0313 82.6737 35.9473 82.3678 35.9503 82.0568V78.3803C34.7845 78.4214 33.6221 78.2341 32.5309 77.8292C31.4398 77.4243 30.4418 76.8101 29.5953 76.0223C28.7856 75.19 28.1536 74.2072 27.7366 73.1317C27.3196 72.0562 27.1259 70.9097 27.167 69.7596V59.4402C27.0981 58.3771 27.2444 57.3111 27.5973 56.3038C27.9503 55.2965 28.5029 54.3677 29.2234 53.571C29.9438 52.7743 30.8179 52.1255 31.7951 51.6619C32.7723 51.1984 33.8333 50.9293 34.917 50.8702C35.2528 50.8449 35.5886 50.8195 35.9503 50.8195H53.4911C54.663 50.75 55.8366 50.9253 56.9344 51.3339C58.0322 51.7426 59.0291 52.3752 59.8593 53.19C60.6894 54.0048 61.334 54.9832 61.7503 56.0607C62.1667 57.1381 62.3453 58.29 62.2745 59.4402ZM67.8545 33.071H45.8961C44.4539 33.0697 43.0256 33.3475 41.693 33.8886C40.3603 34.4297 39.1494 35.2234 38.1296 36.2242C37.1099 37.2251 36.3012 38.4136 35.7499 39.7216C35.1986 41.0296 34.9156 42.4314 34.917 43.8469V45.7485C34.9152 45.9155 34.9475 46.0811 35.0118 46.2357C35.0761 46.3902 35.1711 46.5307 35.2914 46.6487C35.4117 46.7668 35.5548 46.8601 35.7123 46.9232C35.8698 46.9863 36.0385 47.018 36.2086 47.0163H53.4911C55.1539 47.0146 56.8007 47.3348 58.3373 47.9586C59.8738 48.5824 61.2699 49.4974 62.4457 50.6514C63.6215 51.8054 64.5538 53.1757 65.1894 54.6838C65.8249 56.1919 66.1512 57.8082 66.1495 59.4402V66.286C66.1495 66.6222 66.2855 66.9447 66.5278 67.1825C69.0833 68.1046 73.8875 68.7059 75.8111 68.7592C77.1779 68.2496 74.7549 65.5796 75.8111 64.5872C76.8222 63.5506 77.6107 62.3252 78.1299 60.9837C78.6491 59.6422 78.8884 58.2119 78.8336 56.7779V43.8469C78.835 42.4314 78.5519 41.0296 78.0007 39.7216C77.4494 38.4136 76.6407 37.2251 75.6209 36.2242C74.6012 35.2234 73.3903 34.4297 72.0576 33.8886C70.7249 33.3475 69.2966 33.0697 67.8545 33.071Z" fill="#3483B4"/>
<path d="M92.9512 26.2441C89.0693 26.2441 86.2861 24.0957 86.2129 21.0195H89.9238C89.9971 22.3379 91.2666 23.2168 92.9756 23.2168C94.7334 23.2168 96.0029 22.2158 95.9785 20.7998C96.0029 19.3594 94.709 18.334 92.6338 18.334H90.998V15.624H92.6338C94.3672 15.624 95.5879 14.6719 95.5879 13.2803C95.5879 11.9375 94.5625 11.0098 93 11.0098C91.4375 11.0098 90.1436 11.8887 90.0947 13.2314H86.5791C86.6279 10.1797 89.3867 8.08008 93 8.08008C96.6865 8.08008 99.1523 10.2529 99.1279 13.0605C99.1523 15.0381 97.7607 16.4541 95.7832 16.7959V16.9424C98.3711 17.2598 99.8115 18.8467 99.7871 21.0439C99.8115 24.0713 96.9307 26.2441 92.9512 26.2441Z" fill="white"/>
</svg>
