<svg width="21" height="10" viewBox="0 0 21 10" fill="none" xmlns="http://www.w3.org/2000/svg">
<path d="M20.4587 1.03945C20.4587 0.486333 19.9752 0.00245796 19.4217 0.00204824L7.80416 0C7.52931 0.000217017 7.26578 0.109497 7.07143 0.303848C6.87708 0.498198 6.7678 0.76173 6.76758 1.03658L6.76922 8.46065C6.76963 8.73762 6.87779 8.9982 7.07364 9.19445C7.26948 9.39071 7.53006 9.49846 7.80703 9.49846L19.4241 9.50092C19.6991 9.5007 19.9627 9.39138 20.1572 9.19695C20.3516 9.00253 20.4609 8.73889 20.4611 8.46393L20.4587 1.03945ZM7.90413 8.36396L7.90249 1.1341L19.3238 1.13655L19.3254 8.36642L7.90413 8.36396Z" fill="white"/>
<path d="M17.3525 2.32017L13.5692 5.25784L9.87559 2.31239C9.76961 2.22695 9.63488 2.18543 9.4992 2.19641C9.36351 2.20739 9.23721 2.27003 9.14635 2.3714C9.05548 2.47277 9.00699 2.60515 9.01087 2.74123C9.01475 2.8773 9.0707 3.0067 9.16719 3.10273L13.234 6.35097C13.3279 6.42472 13.4455 6.4661 13.5655 6.46692C13.6855 6.46692 13.8015 6.42594 13.8912 6.35424L18.006 3.16132C18.0614 3.11851 18.1078 3.06518 18.1424 3.00438C18.1771 2.94359 18.1995 2.87654 18.2081 2.80709C18.2168 2.73763 18.2117 2.66715 18.193 2.59969C18.1744 2.53223 18.1426 2.46912 18.0994 2.414C18.0126 2.30277 17.8853 2.23045 17.7453 2.21287C17.6054 2.19528 17.4641 2.23387 17.3525 2.32017ZM5.69074 0.832492C5.69064 0.72397 5.64748 0.619924 5.57074 0.543188C5.494 0.466451 5.38996 0.423293 5.28144 0.423185L0.409496 0.422366C0.32853 0.422084 0.249311 0.445894 0.181917 0.490766C0.114523 0.535639 0.0620006 0.599544 0.0310315 0.674353C6.24873e-05 0.749162 -0.00795309 0.831492 0.00800467 0.91087C0.0239624 0.990247 0.0631722 1.06308 0.120645 1.12011C0.194394 1.19427 0.296824 1.24016 0.409496 1.23975L5.28226 1.24098C5.5076 1.24098 5.69074 1.05784 5.69074 0.832492ZM5.69074 3.28588C5.6908 3.23218 5.68026 3.17901 5.65972 3.1294C5.63919 3.07978 5.60906 3.03471 5.57108 2.99677C5.53309 2.95882 5.48799 2.92874 5.43836 2.90825C5.38873 2.88777 5.33554 2.87728 5.28185 2.87739L2.50888 2.87616C2.45516 2.87619 2.40197 2.88679 2.35234 2.90738C2.30272 2.92796 2.25763 2.95812 2.21967 2.99613C2.1817 3.03414 2.15158 3.07925 2.13105 3.12889C2.11052 3.17854 2.09996 3.23174 2.09999 3.28547C2.10001 3.33919 2.11062 3.39238 2.13121 3.44201C2.15179 3.49163 2.18195 3.53672 2.21995 3.57469C2.25796 3.61265 2.30308 3.64277 2.35272 3.6633C2.40237 3.68384 2.45557 3.69439 2.50929 3.69436L5.28226 3.69477C5.33598 3.69494 5.38921 3.68447 5.43887 3.66397C5.48853 3.64347 5.53364 3.61335 5.57161 3.57535C5.60958 3.53734 5.63965 3.4922 5.6601 3.44251C5.68055 3.39283 5.69096 3.3396 5.69074 3.28588ZM5.28267 5.33036H4.01418C3.93322 5.33008 3.854 5.35389 3.78661 5.39876C3.71921 5.44364 3.66669 5.50754 3.63572 5.58235C3.60475 5.65716 3.59673 5.73949 3.61269 5.81887C3.62865 5.89824 3.66786 5.97108 3.72533 6.02811C3.79908 6.10268 3.90151 6.14816 4.01418 6.14816H5.28308C5.39152 6.1481 5.49551 6.10497 5.57215 6.02825C5.6488 5.95153 5.69182 5.8475 5.69177 5.73905C5.69171 5.63061 5.64858 5.52663 5.57186 5.44998C5.49514 5.37334 5.39111 5.33031 5.28267 5.33036Z" fill="white"/>
</svg>
