<svg width="81" height="81" viewBox="0 0 81 81" fill="none" xmlns="http://www.w3.org/2000/svg">
<path d="M81 5.58621V13.9655H40.5C39.7599 13.9633 39.0508 13.6683 38.5274 13.145C38.0041 12.6217 37.7091 11.9125 37.7069 11.1724V8.37931C37.7047 7.63921 37.4097 6.93006 36.8864 6.40673C36.363 5.8834 35.6539 5.58842 34.9138 5.58621H0C0 4.10465 0.588545 2.68378 1.63616 1.63616C2.68378 0.588545 4.10465 0 5.58621 0L75.4138 0C76.8953 0 78.3162 0.588545 79.3638 1.63616C80.4115 2.68378 81 4.10465 81 5.58621Z" fill="#3483B4"/>
<path d="M81 13.9655V19.5517H0V5.58618H34.9138C35.6539 5.58839 36.363 5.88337 36.8864 6.4067C37.4097 6.93003 37.7047 7.63919 37.7069 8.37929V11.1724C37.7091 11.9125 38.0041 12.6216 38.5274 13.145C39.0508 13.6683 39.7599 13.9633 40.5 13.9655H81Z" fill="#61B0E1"/>
<path d="M81 19.5518V67.0345C81 68.5161 80.4115 69.937 79.3638 70.9846C78.3162 72.0322 76.8953 72.6208 75.4138 72.6208H5.58621C4.10465 72.6208 2.68378 72.0322 1.63616 70.9846C0.588545 69.937 0 68.5161 0 67.0345V19.5518H81ZM22.3448 13.9656H6.98276C6.61237 13.9656 6.25715 13.8185 5.99525 13.5565C5.73334 13.2946 5.58621 12.9394 5.58621 12.569C5.58621 12.1986 5.73334 11.8434 5.99525 11.5815C6.25715 11.3196 6.61237 11.1725 6.98276 11.1725H22.3448C22.7152 11.1725 23.0704 11.3196 23.3323 11.5815C23.5942 11.8434 23.7414 12.1986 23.7414 12.569C23.7414 12.9394 23.5942 13.2946 23.3323 13.5565C23.0704 13.8185 22.7152 13.9656 22.3448 13.9656Z" fill="#E9E7EE"/>
<path d="M32.6991 12.5689L33.1082 12.1597C33.3626 11.8963 33.5034 11.5436 33.5002 11.1774C33.497 10.8112 33.3502 10.4609 33.0912 10.202C32.8323 9.94308 32.482 9.7962 32.1159 9.79302C31.7497 9.78984 31.3969 9.9306 31.1335 10.185L30.7243 10.5942L30.3151 10.185C30.0517 9.9306 29.699 9.78984 29.3328 9.79302C28.9666 9.7962 28.6164 9.94308 28.3574 10.202C28.0985 10.4609 27.9516 10.8112 27.9484 11.1774C27.9453 11.5436 28.086 11.8963 28.3404 12.1597L28.7496 12.5689L28.3404 12.9781C28.207 13.1069 28.1006 13.261 28.0274 13.4314C27.9543 13.6018 27.9157 13.7851 27.9141 13.9705C27.9125 14.1559 27.9478 14.3398 28.0181 14.5115C28.0883 14.6831 28.192 14.839 28.3231 14.9701C28.4542 15.1013 28.6102 15.205 28.7818 15.2752C28.9534 15.3454 29.1373 15.3807 29.3227 15.3791C29.5082 15.3775 29.6914 15.339 29.8618 15.2658C30.0322 15.1926 30.1863 15.0862 30.3151 14.9528L30.7243 14.5436L31.1335 14.9528C31.3969 15.2072 31.7497 15.348 32.1159 15.3448C32.482 15.3416 32.8323 15.1947 33.0912 14.9358C33.3502 14.6769 33.497 14.3266 33.5002 13.9604C33.5034 13.5943 33.3626 13.2415 33.1082 12.9781L32.6991 12.5689Z" fill="#3483B4"/>
<path d="M72.6192 8.37929C73.3905 8.37929 74.0158 7.75403 74.0158 6.98273C74.0158 6.21144 73.3905 5.58618 72.6192 5.58618C71.8479 5.58618 71.2227 6.21144 71.2227 6.98273C71.2227 7.75403 71.8479 8.37929 72.6192 8.37929Z" fill="#E64C3C"/>
<path d="M67.0333 8.37929C67.8046 8.37929 68.4298 7.75403 68.4298 6.98273C68.4298 6.21144 67.8046 5.58618 67.0333 5.58618C66.262 5.58618 65.6367 6.21144 65.6367 6.98273C65.6367 7.75403 66.262 8.37929 67.0333 8.37929Z" fill="#FF8E55"/>
<path d="M61.4473 8.37929C62.2186 8.37929 62.8439 7.75403 62.8439 6.98273C62.8439 6.21144 62.2186 5.58618 61.4473 5.58618C60.676 5.58618 60.0508 6.21144 60.0508 6.98273C60.0508 7.75403 60.676 8.37929 61.4473 8.37929Z" fill="#4FBA6F"/>
<path d="M67.0073 57.2587H61.449L43.0844 40.123C42.385 39.4651 41.461 39.0988 40.5008 39.0988C39.5406 39.0988 38.6165 39.4651 37.9171 40.123L19.5525 57.2587H13.9942C13.4321 57.2597 12.8826 57.0924 12.4164 56.7784C11.9502 56.4643 11.5886 56.018 11.3783 55.4967C11.168 54.9754 11.1185 54.4031 11.2363 53.8535C11.3541 53.3038 11.6336 52.802 12.039 52.4127L38.0149 27.5261C38.685 26.8875 39.5751 26.5313 40.5008 26.5312C41.4264 26.5313 42.3166 26.8875 42.9866 27.5261L68.9625 52.4127C69.3679 52.802 69.6475 53.3038 69.7652 53.8535C69.883 54.4031 69.8335 54.9754 69.6232 55.4967C69.4129 56.018 69.0513 56.4643 68.5851 56.7784C68.1189 57.0924 67.5694 57.2597 67.0073 57.2587Z" fill="#FF6A1F"/>
<path d="M61.4473 57.2586V78.2068C61.4451 78.9469 61.1501 79.6561 60.6268 80.1794C60.1035 80.7027 59.3943 80.9977 58.6542 80.9999H50.2749C49.5348 80.9977 48.8257 80.7027 48.3023 80.1794C47.779 79.6561 47.484 78.9469 47.4818 78.2068V64.2413C47.4796 63.5012 47.1846 62.7921 46.6613 62.2687C46.138 61.7454 45.4288 61.4504 44.6887 61.4482H36.3094C35.5693 61.4504 34.8602 61.7454 34.3368 62.2687C33.8135 62.7921 33.5185 63.5012 33.5163 64.2413V78.2068C33.5141 78.9469 33.2191 79.6561 32.6958 80.1794C32.1724 80.7027 31.4633 80.9977 30.7232 80.9999H22.3439C21.6038 80.9977 20.8946 80.7027 20.3713 80.1794C19.848 79.6561 19.553 78.9469 19.5508 78.2068V57.2586L37.9154 40.1229C38.6148 39.465 39.5389 39.0986 40.4991 39.0986C41.4593 39.0986 42.3833 39.465 43.0827 40.1229L61.4473 57.2586Z" fill="#FFBD9B"/>
<path d="M51.6719 35.8494V32.1206C51.6741 31.3805 51.9691 30.6714 52.4924 30.148C53.0157 29.6247 53.7249 29.3297 54.465 29.3275H60.0512C60.7913 29.3297 61.5004 29.6247 62.0238 30.148C62.5471 30.6714 62.8421 31.3805 62.8443 32.1206V46.547L51.6719 35.8494Z" fill="#FE5500"/>
</svg>
