<svg width="136" height="136" viewBox="0 0 136 136" fill="none" xmlns="http://www.w3.org/2000/svg">
<path d="M113.187 107.301H112.36V105.204C115.047 103.345 116.68 100.283 116.68 96.9742V90.8398C116.68 90.8298 116.681 90.8189 116.681 90.8089V89.1129C116.681 88.4382 116.598 87.8065 116.444 87.2199C115.598 83.878 112.566 81.3986 108.966 81.3986H104.379C101.215 81.3986 98.4306 83.366 97.2585 86.155C96.2009 85.8127 95.0963 85.6378 93.9847 85.6367H93.1578V83.5384C95.8459 81.6809 97.48 78.6196 97.48 75.3076V67.4454C97.48 67.3538 97.4765 67.262 97.4731 67.1712C97.4375 66.0583 97.1914 65.0669 96.7674 64.2125C95.5417 61.5706 92.8652 59.7322 89.7659 59.7322H85.1794C81.0702 59.7322 77.702 62.9614 77.4778 67.0161C77.4685 67.1567 77.4641 67.3001 77.4641 67.4463V69.1423C77.4641 69.1532 77.465 69.1641 77.465 69.1741V75.3076C77.465 78.617 79.0982 81.6782 81.7847 83.5375V85.6367H80.9575C79.8101 85.6367 78.677 85.8254 77.6014 86.1831C76.4363 83.3725 73.6519 81.3986 70.4697 81.3986H68.6141V55.3272H71.7073C73.7963 55.3272 75.495 53.6285 75.495 51.5404V49.4556C75.495 47.3669 73.7963 45.6682 71.7073 45.6682H69.2223L72.3365 35.3493C72.4218 35.0667 72.4346 34.7671 72.3735 34.4783C72.3124 34.1895 72.1794 33.9207 71.9869 33.6969L64.3925 24.8597C64.087 24.5127 63.6571 24.3001 63.1959 24.2679C62.7348 24.2358 62.2795 24.3866 61.9288 24.6879C61.5781 24.9891 61.3603 25.4163 61.3225 25.8771C61.2847 26.3378 61.43 26.7949 61.7269 27.1492L68.694 35.2566L65.5518 45.6682H65.2903V41.038C65.2903 35.727 60.9697 31.4055 55.6596 31.4055H55.4862V29.7955C57.8095 28.1068 59.2175 25.3912 59.2175 22.4781V20.8986C59.2175 20.8905 59.2184 20.8823 59.2184 20.873V14.0595C59.2184 11.9649 58.0538 10.1375 56.3369 9.19035C55.5179 8.73738 54.5972 8.50031 53.6613 8.50147H46.6735C43.6084 8.50147 41.1145 10.9953 41.1145 14.0604V22.4774C41.1126 23.9421 41.4673 25.3853 42.1481 26.6822C42.8289 27.9791 43.8152 29.0907 45.0219 29.921V31.4055H44.1785C38.8684 31.4055 34.5487 35.727 34.5487 41.038V45.6682H28.0283C25.9403 45.6682 24.2415 47.3669 24.2415 49.4559V51.5404C24.2415 53.6285 25.9403 55.3272 28.0283 55.3272H31.1234V81.3986H27.3873C23.5261 81.3986 20.3195 84.2494 19.7594 87.9562C19.7006 88.339 19.6715 88.7257 19.6722 89.1129V90.8089C19.6722 90.8198 19.6731 90.8298 19.6731 90.8405V96.9751C19.6731 100.283 21.3063 103.346 23.9928 105.204V107.301H23.1654C17.2992 107.301 12.5254 112.076 12.5254 117.944V123.573C12.5254 125.738 14.2866 127.499 16.4521 127.499H119.901C122.066 127.499 123.828 125.738 123.828 123.573V117.944C123.828 112.075 119.054 107.301 113.187 107.301L113.187 107.301ZM104.501 104.239C104.502 103.922 104.417 103.61 104.255 103.336C104.094 103.063 103.861 102.839 103.582 102.687C102.795 102.261 102.105 101.677 101.554 100.971C101.004 100.265 100.606 99.453 100.384 98.5858C102.104 99.9794 104.293 100.816 106.673 100.816C109.053 100.816 111.241 99.9803 112.96 98.5874C112.738 99.4539 112.339 100.265 111.79 100.971C111.24 101.677 110.55 102.261 109.764 102.688C109.485 102.84 109.253 103.065 109.091 103.338C108.93 103.611 108.845 103.923 108.847 104.241V109.058C108.847 109.349 108.61 109.586 108.319 109.586H105.028C104.738 109.586 104.501 109.349 104.501 109.058V104.239ZM100.179 89.1129C100.179 88.9839 100.186 88.8533 100.198 88.7215C100.394 86.5845 102.226 84.9132 104.379 84.9132H108.966C111.282 84.9132 113.167 86.7969 113.167 89.1129V90.8398C113.149 94.4058 110.243 97.3019 106.673 97.3019C103.093 97.3019 100.179 94.3886 100.179 90.8089V89.1129ZM85.2991 82.5734C85.2991 82.5662 85.2981 82.559 85.2981 82.5516C85.2972 82.4307 85.2891 82.3429 85.2737 82.2801C85.2307 82.0162 85.1279 81.7657 84.9732 81.5476C84.8185 81.3295 84.6161 81.1497 84.3812 81.0218C83.5953 80.5948 82.9059 80.0104 82.3561 79.305C81.8062 78.5995 81.4077 77.7883 81.1855 76.922C82.9049 78.3137 85.0922 79.1508 87.4717 79.1508C89.853 79.1508 92.041 78.3137 93.7604 76.9201C93.5387 77.7869 93.1404 78.5986 92.5903 79.3042C92.0403 80.0099 91.3504 80.5943 90.564 81.0209C90.2848 81.1723 90.0518 81.3965 89.8899 81.6697C89.7279 81.9429 89.643 82.2549 89.6441 82.5725V87.3933C89.6442 87.5331 89.5888 87.6671 89.4901 87.7661C89.3914 87.865 89.2574 87.9207 89.1177 87.9209H85.8257C85.7565 87.9208 85.688 87.9071 85.624 87.8806C85.5601 87.854 85.502 87.8151 85.4531 87.7662C85.4042 87.7172 85.3654 87.659 85.339 87.595C85.3126 87.5311 85.299 87.4625 85.2991 87.3933V82.5734ZM80.9784 67.4463C80.9784 65.1303 82.8633 63.2456 85.1794 63.2456H89.7659C92.0738 63.2456 93.9512 65.1166 93.9647 67.4219C93.9647 67.4301 93.9656 67.4382 93.9656 67.4463V69.1423C93.9656 72.7229 91.0523 75.6362 87.4717 75.6362C83.9018 75.6362 80.9959 72.7403 80.9784 69.1741V67.4463ZM71.268 102.688C70.9892 102.84 70.7567 103.065 70.5951 103.338C70.4335 103.611 70.3488 103.923 70.35 104.241V109.058C70.35 109.198 70.2945 109.332 70.1958 109.431C70.0971 109.53 69.9631 109.585 69.8233 109.586H66.5298C66.2392 109.586 66.0022 109.349 66.0022 109.058V104.241C66.0039 103.923 65.9195 103.611 65.7579 103.338C65.5964 103.064 65.3636 102.84 65.0846 102.688C64.2985 102.261 63.6091 101.676 63.0592 100.971C62.5093 100.265 62.1109 99.4534 61.8889 98.5867C63.6083 99.9794 65.7963 100.816 68.1767 100.816C70.5571 100.816 72.7444 99.9794 74.4647 98.5867C74.2426 99.4535 73.8441 100.265 73.2941 100.971C72.744 101.677 72.0543 102.261 71.268 102.688ZM61.6616 107.301C55.7949 107.301 51.0213 112.075 51.0213 117.944V123.572C51.0213 123.712 51.0294 123.849 51.0438 123.985H46.8131C46.8278 123.848 46.8351 123.71 46.835 123.572V117.944C46.835 114.937 45.553 112.055 43.3178 110.037C41.3637 108.274 38.8247 107.299 36.1929 107.301H35.3657V105.205C38.0541 103.348 39.6882 100.287 39.6882 96.9742V89.9036C40.6761 89.4071 41.7666 89.149 42.8723 89.1501H44.106C44.7614 90.5002 46.1415 91.4343 47.7393 91.4343H51.0331C52.6317 91.4343 54.0118 90.4993 54.6672 89.1501H55.9011C56.6864 89.1501 57.4444 89.2763 58.169 89.5206V96.9751C58.169 100.283 59.8022 103.345 62.4887 105.204V107.301H61.6616ZM27.5063 104.241C27.508 103.923 27.4235 103.611 27.2618 103.338C27.1002 103.064 26.8674 102.84 26.5882 102.688C25.8022 102.261 25.1127 101.677 24.5628 100.971C24.013 100.265 23.6146 99.454 23.3925 98.5874C25.1124 99.9803 27.3001 100.816 29.6798 100.816C32.0603 100.816 34.2482 99.9794 35.9686 98.5858C35.747 99.4529 35.3486 100.265 34.7983 100.971C34.2481 101.677 33.5578 102.261 32.771 102.687C32.4919 102.839 32.2592 103.063 32.0974 103.336C31.9356 103.61 31.8509 103.922 31.8522 104.239V109.058C31.853 109.193 31.8013 109.324 31.7081 109.422C31.6149 109.52 31.4873 109.578 31.3521 109.585H28.0339C27.9646 109.585 27.8961 109.571 27.8321 109.545C27.7681 109.518 27.71 109.48 27.661 109.431C27.612 109.382 27.5731 109.324 27.5466 109.26C27.52 109.196 27.5063 109.127 27.5063 109.058V104.241ZM23.1866 89.1129C23.1866 86.7969 25.0706 84.9132 27.3873 84.9132H31.974C32.1883 84.9132 32.4063 84.9294 32.6148 84.9603C34.6003 85.2634 36.0929 86.9384 36.1692 88.9549C36.171 89.0077 36.1729 89.0602 36.1729 89.1129V90.8089C36.1729 94.3895 33.2605 97.3019 29.6798 97.3019C26.1099 97.3019 23.2038 94.406 23.1866 90.8407V89.1129ZM42.8932 67.4454C42.8932 67.3083 42.9002 67.173 42.913 67.0396L42.9158 67.0087C43.1354 64.8979 44.9248 63.2456 47.0927 63.2456H51.6795C53.9955 63.2456 55.8793 65.1294 55.8802 67.4454V69.1423C55.8802 72.7229 52.9669 75.6362 49.3862 75.6362C45.8056 75.6362 42.893 72.7229 42.893 69.1425V67.4463L42.8932 67.4454ZM49.3862 79.1508C51.7667 79.1508 53.9537 78.3137 55.674 76.921C55.452 77.7876 55.0535 78.599 54.5037 79.3046C53.9538 80.0102 53.2643 80.5947 52.4783 81.0218C52.1993 81.1732 51.9665 81.3975 51.8049 81.6707C51.6433 81.944 51.5588 82.256 51.5605 82.5734V87.3933C51.5605 87.6838 51.3234 87.9209 51.0329 87.9209H47.7393C47.4488 87.9209 47.2117 87.6838 47.2117 87.3933V82.5734C47.2134 82.256 47.129 81.944 46.9673 81.6707C46.8057 81.3975 46.573 81.1732 46.2939 81.0218C45.5079 80.5947 44.8184 80.0102 44.2686 79.3046C43.7187 78.599 43.3203 77.7876 43.0982 76.921C44.8185 78.3137 47.0065 79.1508 49.3862 79.1508ZM68.1764 97.3019C64.5958 97.3019 61.6825 94.3895 61.6825 90.8089V89.1129C61.6825 89.0321 61.6853 88.9502 61.6906 88.8668C61.6915 88.8552 61.6934 88.8424 61.6943 88.8296C61.6997 88.7534 61.7069 88.6762 61.7169 88.5972C61.7169 88.5944 61.7169 88.5926 61.7178 88.59C61.9758 86.4927 63.7661 84.9122 65.8832 84.9122H70.4697C72.6505 84.9122 74.4898 86.6117 74.6569 88.7787C74.6606 88.8352 74.6641 88.8887 74.6662 88.9396C74.6678 88.9967 74.6706 89.0539 74.6706 89.1102V90.8089C74.6706 94.3895 71.7573 97.3019 68.1764 97.3019ZM48.5381 33.1386C48.5381 33.1158 48.5372 33.0942 48.5363 33.0723V31.3806C49.6705 31.5877 50.8479 31.5758 51.9728 31.3471V33.0703L51.97 33.1384C51.9584 34.0708 51.1884 34.8297 50.2559 34.8297C49.3216 34.8297 48.5509 34.0708 48.5384 33.1384L48.5381 33.1386ZM54.0099 15.3315C53.8947 14.4725 53.1612 13.8089 52.2696 13.8089C51.3853 13.8089 50.6543 14.4634 50.5327 15.315H46.6735C45.9525 15.315 45.2627 15.4531 44.6298 15.7045V14.0595C44.6298 12.9327 45.5467 12.0158 46.6735 12.0158H53.6613C54.0137 12.0158 54.3451 12.1058 54.6347 12.2629C54.958 12.4387 55.228 12.6985 55.4162 13.0148C55.6044 13.3311 55.7038 13.6923 55.704 14.0604V15.7036C55.1748 15.494 54.6038 15.3687 54.0099 15.3315ZM44.6289 20.8932C44.6289 20.8867 44.6298 20.8805 44.6298 20.873C44.6298 19.7465 45.5467 18.8296 46.6735 18.8296H53.6613C54.7799 18.8296 55.6903 19.7328 55.7043 20.8477V22.4774C55.7039 23.4618 55.4412 24.4283 54.9434 25.2775C54.4455 26.1267 53.7304 26.828 52.8716 27.3091C52.8716 27.3091 52.8706 27.31 52.8697 27.31C52.8697 27.31 52.8688 27.31 52.8688 27.311C52.0372 27.7784 51.1275 28.0152 50.166 28.0152C49.2591 28.0152 48.3947 27.803 47.5966 27.3825H47.5959C46.7 26.9146 45.9496 26.2098 45.4265 25.3449C44.9033 24.48 44.6274 23.4882 44.6289 22.4774V20.8932ZM38.0622 41.038C38.0622 37.6644 40.8059 34.9189 44.1785 34.9189H45.3489C46.0906 36.9126 48.018 38.3443 50.255 38.3443C52.492 38.3443 54.4185 36.9126 55.1592 34.9189H55.6596C59.0325 34.9189 61.7768 37.6644 61.7768 41.038V45.6682H58.0326V43.7108C58.0326 43.4801 57.9872 43.2516 57.899 43.0385C57.8107 42.8254 57.6813 42.6317 57.5182 42.4686C57.3551 42.3055 57.1614 42.1761 56.9483 42.0878C56.7351 41.9995 56.5067 41.9541 56.276 41.9542C56.0453 41.9541 55.8168 41.9995 55.6036 42.0877C55.3904 42.176 55.1966 42.3053 55.0334 42.4685C54.8702 42.6316 54.7407 42.8252 54.6524 43.0384C54.564 43.2516 54.5185 43.48 54.5185 43.7108V45.6682H45.4152V43.7108C45.4152 42.7402 44.6289 41.9542 43.6583 41.9542C42.6878 41.9542 41.9017 42.7402 41.9017 43.7108V45.6682H38.0622V41.038ZM36.961 55.327C37.1917 55.327 37.4202 55.2816 37.6334 55.1934C37.8466 55.1051 38.0404 54.9758 38.2036 54.8127C38.3668 54.6495 38.4963 54.4559 38.5846 54.2427C38.673 54.0296 38.7185 53.8011 38.7185 53.5704C38.7185 53.3396 38.673 53.1111 38.5847 52.8979C38.4963 52.6847 38.3669 52.491 38.2037 52.3279C38.0404 52.1648 37.8467 52.0354 37.6335 51.9471C37.4203 51.8588 37.1918 51.8135 36.961 51.8135H28.0283C27.9559 51.8134 27.8864 51.7847 27.8352 51.7335C27.7839 51.6823 27.7551 51.6129 27.755 51.5404V49.4556C27.755 49.3053 27.8777 49.1816 28.0283 49.1816H36.2847C36.2916 49.1816 36.2981 49.1826 36.3056 49.1826C36.313 49.1826 36.3191 49.1816 36.3265 49.1816H43.6383C43.6455 49.1816 43.652 49.1826 43.6593 49.1826C43.6655 49.1826 43.672 49.1816 43.6792 49.1816H56.256C56.2625 49.1816 56.2697 49.1826 56.276 49.1826C56.2832 49.1826 56.2897 49.1816 56.2969 49.1816H63.5135C63.52 49.1816 63.5274 49.1826 63.5337 49.1826C63.5409 49.1826 63.5472 49.1816 63.5546 49.1816H66.8519C66.8538 49.1816 66.8565 49.1826 66.8582 49.1826C66.86 49.1826 66.8619 49.1816 66.8638 49.1816H71.7082C71.7808 49.1819 71.8502 49.211 71.9014 49.2624C71.9526 49.3138 71.9813 49.3833 71.9813 49.4559V51.5404C71.9813 51.691 71.8589 51.8135 71.7082 51.8135H67.2533C67.1235 51.7833 66.9907 51.7678 66.8575 51.7673C66.7213 51.7673 66.5886 51.7835 66.4614 51.8137H45.4231C44.9632 51.8229 44.5253 52.012 44.2033 52.3405C43.8813 52.6689 43.701 53.1105 43.701 53.5705C43.701 54.0304 43.8813 54.472 44.2033 54.8005C44.5253 55.1289 44.9632 55.318 45.4231 55.3272H65.1006V81.4395C62.2935 81.7246 59.8975 83.5231 58.8045 86.0443C57.86 85.7758 56.883 85.6386 55.9011 85.6367H55.0739V83.5377C57.7604 81.6784 59.3936 78.617 59.3936 75.3078V67.4435C59.3927 65.243 58.6211 63.4127 57.2875 62.157C55.8802 60.6653 53.8872 59.7322 51.6793 59.7322H47.0927C42.8395 59.7322 39.3788 63.1929 39.3788 67.4463V75.3076C39.3788 78.617 41.0127 81.6782 43.6983 83.5375V85.6367H42.8721C41.5903 85.6367 40.3364 85.8644 39.159 86.3037C38.7611 85.2877 38.1524 84.3675 37.3731 83.6038C36.5938 82.84 35.6616 82.25 34.6378 81.8727V55.3272L36.961 55.327ZM38.6251 123.985V120.988C38.6251 120.017 37.8379 119.231 36.8673 119.231C35.8968 119.231 35.1107 120.017 35.1107 120.988V123.985H24.3549V120.988C24.355 120.757 24.3096 120.528 24.2213 120.315C24.133 120.102 24.0036 119.908 23.8405 119.745C23.6774 119.582 23.4837 119.453 23.2706 119.365C23.0575 119.276 22.829 119.231 22.5983 119.231C22.3676 119.231 22.1392 119.276 21.926 119.364C21.7128 119.453 21.5192 119.582 21.356 119.745C21.1929 119.908 21.0635 120.102 20.9752 120.315C20.8869 120.528 20.8415 120.757 20.8415 120.988V123.985H16.4521C16.2243 123.985 16.0398 123.8 16.0398 123.572V117.944C16.0398 114.012 19.2364 110.815 23.1657 110.815H24.4005C25.055 112.164 26.436 113.099 28.0339 113.099H31.3811C31.3955 113.099 31.4102 113.098 31.4246 113.098C33.0027 113.059 34.3326 112.141 34.9664 110.815H36.1929C37.955 110.813 39.6551 111.466 40.9637 112.646C42.4618 113.999 43.3216 115.93 43.3216 117.944V123.572C43.3216 123.8 43.1356 123.985 42.9067 123.985L38.6251 123.985ZM77.1219 123.985V120.988C77.1219 120.757 77.0764 120.528 76.988 120.315C76.8996 120.102 76.7701 119.908 76.6069 119.745C76.4437 119.582 76.2499 119.453 76.0367 119.364C75.8234 119.276 75.5949 119.231 75.3642 119.231C74.8983 119.231 74.4515 119.416 74.122 119.745C73.7926 120.075 73.6075 120.522 73.6073 120.988V123.985H62.8518V120.988C62.8518 120.757 62.8064 120.528 62.7181 120.315C62.6299 120.102 62.5005 119.908 62.3373 119.745C62.1742 119.582 61.9806 119.453 61.7674 119.365C61.5543 119.276 61.3259 119.231 61.0952 119.231C60.8645 119.231 60.636 119.276 60.4228 119.364C60.2097 119.453 60.016 119.582 59.8528 119.745C59.6897 119.908 59.5603 120.102 59.472 120.315C59.3837 120.528 59.3383 120.757 59.3383 120.988V123.985H54.9505C54.8407 123.986 54.7354 123.942 54.6576 123.865C54.5798 123.787 54.536 123.682 54.5357 123.572V117.944C54.5357 114.012 57.7323 110.815 61.6616 110.815H62.8964C63.5518 112.164 64.9317 113.099 66.5295 113.099H69.8233C71.4212 113.099 72.8013 112.164 73.4567 110.815H74.6915C78.6208 110.815 81.8175 114.012 81.8175 117.944C81.8266 118.403 82.0157 118.841 82.3442 119.163C82.6726 119.485 83.1142 119.666 83.5742 119.666C84.0341 119.666 84.4757 119.485 84.8042 119.163C85.1326 118.841 85.3217 118.403 85.3309 117.944C85.3309 112.075 80.5582 107.301 74.6915 107.301H73.8644V105.204C76.5509 103.345 78.1841 100.283 78.1841 96.9742V89.7112C79.0617 89.3405 80.0048 89.1498 80.9575 89.1501H82.1923C82.8478 90.4993 84.2278 91.4343 85.8257 91.4343H89.1167C90.7155 91.4343 92.0954 90.4993 92.7501 89.1501H93.9847C94.9081 89.1501 95.8185 89.3298 96.6649 89.6731V96.9742C96.6649 100.286 98.2988 103.348 100.987 105.205V107.3H100.16C94.2917 107.3 89.5179 112.075 89.5179 117.944V123.572C89.5179 123.711 89.5253 123.849 89.5397 123.985H77.1217L77.1219 123.985ZM120.314 123.572C120.314 123.8 120.129 123.985 119.901 123.985H115.619V120.988C115.618 120.522 115.433 120.075 115.104 119.746C114.774 119.416 114.328 119.231 113.862 119.231C113.631 119.231 113.403 119.276 113.189 119.364C112.976 119.453 112.782 119.582 112.619 119.745C112.456 119.908 112.326 120.102 112.238 120.315C112.15 120.528 112.104 120.757 112.104 120.988V123.985H101.349V120.988C101.349 120.017 100.562 119.231 99.5918 119.231C98.6212 119.231 97.8352 120.017 97.8352 120.988V123.985H93.4455C93.3358 123.986 93.2306 123.942 93.153 123.865C93.0754 123.787 93.0317 123.682 93.0316 123.572V117.944C93.0316 114.012 96.2291 110.815 100.159 110.815H101.394C102.049 112.164 103.429 113.099 105.027 113.099H108.319C109.917 113.099 111.297 112.164 111.953 110.815H113.187C117.117 110.815 120.313 114.012 120.313 117.944V123.572H120.314ZM119.542 11.4555H83.3698C81.0065 11.4555 79.0847 13.3776 79.0847 15.7408V31.1349C79.0847 33.4981 81.0068 35.42 83.3698 35.42H84.9404V38.2608C84.9404 39.1905 85.4959 40.0211 86.3549 40.377C86.7734 40.5511 87.2342 40.5969 87.6788 40.5085C88.1234 40.42 88.5316 40.2014 88.8515 39.8803L93.3121 35.4202H98.4452C98.9113 35.4202 99.3583 35.2351 99.6879 34.9055C100.017 34.576 100.203 34.129 100.203 33.6629C100.203 33.1969 100.017 32.7499 99.6879 32.4203C99.3583 32.0908 98.9113 31.9056 98.4452 31.9056H93.2577C92.8132 31.9045 92.3728 31.9915 91.9621 32.1617C91.5515 32.3319 91.1786 32.5819 90.8652 32.8971L88.455 35.3073V35.2894C88.455 33.4235 86.9378 31.9065 85.0722 31.9065H83.3709C83.1663 31.9063 82.9702 31.8249 82.8255 31.6803C82.6808 31.5356 82.5994 31.3395 82.5991 31.1349V15.7408C82.5994 15.5362 82.6808 15.3401 82.8254 15.1955C82.9701 15.0509 83.1661 14.9695 83.3707 14.9692H119.542C119.747 14.9694 119.943 15.0508 120.088 15.1954C120.233 15.34 120.314 15.5361 120.315 15.7408V31.1349C120.314 31.3394 120.233 31.5354 120.088 31.68C119.944 31.8246 119.748 31.9061 119.543 31.9065H106.673C105.703 31.9065 104.916 32.6928 104.916 33.6634C104.916 34.634 105.703 35.42 106.673 35.42H119.543C121.907 35.42 123.829 33.4979 123.829 31.1349V15.7408C123.828 13.3785 121.906 11.4557 119.542 11.4557V11.4555Z" fill="white"/>
<path d="M88.3953 21.7729H114.516C114.747 21.7729 114.975 21.7274 115.188 21.639C115.402 21.5507 115.595 21.4212 115.759 21.258C115.922 21.0947 116.051 20.901 116.139 20.6877C116.228 20.4745 116.273 20.2459 116.273 20.0151C116.273 19.5492 116.088 19.1024 115.758 18.7729C115.429 18.4435 114.982 18.2584 114.516 18.2583H88.3953C87.9294 18.2584 87.4826 18.4436 87.1531 18.7731C86.8237 19.1026 86.6387 19.5495 86.6387 20.0154C86.6386 20.2461 86.684 20.4746 86.7722 20.6878C86.8605 20.901 86.9899 21.0947 87.153 21.258C87.3161 21.4212 87.5098 21.5506 87.7229 21.639C87.9361 21.7273 88.1645 21.7729 88.3953 21.7729ZM88.3953 28.275H100.909C101.879 28.275 102.666 27.4888 102.666 26.5184C102.666 25.5481 101.879 24.7613 100.909 24.7613H88.3953C87.4249 24.7613 86.6387 25.5478 86.6387 26.5184C86.6387 27.489 87.4249 28.275 88.3953 28.275Z" fill="white"/>
</svg>
