<svg width="110" height="111" viewBox="0 0 110 111" fill="none" xmlns="http://www.w3.org/2000/svg">
<rect y="6" width="105" height="105" rx="30" fill="white"/>
<rect x="76" width="34" height="34" rx="17" fill="#FF9D00"/>
<path d="M38.3721 43.8493C37.3383 42.8335 35.938 42.2613 34.4769 42.2577C33.0158 42.2541 31.6126 42.8195 30.5737 43.8303C25.4141 48.8799 24.1838 56.9109 28.4928 62.9766C34.1464 70.9333 39.9822 76.7359 47.4725 81.7799C53.595 85.905 61.7616 84.4677 66.8727 79.4657C67.3904 78.957 67.8008 78.3527 68.0801 77.6874C68.3595 77.0221 68.5024 76.309 68.5006 75.5892C68.4988 74.8693 68.3524 74.157 68.0696 73.493C67.7869 72.8291 67.3736 72.2267 66.8533 71.7206L62.2033 67.1704C61.1922 66.1769 59.8331 65.6017 58.4046 65.5627C56.9762 65.5237 55.5867 66.0239 54.5211 66.9607L52.262 68.9623C52.0136 69.1892 51.6977 69.3318 51.3607 69.3688C51.0238 69.4059 50.6836 69.3355 50.3904 69.1681C46.0349 66.5756 43.6285 64.1966 41.0207 60.0029C40.8527 59.7205 40.7827 59.3921 40.8212 59.0671C40.8596 58.7422 41.0044 58.4383 41.2338 58.2015L43.2759 55.9902C44.2359 54.9474 44.7496 53.5802 44.7098 52.1737C44.6701 50.7673 44.0801 49.4303 43.0628 48.4415L38.3721 43.8493Z" fill="#3483B4"/>
<path d="M69.9404 32.5939H55.8213C51.5855 32.5939 48.7617 34.6776 48.7617 39.5396V49.2636C48.7617 54.1256 51.5855 56.2093 55.8213 56.2093H69.9404C74.1762 56.2093 77 54.1256 77 49.2636V39.5396C77 34.6776 74.1762 32.5939 69.9404 32.5939ZM70.6012 41.0468L66.1876 44.5197C65.2362 45.2303 64.0746 45.6149 62.8802 45.6149C61.6857 45.6149 60.5241 45.2303 59.5727 44.5197L55.1605 41.0468C54.9562 40.8698 54.829 40.6222 54.8054 40.3554C54.7817 40.0886 54.8634 39.8231 55.0334 39.614C55.2034 39.4049 55.4488 39.2682 55.7186 39.2324C55.9883 39.1965 56.2617 39.2642 56.4821 39.4215L60.8957 42.8944C61.4724 43.3069 62.1671 43.5291 62.8802 43.5291C63.5932 43.5291 64.2879 43.3069 64.8646 42.8944L69.2797 39.4215C69.3872 39.3284 69.5128 39.2576 69.6489 39.2136C69.785 39.1697 69.9288 39.1533 70.0715 39.1655C70.2142 39.1778 70.3529 39.2184 70.4793 39.285C70.6056 39.3515 70.7168 39.4425 70.8063 39.5526C70.8958 39.6627 70.9617 39.7895 70.9999 39.9253C71.0382 40.0612 71.048 40.2032 71.0288 40.3429C71.0097 40.4826 70.9619 40.617 70.8884 40.738C70.8149 40.859 70.7172 40.964 70.6012 41.0468Z" fill="#3483B4"/>
<path d="M96.1494 8.32422V26H92.4629V11.8154H92.3652L88.3125 14.3545V11.1074L92.6826 8.32422H96.1494Z" fill="white"/>
</svg>
