<svg width="420" height="221" viewBox="0 0 420 221" fill="none" xmlns="http://www.w3.org/2000/svg">
<g clip-path="url(#clip0_283_339)">
<path d="M36.5248 173.612C37.1783 172.305 37.9073 170.998 40.6976 170.998C43.4879 170.998 45.7251 172.38 45.7251 174.593V217.279C45.7251 219.366 44.4934 220.623 41.8037 220.623C39.315 220.623 37.7565 219.441 37.7565 217.279V186.81L27.4249 205.439C26.5703 207.073 24.8106 207.601 22.9253 207.601C21.04 207.601 19.1295 207.148 18.2245 205.439L7.89297 185.905V217.279C7.89297 219.441 6.38471 220.623 3.89608 220.623C1.20635 220.623 -0.0253906 219.391 -0.0253906 217.279V174.593C-0.0253906 172.305 2.06103 170.998 4.80104 170.998C7.54104 170.998 8.39573 172.305 9.12472 173.612L23.051 197.47L36.5248 173.612Z" fill="#3483B4"/>
<path d="M62.5415 205.891C62.5415 210.869 65.734 212.629 70.2587 212.629C74.3813 212.629 77.9006 210.014 77.9006 205.64V186.358C77.9006 184.07 79.6602 183.341 81.7467 183.341C83.8331 183.341 85.5927 184.07 85.5927 186.358V210.291C85.5927 212.176 86.6988 213.358 87.8048 214.087C88.8606 214.866 89.0366 215.645 89.0366 216.701C89.0366 218.411 87.5283 220.17 85.0397 220.17C82.0986 220.17 79.5597 217.028 79.1575 215.846C76.9454 218.712 73.8032 220.095 67.9712 220.095C62.1393 220.095 54.8242 216.902 54.8242 207.098V186.383C54.8242 184.095 56.6593 183.366 58.7457 183.366C60.8321 183.366 62.4661 184.095 62.4661 186.383V205.916L62.5415 205.891Z" fill="#3483B4"/>
<path d="M101.104 169.163C103.844 169.163 106.006 171.249 106.006 173.989C106.006 176.73 103.844 178.69 101.104 178.69C98.3638 178.69 96.2773 176.654 96.2773 173.989C96.2773 171.325 98.3135 169.163 101.104 169.163ZM97.1069 186.408C97.1069 184.523 98.4895 183.266 101.028 183.266C103.567 183.266 105.076 184.498 105.076 186.408V217.38C105.076 219.265 103.643 220.573 101.079 220.573C98.5146 220.573 97.0817 219.265 97.0817 217.38V186.408H97.1069Z" fill="#3483B4"/>
<path d="M118.549 200.21C115.734 200.21 114.502 198.45 114.502 195.76C114.502 193.07 115.734 191.436 118.549 191.436H148.362C151.178 191.436 152.41 193.07 152.41 195.76C152.41 198.45 151.178 200.21 148.362 200.21H118.549Z" fill="#3483B4"/>
<path d="M185.29 185.956C186.195 186.484 186.999 187.514 186.999 189.148C186.999 190.657 185.617 192.743 183.731 192.743C183.203 192.743 182.625 192.668 181.896 192.341C180.262 191.436 178.754 190.833 176.014 190.833C171.188 190.833 166.613 192.995 166.613 201.819C166.613 210.643 171.188 213.458 176.818 213.458C179.232 213.458 180.941 212.88 182.575 211.698C183.354 211.171 184.008 211.045 184.661 211.045C186.823 211.045 188.055 213.458 188.055 214.841C188.055 216.022 187.854 216.802 186.421 217.983C184.209 219.869 180.941 221 176.542 221C166.663 221 158.971 215.52 158.971 201.718C158.971 187.917 166.613 183.165 175.511 183.165C180.614 183.165 183.279 184.473 185.315 185.981L185.29 185.956Z" fill="#3483B4"/>
<path d="M203.061 186.282V187.338C204.369 185.176 208.416 183.542 211.885 183.542C214.826 183.542 217.641 184.07 219.527 185.176C220.758 185.956 221.161 186.936 221.161 188.52C221.161 190.229 220.055 192.442 217.893 192.442C216.586 192.442 215.605 191.537 211.608 191.537C208.089 191.537 204.167 193.699 203.036 196.64V217.807C203.036 220.019 201.277 220.824 199.19 220.824C196.978 220.824 195.193 220.045 195.193 217.807V186.308C195.193 184.146 196.953 183.366 199.19 183.366C200.95 183.366 203.036 184.146 203.036 186.308L203.061 186.282Z" fill="#3483B4"/>
<path d="M237.248 205.69C235.74 205.69 234.182 204.383 234.182 201.894C234.182 199.405 235.74 198.299 237.248 198.299H250.898C250.496 193.322 247.756 190.707 242.653 190.707C237.55 190.707 232.724 193.196 232.724 201.944C232.724 210.693 237.374 213.584 243.583 213.584C246.851 213.584 249.264 212.528 251.3 211.296C252.029 210.844 252.733 210.567 253.512 210.567C255.348 210.567 256.906 212.076 256.906 214.087C256.906 215.52 256.504 216.299 255.523 217.103C253.814 218.536 250.094 220.95 243.558 220.95C230.361 220.95 225.057 212.779 225.057 201.919C225.057 191.059 230.537 183.09 242.502 183.09C251.451 183.09 258.062 189.174 258.062 200.084C258.062 202.95 256.881 205.64 253.161 205.64H237.223L237.248 205.69Z" fill="#3483B4"/>
<path d="M285.689 216.148C285.689 217.531 284.96 218.511 283.93 219.165C282.371 220.145 278.827 221 275.885 221C269.023 221 263.342 217.33 263.342 208.983C263.342 200.637 269.299 195.911 279.354 195.911C281.969 195.911 285.111 196.363 286.016 196.64V196.439C286.016 191.939 282.22 190.556 278.248 190.556C275.508 190.556 273.221 191.411 271.26 192.115C270.355 192.366 269.953 192.643 269.048 192.643C267.012 192.643 265.654 190.481 265.654 188.394C265.654 187.012 266.182 185.981 267.691 185.252C270.431 183.743 274.754 182.964 278.676 182.964C287.373 182.964 293.507 187.087 293.507 195.383V209.964C293.507 212.327 294.688 213.307 295.795 214.137C296.699 214.916 296.976 215.645 296.976 216.55C296.976 218.436 295.267 220.145 293.18 220.145C292.074 220.145 291.018 219.894 290.113 219.24C287.901 217.682 286.267 215.52 286.267 212.126V204.081C285.815 203.88 283.251 203.352 280.787 203.352C273.598 203.352 271.059 205.238 271.059 209.109C271.059 212.05 272.894 213.81 276.087 213.81C278.047 213.81 279.43 213.559 281.064 212.905C281.717 212.654 282.245 212.377 282.773 212.377C284.533 212.377 285.79 214.212 285.79 216.173L285.689 216.148Z" fill="#3483B4"/>
<path d="M301.677 192.039C300.244 192.039 298.861 190.808 298.861 188.369C298.861 185.83 300.244 184.648 301.802 184.648H307.031V177.383C307.031 175.498 308.414 174.241 310.953 174.241C313.491 174.241 314.673 175.473 314.673 177.383V184.648H322.717C324.426 184.648 326.06 185.83 326.06 188.369C326.06 190.732 324.426 192.039 322.717 192.039H314.673V208.631C314.673 211.497 316.307 213.081 319.122 213.081C321.083 213.081 322.315 212.226 323.245 212.226C325.331 212.226 326.513 213.86 326.513 216.022C326.513 218.31 325.281 219.089 323.773 219.693C322.34 220.271 320.379 220.673 318.62 220.673C312.209 220.673 307.056 218.637 307.056 209.813V192.039H301.702H301.677Z" fill="#3483B4"/>
<path d="M338.553 169.163C341.293 169.163 343.455 171.249 343.455 173.989C343.455 176.73 341.293 178.69 338.553 178.69C335.813 178.69 333.727 176.654 333.727 173.989C333.727 171.325 335.763 169.163 338.553 169.163ZM334.556 186.408C334.556 184.523 335.939 183.266 338.478 183.266C341.016 183.266 342.525 184.498 342.525 186.408V217.38C342.525 219.265 341.092 220.573 338.528 220.573C335.964 220.573 334.531 219.265 334.531 217.38V186.408H334.556Z" fill="#3483B4"/>
<path d="M357.634 185.428L366.859 211.372L376.135 185.151C376.663 183.844 377.568 183.266 379.202 183.266C381.891 183.266 383.701 184.774 383.701 186.936C383.701 187.514 383.576 188.168 383.299 188.771L371.861 217.933C371.208 219.567 370.026 220.799 366.758 220.799C363.817 220.799 362.435 219.617 361.781 217.933L350.344 188.771C350.092 188.193 349.941 187.539 349.941 186.936C349.941 184.85 351.45 183.341 354.265 183.341C356.301 183.341 357.08 184.07 357.608 185.428H357.634Z" fill="#3483B4"/>
<path d="M399.135 205.69C397.627 205.69 396.068 204.383 396.068 201.894C396.068 199.405 397.627 198.299 399.135 198.299H412.785C412.383 193.322 409.643 190.707 404.54 190.707C399.437 190.707 394.61 193.196 394.61 201.944C394.61 210.693 399.261 213.584 405.47 213.584C408.738 213.584 411.151 212.528 413.187 211.296C413.916 210.844 414.62 210.567 415.399 210.567C417.234 210.567 418.793 212.076 418.793 214.087C418.793 215.52 418.391 216.299 417.41 217.103C415.701 218.536 411.98 220.95 405.445 220.95C392.247 220.95 386.943 212.779 386.943 201.919C386.943 191.059 392.423 183.09 404.389 183.09C413.338 183.09 419.949 189.174 419.949 200.084C419.949 202.95 418.768 205.64 415.047 205.64H399.11L399.135 205.69Z" fill="#3483B4"/>
<path d="M263.216 37.8096C262.135 37.7845 261.029 37.8096 259.923 37.8599C249.516 15.2093 227.294 0.527946 202.056 2.00263e-05C175.159 -0.502767 150.323 15.8881 140.293 40.8515C138.935 44.195 140.569 48.0162 143.912 49.3486C147.256 50.7061 151.077 49.072 152.409 45.7285C160.428 25.7678 180.236 12.5697 201.779 13.0725C223.096 13.4998 241.698 26.5472 249.34 46.4072C249.692 47.7899 250.496 49.0217 251.627 49.9268C253.035 51.058 254.845 51.5608 256.655 51.2591C258.716 50.9575 260.828 50.7815 262.939 50.8569C283.351 51.2591 299.64 68.2031 299.238 88.6413C298.836 108.828 282.295 124.943 262.21 124.943C261.959 124.943 261.708 124.943 261.456 124.943C252.583 124.767 245.645 121.121 236.67 114.862L231.743 111.518C223.725 105.988 213.468 104.881 204.469 108.577L229.205 125.596C237.626 131.454 247.731 137.764 261.18 138.015C261.506 138.015 261.858 138.015 262.185 138.015C289.359 138.015 311.757 116.169 312.284 88.8927C312.838 61.2646 290.792 38.3124 263.165 37.7593L263.216 37.8096Z" fill="#3483B4"/>
<path d="M248.962 68.5299C252.433 68.5299 255.247 65.7161 255.247 62.245C255.247 58.774 252.433 55.9602 248.962 55.9602C245.491 55.9602 242.678 58.774 242.678 62.245C242.678 65.7161 245.491 68.5299 248.962 68.5299Z" fill="#E88D23"/>
<path d="M200.347 89.7475L159.096 61.2395C158.92 61.1138 158.744 61.1138 158.568 61.0132C140.821 49.5497 117.267 53.0441 103.517 69.2589C90.5958 84.5185 90.2691 106.943 102.737 122.579C107.061 128.01 112.667 132.308 118.951 135.049C123.979 137.236 129.358 138.317 134.788 138.317C142.631 138.317 150.549 136.079 157.613 131.68L199.97 105.384L212.086 97.8675L248.033 75.5438C242.151 70.0885 233.378 69.2589 226.565 73.4824L200.322 89.7727L200.347 89.7475ZM150.7 120.568C142.379 125.747 132.45 126.652 124.155 123.057C119.781 121.147 116.01 118.256 112.968 114.434C104.522 103.851 104.748 88.0632 113.496 77.7309C123.074 66.4433 139.514 64.0551 151.781 72.1751C151.856 72.2254 151.957 72.2254 152.032 72.2757L188.231 97.2893L150.7 120.593V120.568Z" fill="#3483B4"/>
</g>
<defs>
<clipPath id="clip0_283_339">
<rect width="420" height="221" fill="white"/>
</clipPath>
</defs>
</svg>
