<svg width="116" height="62" viewBox="0 0 116 62" fill="none" xmlns="http://www.w3.org/2000/svg">
<g clip-path="url(#clip0_200_177)">
<path d="M10.088 47.9501C10.2685 47.5891 10.4698 47.228 11.2405 47.228C12.0111 47.228 12.629 47.6099 12.629 48.2209V60.0105C12.629 60.5868 12.2888 60.934 11.546 60.934C10.8586 60.934 10.4282 60.6077 10.4282 60.0105V51.5953L7.57468 56.7403C7.33863 57.1916 6.85263 57.3374 6.33192 57.3374C5.81122 57.3374 5.28356 57.2124 5.03362 56.7403L2.18014 51.3454V60.0105C2.18014 60.6077 1.76357 60.934 1.07624 60.934C0.33336 60.934 -0.00683594 60.5938 -0.00683594 60.0105V48.2209C-0.00683594 47.5891 0.569415 47.228 1.32618 47.228C2.08294 47.228 2.319 47.5891 2.52034 47.9501L6.36664 54.5393L10.088 47.9501Z" fill="#969696"/>
<path d="M17.2735 56.8653C17.2735 58.2401 18.1553 58.7261 19.405 58.7261C20.5436 58.7261 21.5156 58.004 21.5156 56.7959V51.4704C21.5156 50.8386 22.0016 50.6372 22.5778 50.6372C23.1541 50.6372 23.6401 50.8386 23.6401 51.4704V58.0804C23.6401 58.6011 23.9455 58.9274 24.251 59.1288C24.5426 59.344 24.5912 59.5593 24.5912 59.8509C24.5912 60.323 24.1747 60.8091 23.4873 60.8091C22.675 60.8091 21.9738 59.9412 21.8627 59.6148C21.2517 60.4064 20.3839 60.7882 18.7732 60.7882C17.1624 60.7882 15.1421 59.9064 15.1421 57.1986V51.4773C15.1421 50.8455 15.6489 50.6442 16.2252 50.6442C16.8014 50.6442 17.2527 50.8455 17.2527 51.4773V56.8722L17.2735 56.8653Z" fill="#969696"/>
<path d="M27.9238 46.7212C28.6806 46.7212 29.2777 47.2975 29.2777 48.0543C29.2777 48.8111 28.6806 49.3527 27.9238 49.3527C27.1671 49.3527 26.5908 48.7903 26.5908 48.0543C26.5908 47.3183 27.1532 46.7212 27.9238 46.7212ZM26.8199 51.4843C26.8199 50.9635 27.2018 50.6164 27.903 50.6164C28.6042 50.6164 29.0208 50.9566 29.0208 51.4843V60.0383C29.0208 60.5591 28.6251 60.9201 27.9169 60.9201C27.2087 60.9201 26.813 60.5591 26.813 60.0383V51.4843H26.8199Z" fill="#969696"/>
<path d="M32.7423 55.2962C31.9647 55.2962 31.6245 54.8102 31.6245 54.0673C31.6245 53.3244 31.9647 52.873 32.7423 52.873H40.9764C41.754 52.873 42.0942 53.3244 42.0942 54.0673C42.0942 54.8102 41.754 55.2962 40.9764 55.2962H32.7423Z" fill="#969696"/>
<path d="M51.1753 51.3591C51.4253 51.5049 51.6475 51.7896 51.6475 52.2409C51.6475 52.6575 51.2656 53.2338 50.7449 53.2338C50.5991 53.2338 50.4394 53.2129 50.2381 53.1227C49.7868 52.8727 49.3702 52.7061 48.6135 52.7061C47.2804 52.7061 46.0169 53.3032 46.0169 55.7403C46.0169 58.1773 47.2804 58.955 48.8356 58.955C49.5021 58.955 49.9742 58.7953 50.4255 58.469C50.6407 58.3232 50.8213 58.2884 51.0018 58.2884C51.5989 58.2884 51.939 58.955 51.939 59.3369C51.939 59.6632 51.8835 59.8784 51.4878 60.2048C50.8768 60.7255 49.9742 61.038 48.7593 61.038C46.0307 61.038 43.9062 59.5243 43.9062 55.7125C43.9062 51.9007 46.0169 50.5884 48.4746 50.5884C49.884 50.5884 50.6199 50.9494 51.1823 51.366L51.1753 51.3591Z" fill="#969696"/>
<path d="M56.0837 51.4495V51.7411C56.4448 51.144 57.5625 50.6926 58.5207 50.6926C59.333 50.6926 60.1105 50.8385 60.6313 51.144C60.9715 51.3592 61.0825 51.63 61.0825 52.0674C61.0825 52.5395 60.7771 53.1506 60.18 53.1506C59.819 53.1506 59.5482 52.9006 58.4443 52.9006C57.4723 52.9006 56.3892 53.4977 56.0768 54.3101V60.1563C56.0768 60.7673 55.5908 60.9895 55.0145 60.9895C54.4036 60.9895 53.9106 60.7742 53.9106 60.1563V51.4564C53.9106 50.8593 54.3966 50.644 55.0145 50.644C55.5005 50.644 56.0768 50.8593 56.0768 51.4564L56.0837 51.4495Z" fill="#969696"/>
<path d="M65.5259 56.8098C65.1094 56.8098 64.6789 56.4488 64.6789 55.7614C64.6789 55.074 65.1094 54.7685 65.5259 54.7685H69.2959C69.1848 53.3938 68.428 52.6717 67.0186 52.6717C65.6093 52.6717 64.2762 53.3591 64.2762 55.7753C64.2762 58.1916 65.5607 58.99 67.2755 58.99C68.1781 58.99 68.8446 58.6984 69.407 58.3582C69.6083 58.2332 69.8027 58.1568 70.0179 58.1568C70.5247 58.1568 70.9552 58.5734 70.9552 59.1289C70.9552 59.5247 70.8441 59.7399 70.5733 59.9621C70.1012 60.3578 69.0737 61.0244 67.2686 61.0244C63.6236 61.0244 62.1587 58.7678 62.1587 55.7684C62.1587 52.7689 63.6722 50.5679 66.977 50.5679C69.4486 50.5679 71.2746 52.2481 71.2746 55.2615C71.2746 56.053 70.9483 56.796 69.9207 56.796H65.519L65.5259 56.8098Z" fill="#969696"/>
<path d="M78.9046 59.6978C78.9046 60.0797 78.7032 60.3505 78.4186 60.531C77.9881 60.8018 77.0092 61.0379 76.1969 61.0379C74.3015 61.0379 72.7324 60.0241 72.7324 57.719C72.7324 55.4138 74.3779 54.1085 77.155 54.1085C77.877 54.1085 78.7449 54.2335 78.9948 54.3098V54.2543C78.9948 53.0115 77.9465 52.6296 76.8495 52.6296C76.0927 52.6296 75.4609 52.8656 74.9194 53.0601C74.6695 53.1295 74.5584 53.2059 74.3084 53.2059C73.7461 53.2059 73.3712 52.6087 73.3712 52.0325C73.3712 51.6506 73.517 51.3659 73.9335 51.1646C74.6903 50.748 75.8844 50.5327 76.9675 50.5327C79.3697 50.5327 81.0638 51.6714 81.0638 53.9627V57.9898C81.0638 58.6424 81.3901 58.9132 81.6956 59.1423C81.9455 59.3576 82.0219 59.5589 82.0219 59.8089C82.0219 60.3296 81.5498 60.8018 80.9735 60.8018C80.668 60.8018 80.3764 60.7323 80.1265 60.5518C79.5155 60.1213 79.0642 59.5242 79.0642 58.5869V56.365C78.9393 56.3095 78.2311 56.1637 77.5507 56.1637C75.5651 56.1637 74.8639 56.6844 74.8639 57.7537C74.8639 58.5661 75.3707 59.0521 76.2524 59.0521C76.7939 59.0521 77.1758 58.9827 77.6271 58.8021C77.8076 58.7327 77.9534 58.6563 78.0992 58.6563C78.5852 58.6563 78.9323 59.1632 78.9323 59.7047L78.9046 59.6978Z" fill="#969696"/>
<path d="M83.3206 53.0394C82.9248 53.0394 82.543 52.6991 82.543 52.0256C82.543 51.3244 82.9248 50.998 83.3553 50.998H84.7994V48.9914C84.7994 48.4707 85.1812 48.1235 85.8824 48.1235C86.5837 48.1235 86.91 48.4638 86.91 48.9914V50.998H89.1317C89.6038 50.998 90.0551 51.3244 90.0551 52.0256C90.0551 52.6783 89.6038 53.0394 89.1317 53.0394H86.91V57.6219C86.91 58.4134 87.3613 58.8509 88.1388 58.8509C88.6804 58.8509 89.0206 58.6148 89.2775 58.6148C89.8537 58.6148 90.18 59.0661 90.18 59.6632C90.18 60.2951 89.8398 60.5103 89.4233 60.6769C89.0275 60.8366 88.486 60.9477 88 60.9477C86.2296 60.9477 84.8063 60.3853 84.8063 57.9482V53.0394H83.3275H83.3206Z" fill="#969696"/>
<path d="M93.5054 46.7212C94.2621 46.7212 94.8592 47.2975 94.8592 48.0543C94.8592 48.8111 94.2621 49.3527 93.5054 49.3527C92.7486 49.3527 92.1724 48.7903 92.1724 48.0543C92.1724 47.3183 92.7347 46.7212 93.5054 46.7212ZM92.4015 51.4843C92.4015 50.9635 92.7833 50.6164 93.4845 50.6164C94.1858 50.6164 94.6023 50.9566 94.6023 51.4843V60.0383C94.6023 60.5591 94.2066 60.9201 93.4984 60.9201C92.7903 60.9201 92.3945 60.5591 92.3945 60.0383V51.4843H92.4015Z" fill="#969696"/>
<path d="M98.7749 51.2133L101.323 58.3788L103.885 51.137C104.031 50.7759 104.281 50.6162 104.732 50.6162C105.475 50.6162 105.975 51.0328 105.975 51.6299C105.975 51.7896 105.94 51.9701 105.863 52.1368L102.704 60.191C102.524 60.6423 102.198 60.9825 101.295 60.9825C100.483 60.9825 100.101 60.6561 99.9204 60.191L96.7615 52.1368C96.692 51.9771 96.6504 51.7966 96.6504 51.6299C96.6504 51.0536 97.0669 50.637 97.8445 50.637C98.4069 50.637 98.6221 50.8384 98.7679 51.2133H98.7749Z" fill="#969696"/>
<path d="M110.237 56.8098C109.821 56.8098 109.39 56.4488 109.39 55.7614C109.39 55.074 109.821 54.7685 110.237 54.7685H114.007C113.896 53.3938 113.139 52.6717 111.73 52.6717C110.321 52.6717 108.988 53.3591 108.988 55.7753C108.988 58.1916 110.272 58.99 111.987 58.99C112.89 58.99 113.556 58.6984 114.118 58.3582C114.32 58.2332 114.514 58.1568 114.729 58.1568C115.236 58.1568 115.667 58.5734 115.667 59.1289C115.667 59.5247 115.556 59.7399 115.285 59.9621C114.813 60.3578 113.785 61.0244 111.98 61.0244C108.335 61.0244 106.87 58.7678 106.87 55.7684C106.87 52.7689 108.384 50.5679 111.688 50.5679C114.16 50.5679 115.986 52.2481 115.986 55.2615C115.986 56.053 115.66 56.796 114.632 56.796H110.23L110.237 56.8098Z" fill="#969696"/>
<path d="M72.698 10.4428C72.3994 10.4359 72.094 10.4428 71.7885 10.4567C68.9142 4.20084 62.7768 0.145986 55.8062 0.000177592C48.3774 -0.138687 41.518 4.38831 38.7478 11.283C38.3729 12.2064 38.8242 13.2618 39.7475 13.6298C40.6709 14.0047 41.7262 13.5534 42.0942 12.6299C44.309 7.11701 49.7799 3.4718 55.7298 3.61067C61.6173 3.7287 66.755 7.33225 68.8656 12.8174C68.9628 13.1993 69.1849 13.5395 69.4974 13.7895C69.8862 14.1019 70.386 14.2408 70.8859 14.1575C71.4552 14.0741 72.0384 14.0255 72.6216 14.0464C78.2592 14.1575 82.7581 18.8372 82.647 24.4821C82.5359 30.0575 77.9676 34.5081 72.4203 34.5081C72.3508 34.5081 72.2814 34.5081 72.212 34.5081C69.7612 34.4595 67.845 33.4527 65.3664 31.7239L64.0056 30.8004C61.7909 29.2729 58.9582 28.9674 56.4727 29.9881L63.3044 34.6886C65.6302 36.3064 68.4212 38.0492 72.1356 38.1186C72.2259 38.1186 72.3231 38.1186 72.4133 38.1186C79.9185 38.1186 86.1045 32.0849 86.2503 24.5515C86.403 16.9209 80.3142 10.5817 72.6841 10.4289L72.698 10.4428Z" fill="#969696"/>
<path d="M68.7616 18.9272C69.7202 18.9272 70.4973 18.15 70.4973 17.1914C70.4973 16.2327 69.7202 15.4556 68.7616 15.4556C67.803 15.4556 67.0259 16.2327 67.0259 17.1914C67.0259 18.15 67.803 18.9272 68.7616 18.9272Z" fill="#E88D23"/>
<path d="M55.3341 24.7875L43.941 16.9138C43.8924 16.8791 43.8438 16.8791 43.7952 16.8513C38.8936 13.6852 32.3882 14.6503 28.5905 19.1287C25.0219 23.3433 24.9316 29.5366 28.3753 33.8553C29.5694 35.3551 31.1177 36.5424 32.8534 37.2992C34.2419 37.9033 35.7277 38.2018 37.2273 38.2018C39.3935 38.2018 41.5804 37.5839 43.5314 36.3688L55.2299 29.1062L58.5764 27.0301L68.5045 20.8645C66.8799 19.3578 64.4569 19.1287 62.5754 20.2952L55.3271 24.7944L55.3341 24.7875ZM41.6221 33.2999C39.324 34.7302 36.5816 34.9801 34.2905 33.9873C33.0825 33.4596 32.0411 32.6611 31.201 31.6057C28.8682 28.6826 28.9307 24.3223 31.3468 21.4686C33.992 18.3511 38.5326 17.6915 41.9206 19.9341C41.9415 19.948 41.9692 19.948 41.9901 19.9619L51.9877 26.8704L41.6221 33.3068V33.2999Z" fill="#969696"/>
</g>
<defs>
<clipPath id="clip0_200_177">
<rect width="116" height="61.0381" fill="white"/>
</clipPath>
</defs>
</svg>
