<svg width="174" height="204" viewBox="0 0 174 204" fill="none" xmlns="http://www.w3.org/2000/svg">
<path d="M4.41937 175.547C4.41937 174.483 3.55685 173.621 2.49288 173.621C1.42891 173.621 0.566406 174.483 0.566406 175.547C0.566406 176.611 1.42891 177.474 2.49288 177.474C3.55685 177.474 4.41937 176.611 4.41937 175.547Z" fill="#3483B4"/>
<path d="M4.41937 158.22C4.41937 157.156 3.55685 156.293 2.49288 156.293C1.42891 156.293 0.566406 157.156 0.566406 158.22C0.566406 159.283 1.42891 160.146 2.49288 160.146C3.55685 160.146 4.41937 159.283 4.41937 158.22Z" fill="#3483B4"/>
<path d="M4.41937 140.893C4.41937 139.829 3.55685 138.966 2.49288 138.966C1.42891 138.966 0.566406 139.829 0.566406 140.893C0.566406 141.957 1.42891 142.819 2.49288 142.819C3.55685 142.819 4.41937 141.957 4.41937 140.893Z" fill="#3483B4"/>
<path d="M2.49288 121.64C3.55302 121.64 4.41937 122.507 4.41937 123.567C4.41937 124.627 3.55302 125.493 2.49288 125.493C1.43274 125.493 0.566406 124.627 0.566406 123.567C0.566406 122.507 1.43274 121.64 2.49288 121.64Z" fill="#3483B4"/>
<path d="M2.49288 104.313C3.55302 104.313 4.41937 105.179 4.41937 106.239C4.41937 107.299 3.55302 108.166 2.49288 108.166C1.43274 108.166 0.566406 107.299 0.566406 106.239C0.566406 105.179 1.43274 104.313 2.49288 104.313Z" fill="#3483B4"/>
<path d="M4.41937 88.9124C4.41937 87.8484 3.55685 86.9859 2.49288 86.9859C1.42891 86.9859 0.566406 87.8484 0.566406 88.9124C0.566406 89.9763 1.42891 90.8389 2.49288 90.8389C3.55685 90.8389 4.41937 89.9763 4.41937 88.9124Z" fill="#3483B4"/>
<path d="M4.41937 71.5852C4.41937 70.5213 3.55685 69.6587 2.49288 69.6587C1.42891 69.6587 0.566406 70.5213 0.566406 71.5852C0.566406 72.6492 1.42891 73.5117 2.49288 73.5117C3.55685 73.5117 4.41937 72.6492 4.41937 71.5852Z" fill="#3483B4"/>
<path d="M4.41937 54.2576C4.41937 53.1936 3.55685 52.3311 2.49288 52.3311C1.42891 52.3311 0.566406 53.1936 0.566406 54.2576C0.566406 55.3216 1.42891 56.1841 2.49288 56.1841C3.55685 56.1841 4.41937 55.3216 4.41937 54.2576Z" fill="#3483B4"/>
<path d="M4.41937 36.9319C4.41937 35.8679 3.55685 35.0054 2.49288 35.0054C1.42891 35.0054 0.566406 35.8679 0.566406 36.9319C0.566406 37.9959 1.42891 38.8584 2.49288 38.8584C3.55685 38.8584 4.41937 37.9959 4.41937 36.9319Z" fill="#3483B4"/>
<path d="M4.41937 19.6043C4.41937 18.5403 3.55685 17.6778 2.49288 17.6778C1.42891 17.6778 0.566406 18.5403 0.566406 19.6043C0.566406 20.6682 1.42891 21.5308 2.49288 21.5308C3.55685 21.5308 4.41937 20.6682 4.41937 19.6043Z" fill="#3483B4"/>
<path d="M4.41937 2.27712C4.41937 1.21315 3.55685 0.350632 2.49288 0.350632C1.42891 0.350632 0.566406 1.21315 0.566406 2.27712C0.566406 3.34109 1.42891 4.20361 2.49288 4.20361C3.55685 4.20361 4.41937 3.34109 4.41937 2.27712Z" fill="#3483B4"/>
<path d="M19.8198 175.547C19.8198 174.483 18.9573 173.621 17.8933 173.621C16.8293 173.621 15.9668 174.483 15.9668 175.547C15.9668 176.611 16.8293 177.474 17.8933 177.474C18.9573 177.474 19.8198 176.611 19.8198 175.547Z" fill="#3483B4"/>
<path d="M19.8198 158.22C19.8198 157.156 18.9573 156.293 17.8933 156.293C16.8293 156.293 15.9668 157.156 15.9668 158.22C15.9668 159.283 16.8293 160.146 17.8933 160.146C18.9573 160.146 19.8198 159.283 19.8198 158.22Z" fill="#3483B4"/>
<path d="M19.8198 140.892C19.8198 139.828 18.9573 138.966 17.8933 138.966C16.8293 138.966 15.9668 139.828 15.9668 140.892C15.9668 141.956 16.8293 142.819 17.8933 142.819C18.9573 142.819 19.8198 141.956 19.8198 140.892Z" fill="#3483B4"/>
<path d="M17.8933 121.64C18.9534 121.64 19.8198 122.506 19.8198 123.566C19.8198 124.626 18.9534 125.493 17.8933 125.493C16.8331 125.493 15.9668 124.626 15.9668 123.566C15.9668 122.506 16.8331 121.64 17.8933 121.64Z" fill="#3483B4"/>
<path d="M17.8933 104.312C18.9534 104.312 19.8198 105.178 19.8198 106.239C19.8198 107.299 18.9534 108.165 17.8933 108.165C16.8331 108.165 15.9668 107.299 15.9668 106.239C15.9668 105.178 16.8331 104.312 17.8933 104.312Z" fill="#3483B4"/>
<path d="M19.8198 88.9119C19.8198 87.8479 18.9573 86.9854 17.8933 86.9854C16.8293 86.9854 15.9668 87.8479 15.9668 88.9119C15.9668 89.9759 16.8293 90.8384 17.8933 90.8384C18.9573 90.8384 19.8198 89.9759 19.8198 88.9119Z" fill="#3483B4"/>
<path d="M19.8198 71.5847C19.8198 70.5208 18.9573 69.6583 17.8933 69.6583C16.8293 69.6583 15.9668 70.5208 15.9668 71.5847C15.9668 72.6487 16.8293 73.5112 17.8933 73.5112C18.9573 73.5112 19.8198 72.6487 19.8198 71.5847Z" fill="#3483B4"/>
<path d="M19.8198 54.2571C19.8198 53.1931 18.9573 52.3306 17.8933 52.3306C16.8293 52.3306 15.9668 53.1931 15.9668 54.2571C15.9668 55.3211 16.8293 56.1836 17.8933 56.1836C18.9573 56.1836 19.8198 55.3211 19.8198 54.2571Z" fill="#3483B4"/>
<path d="M19.8198 36.9309C19.8198 35.867 18.9573 35.0045 17.8933 35.0045C16.8293 35.0045 15.9668 35.867 15.9668 36.9309C15.9668 37.9949 16.8293 38.8574 17.8933 38.8574C18.9573 38.8574 19.8198 37.9949 19.8198 36.9309Z" fill="#3483B4"/>
<path d="M19.8198 19.6038C19.8198 18.5398 18.9573 17.6773 17.8933 17.6773C16.8293 17.6773 15.9668 18.5398 15.9668 19.6038C15.9668 20.6678 16.8293 21.5303 17.8933 21.5303C18.9573 21.5303 19.8198 20.6678 19.8198 19.6038Z" fill="#3483B4"/>
<path d="M19.8198 2.27663C19.8198 1.21266 18.9573 0.350143 17.8933 0.350143C16.8293 0.350143 15.9668 1.21266 15.9668 2.27663C15.9668 3.3406 16.8293 4.20312 17.8933 4.20312C18.9573 4.20312 19.8198 3.3406 19.8198 2.27663Z" fill="#3483B4"/>
<path d="M35.2202 175.547C35.2202 174.483 34.3576 173.621 33.2937 173.621C32.2297 173.621 31.3672 174.483 31.3672 175.547C31.3672 176.611 32.2297 177.474 33.2937 177.474C34.3576 177.474 35.2202 176.611 35.2202 175.547Z" fill="#3483B4"/>
<path d="M35.2202 158.22C35.2202 157.156 34.3576 156.293 33.2937 156.293C32.2297 156.293 31.3672 157.156 31.3672 158.22C31.3672 159.283 32.2297 160.146 33.2937 160.146C34.3576 160.146 35.2202 159.283 35.2202 158.22Z" fill="#3483B4"/>
<path d="M35.2202 140.892C35.2202 139.828 34.3576 138.966 33.2937 138.966C32.2297 138.966 31.3672 139.828 31.3672 140.892C31.3672 141.956 32.2297 142.819 33.2937 142.819C34.3576 142.819 35.2202 141.956 35.2202 140.892Z" fill="#3483B4"/>
<path d="M33.2937 121.64C34.3538 121.64 35.2202 122.506 35.2202 123.566C35.2202 124.626 34.3538 125.493 33.2937 125.493C32.2335 125.493 31.3672 124.626 31.3672 123.566C31.3672 122.506 32.2335 121.64 33.2937 121.64Z" fill="#3483B4"/>
<path d="M33.2937 104.312C34.3538 104.312 35.2202 105.178 35.2202 106.239C35.2202 107.299 34.3538 108.165 33.2937 108.165C32.2335 108.165 31.3672 107.299 31.3672 106.239C31.3672 105.178 32.2335 104.312 33.2937 104.312Z" fill="#3483B4"/>
<path d="M35.2202 88.9119C35.2202 87.8479 34.3576 86.9854 33.2937 86.9854C32.2297 86.9854 31.3672 87.8479 31.3672 88.9119C31.3672 89.9759 32.2297 90.8384 33.2937 90.8384C34.3576 90.8384 35.2202 89.9759 35.2202 88.9119Z" fill="#3483B4"/>
<path d="M35.2202 71.5847C35.2202 70.5208 34.3576 69.6583 33.2937 69.6583C32.2297 69.6583 31.3672 70.5208 31.3672 71.5847C31.3672 72.6487 32.2297 73.5112 33.2937 73.5112C34.3576 73.5112 35.2202 72.6487 35.2202 71.5847Z" fill="#3483B4"/>
<path d="M35.2202 54.2571C35.2202 53.1931 34.3576 52.3306 33.2937 52.3306C32.2297 52.3306 31.3672 53.1931 31.3672 54.2571C31.3672 55.3211 32.2297 56.1836 33.2937 56.1836C34.3576 56.1836 35.2202 55.3211 35.2202 54.2571Z" fill="#3483B4"/>
<path d="M35.2202 36.9309C35.2202 35.867 34.3576 35.0045 33.2937 35.0045C32.2297 35.0045 31.3672 35.867 31.3672 36.9309C31.3672 37.9949 32.2297 38.8574 33.2937 38.8574C34.3576 38.8574 35.2202 37.9949 35.2202 36.9309Z" fill="#3483B4"/>
<path d="M35.2202 19.6038C35.2202 18.5398 34.3576 17.6773 33.2937 17.6773C32.2297 17.6773 31.3672 18.5398 31.3672 19.6038C31.3672 20.6678 32.2297 21.5303 33.2937 21.5303C34.3576 21.5303 35.2202 20.6678 35.2202 19.6038Z" fill="#3483B4"/>
<path d="M35.2202 2.27663C35.2202 1.21266 34.3576 0.350143 33.2937 0.350143C32.2297 0.350143 31.3672 1.21266 31.3672 2.27663C31.3672 3.3406 32.2297 4.20312 33.2937 4.20312C34.3576 4.20312 35.2202 3.3406 35.2202 2.27663Z" fill="#3483B4"/>
<path d="M48.6941 173.621C49.7542 173.621 50.6205 174.487 50.6205 175.547C50.6205 176.607 49.7542 177.474 48.6941 177.474C47.6339 177.474 46.7676 176.607 46.7676 175.547C46.7676 174.487 47.6339 173.621 48.6941 173.621Z" fill="#3483B4"/>
<path d="M48.6941 156.293C49.7542 156.293 50.6205 157.159 50.6205 158.22C50.6205 159.28 49.7542 160.146 48.6941 160.146C47.6339 160.146 46.7676 159.28 46.7676 158.22C46.7676 157.159 47.6339 156.293 48.6941 156.293Z" fill="#3483B4"/>
<path d="M48.6941 138.966C49.7542 138.966 50.6205 139.833 50.6205 140.893C50.6205 141.953 49.7542 142.819 48.6941 142.819C47.6339 142.819 46.7676 141.953 46.7676 140.893C46.7676 139.833 47.6339 138.966 48.6941 138.966Z" fill="#3483B4"/>
<path d="M48.6941 121.64C49.7542 121.64 50.6205 122.507 50.6205 123.567C50.6205 124.627 49.7542 125.493 48.6941 125.493C47.6339 125.493 46.7676 124.627 46.7676 123.567C46.7676 122.507 47.6339 121.64 48.6941 121.64Z" fill="#3483B4"/>
<path d="M48.6941 104.313C49.7542 104.313 50.6205 105.179 50.6205 106.239C50.6205 107.299 49.7542 108.166 48.6941 108.166C47.6339 108.166 46.7676 107.299 46.7676 106.239C46.7676 105.179 47.6339 104.313 48.6941 104.313Z" fill="#3483B4"/>
<path d="M48.6941 86.9859C49.7542 86.9859 50.6205 87.8522 50.6205 88.9124C50.6205 89.9725 49.7542 90.8389 48.6941 90.8389C47.6339 90.8389 46.7676 89.9725 46.7676 88.9124C46.7676 87.8522 47.6339 86.9859 48.6941 86.9859Z" fill="#3483B4"/>
<path d="M48.6941 69.6583C49.7542 69.6583 50.6205 70.5246 50.6205 71.5847C50.6205 72.6449 49.7542 73.5112 48.6941 73.5112C47.6339 73.5112 46.7676 72.6449 46.7676 71.5847C46.7676 70.5246 47.6339 69.6583 48.6941 69.6583Z" fill="#3483B4"/>
<path d="M48.6941 52.3311C49.7542 52.3311 50.6205 53.1975 50.6205 54.2576C50.6205 55.3177 49.7542 56.1841 48.6941 56.1841C47.6339 56.1841 46.7676 55.3177 46.7676 54.2576C46.7676 53.1975 47.6339 52.3311 48.6941 52.3311Z" fill="#3483B4"/>
<path d="M48.6941 35.0049C49.7542 35.0049 50.6205 35.8713 50.6205 36.9314C50.6205 37.9916 49.7542 38.8579 48.6941 38.8579C47.6339 38.8579 46.7676 37.9916 46.7676 36.9314C46.7676 35.8713 47.6339 35.0049 48.6941 35.0049Z" fill="#3483B4"/>
<path d="M48.6941 17.6778C49.7542 17.6778 50.6205 18.5441 50.6205 19.6043C50.6205 20.6644 49.7542 21.5308 48.6941 21.5308C47.6339 21.5308 46.7676 20.6644 46.7676 19.6043C46.7676 18.5441 47.6339 17.6778 48.6941 17.6778Z" fill="#3483B4"/>
<path d="M48.6941 0.350632C49.7542 0.350632 50.6205 1.21698 50.6205 2.27712C50.6205 3.33726 49.7542 4.20361 48.6941 4.20361C47.6339 4.20361 46.7676 3.33726 46.7676 2.27712C46.7676 1.21698 47.6339 0.350632 48.6941 0.350632Z" fill="#3483B4"/>
<path d="M64.0945 173.621C65.1546 173.621 66.021 174.487 66.021 175.548C66.021 176.608 65.1546 177.474 64.0945 177.474C63.0343 177.474 62.168 176.608 62.168 175.548C62.168 174.487 63.0343 173.621 64.0945 173.621Z" fill="#3483B4"/>
<path d="M64.0945 156.294C65.1546 156.294 66.021 157.16 66.021 158.22C66.021 159.28 65.1546 160.146 64.0945 160.146C63.0343 160.146 62.168 159.28 62.168 158.22C62.168 157.16 63.0343 156.294 64.0945 156.294Z" fill="#3483B4"/>
<path d="M64.0945 138.967C65.1546 138.967 66.021 139.833 66.021 140.893C66.021 141.953 65.1546 142.82 64.0945 142.82C63.0343 142.82 62.168 141.953 62.168 140.893C62.168 139.833 63.0343 138.967 64.0945 138.967Z" fill="#3483B4"/>
<path d="M64.0945 121.641C65.1546 121.641 66.021 122.507 66.021 123.567C66.021 124.627 65.1546 125.494 64.0945 125.494C63.0343 125.494 62.168 124.627 62.168 123.567C62.168 122.507 63.0343 121.641 64.0945 121.641Z" fill="#3483B4"/>
<path d="M64.0945 104.313C65.1546 104.313 66.021 105.179 66.021 106.24C66.021 107.3 65.1546 108.166 64.0945 108.166C63.0343 108.166 62.168 107.3 62.168 106.24C62.168 105.179 63.0343 104.313 64.0945 104.313Z" fill="#3483B4"/>
<path d="M64.0945 86.9864C65.1546 86.9864 66.021 87.8527 66.021 88.9129C66.021 89.973 65.1546 90.8394 64.0945 90.8394C63.0343 90.8394 62.168 89.973 62.168 88.9129C62.168 87.8527 63.0343 86.9864 64.0945 86.9864Z" fill="#3483B4"/>
<path d="M64.0945 69.6592C65.1546 69.6592 66.021 70.5256 66.021 71.5857C66.021 72.6459 65.1546 73.5122 64.0945 73.5122C63.0343 73.5122 62.168 72.6459 62.168 71.5857C62.168 70.5256 63.0343 69.6592 64.0945 69.6592Z" fill="#3483B4"/>
<path d="M64.0945 52.3316C65.1546 52.3316 66.021 53.1979 66.021 54.2581C66.021 55.3182 65.1546 56.1846 64.0945 56.1846C63.0343 56.1846 62.168 55.3182 62.168 54.2581C62.168 53.1979 63.0343 52.3316 64.0945 52.3316Z" fill="#3483B4"/>
<path d="M64.0945 35.0059C65.1546 35.0059 66.021 35.8723 66.021 36.9324C66.021 37.9925 65.1546 38.8589 64.0945 38.8589C63.0343 38.8589 62.168 37.9925 62.168 36.9324C62.168 35.8723 63.0343 35.0059 64.0945 35.0059Z" fill="#3483B4"/>
<path d="M64.0945 17.6783C65.1546 17.6783 66.021 18.5446 66.021 19.6048C66.021 20.6649 65.1546 21.5312 64.0945 21.5312C63.0343 21.5312 62.168 20.6649 62.168 19.6048C62.168 18.5446 63.0343 17.6783 64.0945 17.6783Z" fill="#3483B4"/>
<path d="M64.0945 0.35112C65.1546 0.35112 66.021 1.21747 66.021 2.27761C66.021 3.33775 65.1546 4.2041 64.0945 4.2041C63.0343 4.2041 62.168 3.33775 62.168 2.27761C62.168 1.21747 63.0343 0.35112 64.0945 0.35112Z" fill="#3483B4"/>
<path d="M79.4948 173.621C80.555 173.621 81.4213 174.487 81.4213 175.548C81.4213 176.608 80.555 177.474 79.4949 177.474C78.4347 177.474 77.5684 176.608 77.5684 175.548C77.5684 174.487 78.4347 173.621 79.4948 173.621Z" fill="#3483B4"/>
<path d="M79.4948 156.294C80.555 156.294 81.4213 157.16 81.4213 158.22C81.4213 159.28 80.555 160.146 79.4949 160.146C78.4347 160.146 77.5684 159.28 77.5684 158.22C77.5684 157.16 78.4347 156.294 79.4948 156.294Z" fill="#3483B4"/>
<path d="M79.4948 138.967C80.555 138.967 81.4213 139.833 81.4213 140.893C81.4213 141.953 80.555 142.82 79.4949 142.82C78.4347 142.82 77.5684 141.953 77.5684 140.893C77.5684 139.833 78.4347 138.967 79.4948 138.967Z" fill="#3483B4"/>
<path d="M79.4948 121.641C80.555 121.641 81.4213 122.507 81.4213 123.567C81.4213 124.627 80.555 125.494 79.4949 125.494C78.4347 125.494 77.5684 124.627 77.5684 123.567C77.5684 122.507 78.4347 121.641 79.4948 121.641Z" fill="#3483B4"/>
<path d="M79.4948 104.313C80.555 104.313 81.4213 105.179 81.4213 106.24C81.4213 107.3 80.555 108.166 79.4949 108.166C78.4347 108.166 77.5684 107.3 77.5684 106.24C77.5684 105.179 78.4347 104.313 79.4948 104.313Z" fill="#3483B4"/>
<path d="M79.4948 86.9864C80.555 86.9864 81.4213 87.8527 81.4213 88.9129C81.4213 89.973 80.555 90.8394 79.4949 90.8394C78.4347 90.8394 77.5684 89.973 77.5684 88.9129C77.5684 87.8527 78.4347 86.9864 79.4948 86.9864Z" fill="#3483B4"/>
<path d="M79.4948 69.6592C80.555 69.6592 81.4213 70.5256 81.4213 71.5857C81.4213 72.6459 80.555 73.5122 79.4949 73.5122C78.4347 73.5122 77.5684 72.6459 77.5684 71.5857C77.5684 70.5256 78.4347 69.6592 79.4948 69.6592Z" fill="#3483B4"/>
<path d="M79.4948 52.3311C80.555 52.3311 81.4213 53.1975 81.4213 54.2576C81.4213 55.3177 80.555 56.1841 79.4949 56.1841C78.4347 56.1841 77.5684 55.3177 77.5684 54.2576C77.5684 53.1975 78.4347 52.3311 79.4948 52.3311Z" fill="#3483B4"/>
<path d="M79.4948 35.0059C80.555 35.0059 81.4213 35.8723 81.4213 36.9324C81.4213 37.9925 80.555 38.8589 79.4949 38.8589C78.4347 38.8589 77.5684 37.9925 77.5684 36.9324C77.5684 35.8723 78.4347 35.0059 79.4948 35.0059Z" fill="#3483B4"/>
<path d="M79.4948 17.6783C80.555 17.6783 81.4213 18.5446 81.4213 19.6048C81.4213 20.6649 80.555 21.5312 79.4949 21.5312C78.4347 21.5312 77.5684 20.6649 77.5684 19.6048C77.5684 18.5446 78.4347 17.6783 79.4948 17.6783Z" fill="#3483B4"/>
<path d="M79.4948 0.35112C80.555 0.35112 81.4213 1.21747 81.4213 2.27761C81.4213 3.33775 80.555 4.2041 79.4949 4.2041C78.4347 4.2041 77.5684 3.33775 77.5684 2.27761C77.5684 1.21747 78.4347 0.35112 79.4948 0.35112Z" fill="#3483B4"/>
<path d="M96.8217 175.547C96.8217 174.483 95.9592 173.621 94.8952 173.621C93.8313 173.621 92.9687 174.483 92.9687 175.547C92.9687 176.611 93.8313 177.474 94.8952 177.474C95.9592 177.474 96.8217 176.611 96.8217 175.547Z" fill="#3483B4"/>
<path d="M96.8217 158.22C96.8217 157.156 95.9592 156.294 94.8952 156.294C93.8313 156.294 92.9687 157.156 92.9687 158.22C92.9687 159.284 93.8313 160.146 94.8952 160.146C95.9592 160.146 96.8217 159.284 96.8217 158.22Z" fill="#3483B4"/>
<path d="M96.8217 140.893C96.8217 139.829 95.9592 138.966 94.8952 138.966C93.8313 138.966 92.9687 139.829 92.9687 140.893C92.9687 141.957 93.8313 142.819 94.8952 142.819C95.9592 142.819 96.8217 141.957 96.8217 140.893Z" fill="#3483B4"/>
<path d="M94.8952 121.64C95.9554 121.64 96.8217 122.507 96.8217 123.567C96.8217 124.627 95.9554 125.493 94.8952 125.493C93.8351 125.493 92.9687 124.627 92.9687 123.567C92.9801 122.507 93.8351 121.64 94.8952 121.64Z" fill="#3483B4"/>
<path d="M94.8952 104.313C95.9554 104.313 96.8217 105.179 96.8217 106.239C96.8217 107.299 95.9554 108.166 94.8952 108.166C93.8351 108.166 92.9687 107.299 92.9687 106.239C92.9801 105.179 93.8351 104.313 94.8952 104.313Z" fill="#3483B4"/>
<path d="M96.8217 88.9124C96.8217 87.8484 95.9592 86.9859 94.8952 86.9859C93.8313 86.9859 92.9687 87.8484 92.9687 88.9124C92.9687 89.9763 93.8313 90.8389 94.8952 90.8389C95.9592 90.8389 96.8217 89.9763 96.8217 88.9124Z" fill="#3483B4"/>
<path d="M96.8217 71.5852C96.8217 70.5213 95.9592 69.6587 94.8952 69.6587C93.8313 69.6587 92.9687 70.5213 92.9687 71.5852C92.9687 72.6492 93.8313 73.5117 94.8952 73.5117C95.9592 73.5117 96.8217 72.6492 96.8217 71.5852Z" fill="#3483B4"/>
<path d="M96.8217 54.2576C96.8217 53.1936 95.9592 52.3311 94.8952 52.3311C93.8313 52.3311 92.9687 53.1936 92.9687 54.2576C92.9687 55.3216 93.8313 56.1841 94.8952 56.1841C95.9592 56.1841 96.8217 55.3216 96.8217 54.2576Z" fill="#3483B4"/>
<path d="M96.8217 36.9319C96.8217 35.8679 95.9592 35.0054 94.8952 35.0054C93.8313 35.0054 92.9687 35.8679 92.9687 36.9319C92.9687 37.9959 93.8313 38.8584 94.8952 38.8584C95.9592 38.8584 96.8217 37.9959 96.8217 36.9319Z" fill="#3483B4"/>
<path d="M96.8217 19.6043C96.8217 18.5403 95.9592 17.6778 94.8952 17.6778C93.8313 17.6778 92.9687 18.5403 92.9687 19.6043C92.9687 20.6682 93.8313 21.5308 94.8952 21.5308C95.9592 21.5308 96.8217 20.6682 96.8217 19.6043Z" fill="#3483B4"/>
<path d="M96.8217 2.27712C96.8217 1.21315 95.9592 0.350632 94.8952 0.350632C93.8313 0.350632 92.9687 1.21315 92.9687 2.27712C92.9687 3.34109 93.8313 4.20361 94.8952 4.20361C95.9592 4.20361 96.8217 3.34109 96.8217 2.27712Z" fill="#3483B4"/>
<path d="M110.307 173.621C111.367 173.621 112.234 174.487 112.234 175.547C112.234 176.607 111.367 177.474 110.307 177.474C109.247 177.474 108.381 176.607 108.381 175.547C108.381 174.487 109.236 173.621 110.307 173.621Z" fill="#3483B4"/>
<path d="M110.307 156.294C111.367 156.294 112.234 157.16 112.234 158.22C112.234 159.28 111.367 160.146 110.307 160.146C109.247 160.146 108.381 159.28 108.381 158.22C108.381 157.16 109.236 156.294 110.307 156.294Z" fill="#3483B4"/>
<path d="M110.307 138.966C111.367 138.966 112.234 139.833 112.234 140.893C112.234 141.953 111.367 142.819 110.307 142.819C109.247 142.819 108.381 141.953 108.381 140.893C108.381 139.833 109.236 138.966 110.307 138.966Z" fill="#3483B4"/>
<path d="M110.307 121.64C111.367 121.64 112.234 122.507 112.234 123.567C112.234 124.627 111.367 125.493 110.307 125.493C109.247 125.493 108.381 124.627 108.381 123.567C108.381 122.507 109.236 121.64 110.307 121.64Z" fill="#3483B4"/>
<path d="M110.307 104.313C111.367 104.313 112.234 105.179 112.234 106.239C112.234 107.299 111.367 108.166 110.307 108.166C109.247 108.166 108.381 107.299 108.381 106.239C108.381 105.179 109.236 104.313 110.307 104.313Z" fill="#3483B4"/>
<path d="M110.307 86.9859C111.367 86.9859 112.234 87.8522 112.234 88.9124C112.234 89.9725 111.367 90.8389 110.307 90.8389C109.247 90.8389 108.381 89.9725 108.381 88.9124C108.381 87.8522 109.236 86.9859 110.307 86.9859Z" fill="#3483B4"/>
<path d="M110.307 69.6587C111.367 69.6587 112.234 70.5251 112.234 71.5852C112.234 72.6454 111.367 73.5117 110.307 73.5117C109.247 73.5117 108.381 72.6454 108.381 71.5852C108.381 70.5251 109.236 69.6587 110.307 69.6587Z" fill="#3483B4"/>
<path d="M110.307 52.3311C111.367 52.3311 112.234 53.1975 112.234 54.2576C112.234 55.3177 111.367 56.1841 110.307 56.1841C109.247 56.1841 108.381 55.3177 108.381 54.2576C108.381 53.1975 109.236 52.3311 110.307 52.3311Z" fill="#3483B4"/>
<path d="M110.307 35.0049C111.367 35.0049 112.234 35.8713 112.234 36.9314C112.234 37.9916 111.367 38.8579 110.307 38.8579C109.247 38.8579 108.381 37.9916 108.381 36.9314C108.381 35.8713 109.236 35.0049 110.307 35.0049Z" fill="#3483B4"/>
<path d="M110.307 17.6778C111.367 17.6778 112.234 18.5441 112.234 19.6043C112.234 20.6644 111.367 21.5308 110.307 21.5308C109.247 21.5308 108.381 20.6644 108.381 19.6043C108.381 18.5441 109.236 17.6778 110.307 17.6778Z" fill="#3483B4"/>
<path d="M110.307 0.350632C111.367 0.350632 112.234 1.21698 112.234 2.27712C112.234 3.33726 111.367 4.20361 110.307 4.20361C109.247 4.20361 108.381 3.33726 108.381 2.27712C108.381 1.21698 109.236 0.350632 110.307 0.350632Z" fill="#3483B4"/>
<path d="M125.708 173.621C126.768 173.621 127.634 174.487 127.634 175.547C127.634 176.607 126.768 177.474 125.708 177.474C124.648 177.474 123.781 176.607 123.781 175.547C123.781 174.487 124.636 173.621 125.708 173.621Z" fill="#3483B4"/>
<path d="M125.708 156.293C126.768 156.293 127.634 157.159 127.634 158.22C127.634 159.28 126.768 160.146 125.708 160.146C124.648 160.146 123.781 159.28 123.781 158.22C123.781 157.159 124.636 156.293 125.708 156.293Z" fill="#3483B4"/>
<path d="M125.708 138.966C126.768 138.966 127.634 139.833 127.634 140.893C127.634 141.953 126.768 142.819 125.708 142.819C124.648 142.819 123.781 141.953 123.781 140.893C123.781 139.833 124.636 138.966 125.708 138.966Z" fill="#3483B4"/>
<path d="M125.708 121.64C126.768 121.64 127.634 122.507 127.634 123.567C127.634 124.627 126.768 125.493 125.708 125.493C124.648 125.493 123.781 124.627 123.781 123.567C123.781 122.507 124.636 121.64 125.708 121.64Z" fill="#3483B4"/>
<path d="M125.708 104.313C126.768 104.313 127.634 105.179 127.634 106.239C127.634 107.299 126.768 108.166 125.708 108.166C124.648 108.166 123.781 107.299 123.781 106.239C123.781 105.179 124.636 104.313 125.708 104.313Z" fill="#3483B4"/>
<path d="M125.708 86.9859C126.768 86.9859 127.634 87.8522 127.634 88.9124C127.634 89.9725 126.768 90.8389 125.708 90.8389C124.648 90.8389 123.781 89.9725 123.781 88.9124C123.781 87.8522 124.636 86.9859 125.708 86.9859Z" fill="#3483B4"/>
<path d="M125.708 69.6587C126.768 69.6587 127.634 70.5251 127.634 71.5852C127.634 72.6454 126.768 73.5117 125.708 73.5117C124.648 73.5117 123.781 72.6454 123.781 71.5852C123.781 70.5251 124.636 69.6587 125.708 69.6587Z" fill="#3483B4"/>
<path d="M125.708 52.3311C126.768 52.3311 127.634 53.1975 127.634 54.2576C127.634 55.3177 126.768 56.1841 125.708 56.1841C124.648 56.1841 123.781 55.3177 123.781 54.2576C123.781 53.1975 124.636 52.3311 125.708 52.3311Z" fill="#3483B4"/>
<path d="M125.708 35.0049C126.768 35.0049 127.634 35.8713 127.634 36.9314C127.634 37.9916 126.768 38.8579 125.708 38.8579C124.648 38.8579 123.781 37.9916 123.781 36.9314C123.781 35.8713 124.636 35.0049 125.708 35.0049Z" fill="#3483B4"/>
<path d="M125.708 17.6778C126.768 17.6778 127.634 18.5441 127.634 19.6043C127.634 20.6644 126.768 21.5308 125.708 21.5308C124.648 21.5308 123.781 20.6644 123.781 19.6043C123.781 18.5441 124.636 17.6778 125.708 17.6778Z" fill="#3483B4"/>
<path d="M125.708 0.350632C126.768 0.350632 127.634 1.21698 127.634 2.27712C127.634 3.33726 126.768 4.20361 125.708 4.20361C124.648 4.20361 123.781 3.33726 123.781 2.27712C123.781 1.21698 124.636 0.350632 125.708 0.350632Z" fill="#3483B4"/>
<path d="M141.11 173.621C142.17 173.621 143.037 174.487 143.037 175.548C143.037 176.608 142.17 177.474 141.11 177.474C140.05 177.474 139.184 176.608 139.184 175.548C139.184 174.487 140.05 173.621 141.11 173.621Z" fill="#3483B4"/>
<path d="M141.11 156.294C142.17 156.294 143.037 157.16 143.037 158.22C143.037 159.28 142.17 160.146 141.11 160.146C140.05 160.146 139.184 159.28 139.184 158.22C139.184 157.16 140.05 156.294 141.11 156.294Z" fill="#3483B4"/>
<path d="M141.11 138.967C142.17 138.967 143.037 139.833 143.037 140.893C143.037 141.953 142.17 142.82 141.11 142.82C140.05 142.82 139.184 141.953 139.184 140.893C139.184 139.833 140.05 138.967 141.11 138.967Z" fill="#3483B4"/>
<path d="M141.11 121.64C142.17 121.64 143.037 122.507 143.037 123.567C143.037 124.627 142.17 125.493 141.11 125.493C140.05 125.493 139.184 124.627 139.184 123.567C139.184 122.507 140.05 121.64 141.11 121.64Z" fill="#3483B4"/>
<path d="M141.11 104.313C142.17 104.313 143.037 105.179 143.037 106.239C143.037 107.299 142.17 108.166 141.11 108.166C140.05 108.166 139.184 107.299 139.184 106.239C139.184 105.179 140.05 104.313 141.11 104.313Z" fill="#3483B4"/>
<path d="M141.11 86.9859C142.17 86.9859 143.037 87.8522 143.037 88.9124C143.037 89.9725 142.17 90.8389 141.11 90.8389C140.05 90.8389 139.184 89.9725 139.184 88.9124C139.184 87.8522 140.05 86.9859 141.11 86.9859Z" fill="#3483B4"/>
<path d="M141.11 69.6587C142.17 69.6587 143.037 70.5251 143.037 71.5852C143.037 72.6454 142.17 73.5117 141.11 73.5117C140.05 73.5117 139.184 72.6454 139.184 71.5852C139.184 70.5251 140.05 69.6587 141.11 69.6587Z" fill="#3483B4"/>
<path d="M141.11 52.3311C142.17 52.3311 143.037 53.1975 143.037 54.2576C143.037 55.3177 142.17 56.1841 141.11 56.1841C140.05 56.1841 139.184 55.3177 139.184 54.2576C139.184 53.1975 140.05 52.3311 141.11 52.3311Z" fill="#3483B4"/>
<path d="M141.11 35.0054C142.17 35.0054 143.037 35.8718 143.037 36.9319C143.037 37.992 142.17 38.8584 141.11 38.8584C140.05 38.8584 139.184 37.992 139.184 36.9319C139.184 35.8718 140.05 35.0054 141.11 35.0054Z" fill="#3483B4"/>
<path d="M141.11 17.6783C142.17 17.6783 143.037 18.5446 143.037 19.6048C143.037 20.6649 142.17 21.5312 141.11 21.5312C140.05 21.5312 139.184 20.6649 139.184 19.6048C139.184 18.5446 140.05 17.6783 141.11 17.6783Z" fill="#3483B4"/>
<path d="M141.11 0.350632C142.17 0.350632 143.037 1.21698 143.037 2.27712C143.037 3.33726 142.17 4.20361 141.11 4.20361C140.05 4.20361 139.184 3.33726 139.184 2.27712C139.184 1.21698 140.05 0.350632 141.11 0.350632Z" fill="#3483B4"/>
<path d="M158.435 175.547C158.435 174.483 157.572 173.621 156.509 173.621C155.445 173.621 154.582 174.483 154.582 175.547C154.582 176.611 155.445 177.474 156.509 177.474C157.572 177.474 158.435 176.611 158.435 175.547Z" fill="#3483B4"/>
<path d="M158.435 158.22C158.435 157.156 157.572 156.294 156.509 156.294C155.445 156.294 154.582 157.156 154.582 158.22C154.582 159.284 155.445 160.146 156.509 160.146C157.572 160.146 158.435 159.284 158.435 158.22Z" fill="#3483B4"/>
<path d="M158.435 140.893C158.435 139.829 157.572 138.967 156.509 138.967C155.445 138.967 154.582 139.829 154.582 140.893C154.582 141.957 155.445 142.82 156.509 142.82C157.572 142.82 158.435 141.957 158.435 140.893Z" fill="#3483B4"/>
<path d="M156.509 121.641C157.569 121.641 158.435 122.507 158.435 123.567C158.435 124.627 157.569 125.494 156.509 125.494C155.448 125.494 154.582 124.627 154.582 123.567C154.582 122.507 155.448 121.641 156.509 121.641Z" fill="#3483B4"/>
<path d="M156.509 104.313C157.569 104.313 158.435 105.179 158.435 106.239C158.435 107.299 157.569 108.166 156.509 108.166C155.448 108.166 154.582 107.299 154.582 106.239C154.582 105.179 155.448 104.313 156.509 104.313Z" fill="#3483B4"/>
<path d="M158.435 88.9124C158.435 87.8484 157.572 86.9859 156.509 86.9859C155.445 86.9859 154.582 87.8484 154.582 88.9124C154.582 89.9763 155.445 90.8389 156.509 90.8389C157.572 90.8389 158.435 89.9763 158.435 88.9124Z" fill="#3483B4"/>
<path d="M158.435 71.5852C158.435 70.5213 157.572 69.6587 156.509 69.6587C155.445 69.6587 154.582 70.5213 154.582 71.5852C154.582 72.6492 155.445 73.5117 156.509 73.5117C157.572 73.5117 158.435 72.6492 158.435 71.5852Z" fill="#3483B4"/>
<path d="M158.435 54.2576C158.435 53.1936 157.572 52.3311 156.509 52.3311C155.445 52.3311 154.582 53.1936 154.582 54.2576C154.582 55.3216 155.445 56.1841 156.509 56.1841C157.572 56.1841 158.435 55.3216 158.435 54.2576Z" fill="#3483B4"/>
<path d="M158.435 36.9319C158.435 35.8679 157.572 35.0054 156.509 35.0054C155.445 35.0054 154.582 35.8679 154.582 36.9319C154.582 37.9959 155.445 38.8584 156.509 38.8584C157.572 38.8584 158.435 37.9959 158.435 36.9319Z" fill="#3483B4"/>
<path d="M158.435 19.6048C158.435 18.5408 157.572 17.6783 156.509 17.6783C155.445 17.6783 154.582 18.5408 154.582 19.6048C154.582 20.6687 155.445 21.5312 156.509 21.5312C157.572 21.5312 158.435 20.6687 158.435 19.6048Z" fill="#3483B4"/>
<path d="M158.435 2.27761C158.435 1.21364 157.572 0.35112 156.509 0.35112C155.445 0.35112 154.582 1.21364 154.582 2.27761C154.582 3.34158 155.445 4.2041 156.509 4.2041C157.572 4.2041 158.435 3.34158 158.435 2.27761Z" fill="#3483B4"/>
<path d="M171.909 173.621C172.969 173.621 173.835 174.487 173.835 175.547C173.835 176.607 172.969 177.474 171.909 177.474C170.849 177.474 169.982 176.607 169.982 175.547C169.982 174.487 170.849 173.621 171.909 173.621Z" fill="#3483B4"/>
<path d="M171.909 156.293C172.969 156.293 173.835 157.159 173.835 158.22C173.835 159.28 172.969 160.146 171.909 160.146C170.849 160.146 169.982 159.28 169.982 158.22C169.982 157.159 170.849 156.293 171.909 156.293Z" fill="#3483B4"/>
<path d="M171.909 138.966C172.969 138.966 173.835 139.833 173.835 140.893C173.835 141.953 172.969 142.819 171.909 142.819C170.849 142.819 169.982 141.953 169.982 140.893C169.982 139.833 170.849 138.966 171.909 138.966Z" fill="#3483B4"/>
<path d="M171.909 121.64C172.969 121.64 173.835 122.507 173.835 123.567C173.835 124.627 172.969 125.493 171.909 125.493C170.849 125.493 169.982 124.627 169.982 123.567C169.982 122.507 170.849 121.64 171.909 121.64Z" fill="#3483B4"/>
<path d="M171.909 104.313C172.969 104.313 173.835 105.179 173.835 106.239C173.835 107.299 172.969 108.166 171.909 108.166C170.849 108.166 169.982 107.299 169.982 106.239C169.982 105.179 170.849 104.313 171.909 104.313Z" fill="#3483B4"/>
<path d="M171.909 86.9859C172.969 86.9859 173.835 87.8522 173.835 88.9124C173.835 89.9725 172.969 90.8389 171.909 90.8389C170.849 90.8389 169.982 89.9725 169.982 88.9124C169.982 87.8522 170.849 86.9859 171.909 86.9859Z" fill="#3483B4"/>
<path d="M171.909 69.6583C172.969 69.6583 173.835 70.5246 173.835 71.5847C173.835 72.6449 172.969 73.5112 171.909 73.5112C170.849 73.5112 169.982 72.6449 169.982 71.5847C169.982 70.5246 170.849 69.6583 171.909 69.6583Z" fill="#3483B4"/>
<path d="M171.909 52.3311C172.969 52.3311 173.835 53.1975 173.835 54.2576C173.835 55.3177 172.969 56.1841 171.909 56.1841C170.849 56.1841 169.982 55.3177 169.982 54.2576C169.982 53.1975 170.849 52.3311 171.909 52.3311Z" fill="#3483B4"/>
<path d="M171.909 35.0049C172.969 35.0049 173.835 35.8713 173.835 36.9314C173.835 37.9916 172.969 38.8579 171.909 38.8579C170.849 38.8579 169.982 37.9916 169.982 36.9314C169.982 35.8713 170.849 35.0049 171.909 35.0049Z" fill="#3483B4"/>
<path d="M171.909 17.6778C172.969 17.6778 173.835 18.5441 173.835 19.6043C173.835 20.6644 172.969 21.5308 171.909 21.5308C170.849 21.5308 169.982 20.6644 169.982 19.6043C169.982 18.5441 170.849 17.6778 171.909 17.6778Z" fill="#3483B4"/>
<path d="M171.909 0.350632C172.969 0.350632 173.835 1.21698 173.835 2.27712C173.835 3.33726 172.969 4.20361 171.909 4.20361C170.849 4.20361 169.982 3.33726 169.982 2.27712C169.982 1.21698 170.849 0.350632 171.909 0.350632Z" fill="#3483B4"/>
<path d="M84.9324 118.929L169.982 203.979L84.9324 203.979L84.9324 118.929Z" fill="#FF9D00"/>
</svg>
