<svg width="226" height="182" viewBox="0 0 226 182" fill="none" xmlns="http://www.w3.org/2000/svg">
<path d="M79.1872 19.2604C80.0666 19.2604 80.9263 18.9993 81.6575 18.5102C82.3887 18.0212 82.9586 17.326 83.2952 16.5127C83.6317 15.6994 83.7198 14.8044 83.5482 13.941C83.3766 13.0776 82.9532 12.2845 82.3313 11.6621C81.7095 11.0396 80.9172 10.6157 80.0547 10.4439C79.1921 10.2722 78.2981 10.3603 77.4856 10.6972C76.6731 11.0341 75.9787 11.6046 75.4901 12.3365C75.0016 13.0685 74.7408 13.9291 74.7408 14.8094C74.7419 15.9895 75.2108 17.1209 76.0444 17.9554C76.878 18.7899 78.0083 19.2592 79.1872 19.2604ZM79.1872 12.5839C79.6269 12.5839 80.0568 12.7144 80.4224 12.959C80.788 13.2035 81.0729 13.5511 81.2412 13.9577C81.4095 14.3644 81.4535 14.8119 81.3677 15.2436C81.2819 15.6753 81.0702 16.0718 80.7593 16.383C80.4483 16.6943 80.0522 16.9062 79.6209 16.9921C79.1897 17.078 78.7427 17.0339 78.3364 16.8655C77.9302 16.697 77.583 16.4118 77.3387 16.0458C77.0944 15.6798 76.964 15.2495 76.964 14.8094C76.9644 14.2193 77.1987 13.6534 77.6156 13.2362C78.0324 12.8189 78.5977 12.5843 79.1872 12.5839ZM222.956 38.7067C222.369 38.7067 221.796 38.8807 221.309 39.2068C220.821 39.5329 220.441 39.9963 220.217 40.5385C219.993 41.0807 219.934 41.6773 220.048 42.2529C220.163 42.8285 220.445 43.3573 220.86 43.7723C221.274 44.1872 221.802 44.4698 222.377 44.5843C222.952 44.6988 223.548 44.6401 224.09 44.4155C224.632 44.1909 225.095 43.8106 225.42 43.3226C225.746 42.8346 225.92 42.2609 225.92 41.674C225.919 40.8873 225.607 40.133 225.051 39.5767C224.495 39.0204 223.742 38.7075 222.956 38.7067ZM222.956 43.1577C222.663 43.1577 222.376 43.0707 222.132 42.9077C221.888 42.7446 221.699 42.5129 221.586 42.2418C221.474 41.9707 221.445 41.6724 221.502 41.3846C221.559 41.0968 221.7 40.8324 221.908 40.6249C222.115 40.4174 222.379 40.2761 222.666 40.2189C222.954 40.1616 223.252 40.191 223.523 40.3033C223.794 40.4156 224.025 40.6058 224.188 40.8498C224.351 41.0937 224.438 41.3806 224.438 41.674C224.437 42.0674 224.281 42.4446 224.003 42.7227C223.725 43.0009 223.349 43.1573 222.956 43.1577ZM113.277 24.9884C112.69 24.9884 112.117 25.1625 111.63 25.4885C111.142 25.8146 110.762 26.278 110.538 26.8202C110.314 27.3624 110.255 27.959 110.369 28.5346C110.484 29.1102 110.766 29.639 111.181 30.054C111.595 30.4689 112.123 30.7516 112.698 30.8661C113.273 30.9805 113.869 30.9218 114.411 30.6972C114.953 30.4726 115.416 30.0923 115.741 29.6043C116.067 29.1163 116.241 28.5426 116.241 27.9557C116.24 27.169 115.928 26.4147 115.372 25.8584C114.816 25.3021 114.063 24.9892 113.277 24.9884ZM113.277 29.4394C112.983 29.4394 112.697 29.3524 112.453 29.1894C112.209 29.0263 112.019 28.7946 111.907 28.5235C111.795 28.2524 111.766 27.9541 111.823 27.6663C111.88 27.3785 112.021 27.1141 112.229 26.9066C112.436 26.6991 112.7 26.5578 112.987 26.5006C113.275 26.4433 113.573 26.4727 113.844 26.585C114.115 26.6973 114.346 26.8875 114.509 27.1315C114.672 27.3755 114.759 27.6623 114.759 27.9557C114.758 28.3491 114.602 28.7263 114.324 29.0044C114.046 29.2826 113.67 29.439 113.277 29.4394ZM145.884 18.7159C145.298 18.7159 144.725 18.8899 144.237 19.2159C143.75 19.542 143.37 20.0054 143.145 20.5476C142.921 21.0898 142.862 21.6865 142.977 22.2621C143.091 22.8377 143.373 23.3664 143.788 23.7814C144.202 24.1964 144.731 24.479 145.306 24.5935C145.881 24.708 146.477 24.6492 147.018 24.4246C147.56 24.2 148.023 23.8197 148.349 23.3317C148.674 22.8438 148.848 22.2701 148.848 21.6832C148.847 20.8964 148.535 20.1421 147.979 19.5858C147.423 19.0295 146.67 18.7167 145.884 18.7159ZM145.884 23.1668C145.591 23.1668 145.304 23.0798 145.06 22.9168C144.817 22.7538 144.627 22.5221 144.515 22.251C144.402 21.9799 144.373 21.6815 144.43 21.3937C144.487 21.1059 144.629 20.8416 144.836 20.6341C145.043 20.4266 145.307 20.2853 145.595 20.228C145.882 20.1708 146.18 20.2002 146.451 20.3125C146.722 20.4248 146.953 20.6149 147.116 20.8589C147.279 21.1029 147.366 21.3897 147.366 21.6832C147.366 22.0766 147.209 22.4537 146.932 22.7319C146.654 23.01 146.277 23.1665 145.884 23.1668ZM13.8485 69.3911C13.8485 68.8042 13.6747 68.2305 13.3489 67.7425C13.0232 67.2545 12.5603 66.8742 12.0186 66.6496C11.477 66.425 10.8809 66.3663 10.3059 66.4808C9.7309 66.5953 9.20271 66.8779 8.78815 67.2929C8.37358 67.7078 8.09126 68.2366 7.97688 68.8122C7.8625 69.3878 7.92121 69.9844 8.14557 70.5266C8.36993 71.0688 8.74987 71.5323 9.23735 71.8583C9.72482 72.1844 10.2979 72.3584 10.8842 72.3584C11.6702 72.3576 12.4237 72.0447 12.9794 71.4884C13.5352 70.9321 13.8477 70.1778 13.8485 69.3911ZM9.40207 69.3911C9.40207 69.0976 9.489 68.8108 9.65186 68.5668C9.81472 68.3228 10.0462 68.1326 10.317 68.0203C10.5879 67.9081 10.8859 67.8787 11.1734 67.9359C11.4609 67.9932 11.725 68.1345 11.9323 68.342C12.1395 68.5495 12.2807 68.8138 12.3379 69.1016C12.3951 69.3894 12.3657 69.6877 12.2535 69.9588C12.1414 70.2299 11.9514 70.4617 11.7077 70.6247C11.4639 70.7877 11.1774 70.8747 10.8842 70.8747C10.4913 70.8743 10.1145 70.7179 9.83662 70.4398C9.55874 70.1616 9.40246 69.7844 9.40207 69.3911Z" fill="#3483B4"/>
<path d="M0.254055 130.632L0.171231 134.624L9.0544 133.634L9.05194 133.752L3.32529 140.97L6.8053 143.035L10.5544 134.897L10.673 134.899L14.1398 143.13L17.765 141.151L12.3963 133.879L12.3987 133.761L21.005 135.056L21.0878 131.064L12.3779 131.997L12.3803 131.882L18.1034 124.84L14.8018 122.657L10.8143 130.851L10.6996 130.849L7.34863 122.563L3.60764 124.597L9.09335 131.757L9.09097 131.871L0.254055 130.632ZM43.5402 21.5128L38.5991 27.737L41.5992 29.5205L44.8317 22.4997L44.9349 22.5019L47.928 29.6021L51.054 27.8959L46.422 21.6223L46.4241 21.5191L53.8484 22.6371L53.9198 19.196L46.4059 20.0002L46.408 19.9008L51.3459 13.8258L48.5009 11.9422L45.0571 19.0121L44.9577 19.01L42.069 11.8584L38.8424 13.616L43.5759 19.7923L43.5738 19.8917L35.9497 18.8231L35.8783 22.2642L43.5424 21.4096L43.5402 21.5128Z" fill="#E88D23"/>
<path d="M10.5873 43.3126L13.2656 40.8832L12.048 39.8617L10.079 42.7727L10.0327 42.7641L9.21198 39.3586L7.68027 39.8944L9.3009 43.0503L9.29233 43.0966L6.03903 42.0479L5.75385 43.5866L9.18835 43.7789L9.18004 43.8237L6.51435 46.1852L7.65558 47.2389L9.72149 44.3219L9.76495 44.33L10.5382 47.7492L12.1174 47.1997L10.445 44.0806L10.4533 44.0357L13.7992 45.0777L14.0844 43.539L10.579 43.3575L10.5873 43.3126ZM59.0024 51.4481L57.4678 52.8076L58.1256 53.4142L59.3148 51.7348L59.3409 51.7397L59.7851 53.7083L60.6948 53.3922L59.7315 51.5967L59.7363 51.5706L61.663 52.17L61.8273 51.2835L59.809 51.1787L59.8138 51.1527L61.3556 49.7541L60.6553 49.1666L59.5207 50.8426L59.4946 50.8378L59.0218 48.8774L58.1392 49.185L59.0731 51.002L59.0683 51.028L57.1947 50.425L57.0304 51.3115L59.0072 51.422L59.0024 51.4481ZM205.949 98.8471L206.229 97.3373L202.79 97.1592L202.799 97.1144L205.425 94.7321L204.23 93.7314L202.299 96.5864L202.254 96.5781L201.448 93.2381L199.947 93.7632L201.535 96.8578L201.527 96.9026L198.336 95.8744L198.056 97.3842L201.425 97.5733L201.417 97.6167L198.803 99.9325L199.923 100.967L201.948 98.1056L201.992 98.1136L202.75 101.467L204.299 100.929L202.659 97.8693L202.667 97.8259L205.949 98.8471ZM200.783 38.1668L203.048 36.1126L202.019 35.2487L200.353 37.7118L200.314 37.7045L199.618 34.8232L198.323 35.2758L199.694 37.9456L199.687 37.9847L196.934 37.0975L196.693 38.399L199.599 38.5623L199.592 38.5999L197.337 40.5977L198.302 41.4899L200.051 39.0214L200.088 39.0284L200.741 41.9227L202.077 41.4568L200.662 38.8176L200.669 38.78L203.501 39.6609L203.742 38.3593L200.776 38.2059L200.783 38.1668Z" fill="#E88D23"/>
<path d="M132.734 135.248C136.78 135.248 140.06 131.968 140.06 127.922C140.06 123.877 136.78 120.597 132.734 120.597C128.689 120.597 125.409 123.877 125.409 127.922C125.409 131.968 128.689 135.248 132.734 135.248Z" stroke="#3483B4" stroke-width="4.5" stroke-miterlimit="10" stroke-linecap="round" stroke-linejoin="round"/>
<path d="M128.636 134.155L126.738 135.178C125.473 135.861 124.416 136.873 123.679 138.107C122.943 139.341 122.554 140.752 122.554 142.189V148.338M136.883 134.155L138.781 135.178C140.047 135.861 141.104 136.873 141.84 138.107C142.577 139.341 142.966 140.752 142.966 142.189V148.338" stroke="#3483B4" stroke-width="4.5" stroke-miterlimit="10" stroke-linecap="round" stroke-linejoin="round"/>
<path d="M159.657 135.248C163.703 135.248 166.983 131.968 166.983 127.922C166.983 123.877 163.703 120.597 159.657 120.597C155.612 120.597 152.332 123.877 152.332 127.922C152.332 131.968 155.612 135.248 159.657 135.248Z" stroke="#3483B4" stroke-width="4.5" stroke-miterlimit="10" stroke-linecap="round" stroke-linejoin="round"/>
<path d="M155.559 134.155L153.661 135.178C152.396 135.861 151.339 136.873 150.602 138.107C149.865 139.341 149.477 140.752 149.477 142.189V148.338M163.806 134.155L165.704 135.178C166.969 135.861 168.026 136.873 168.763 138.107C169.5 139.341 169.889 140.752 169.889 142.189V148.338M35.1104 51.6193H190.357M35.1104 51.6193V76.2823M35.1104 51.6193L63.1716 38.3882H166.847L190.357 51.6193M190.357 51.6193V76.2823M190.357 76.2823H35.1104M190.357 76.2823V179.642M35.1104 76.2823V179.642L63.1716 148.63V76.2826M166.847 76.2826V111.256M63.2362 148.63L91.7644 148.678M102.001 148.338H190.441V179.642H102.001V148.338Z" stroke="#3483B4" stroke-width="4.5" stroke-miterlimit="10" stroke-linecap="round" stroke-linejoin="round"/>
</svg>
