<svg width="1500" height="1501" viewBox="0 0 1500 1501" fill="none" xmlns="http://www.w3.org/2000/svg">
<path d="M1163.81 203.539C1430.02 342.959 1507.06 688.205 1325.37 927.569C1285.56 980.012 1246.46 1029.69 1238.09 1097.62C1212.25 1307.36 951.203 1388.75 810.738 1230.86C706.566 1113.77 595.187 995.932 420.542 1050.81C75.0506 1159.38 39.307 789.306 59.7166 556.37C77.3847 354.723 236.489 194.432 437.999 175.266C529.2 166.592 628.134 168.759 710.719 124.095C874.033 35.7722 1019.59 128.009 1163.81 203.539Z" fill="#E5E9EB"/>
<path d="M992.917 1138.94C969.29 1258.85 810.31 1310.31 735 1179C659.69 1047.69 602.5 945 462.507 911.134C322.514 877.267 279.316 737.071 327.502 618.958C384.345 479.628 564.204 372.797 671.026 274.547C800.26 155.684 1009.71 236.175 1026.07 410.994C1034.09 496.628 1091.76 546.11 1152.91 597.217C1291.79 713.285 1269.98 932.815 1110.97 1019.28C1058.56 1047.78 1005.68 1074.16 992.917 1138.94Z" fill="#3483B4"/>
<path opacity="0.77" d="M646.666 830.118C529.226 837.016 467.016 693.687 552.26 612.613C615.958 552.031 717.205 502.433 752 418.5C799.09 304.909 926.788 245.331 1034.05 305.461C1087.46 335.404 1138.48 365.248 1195.77 387.052C1320.01 434.334 1364.61 587.267 1285.27 693.921C1251.13 739.821 1231.52 798.228 1207.18 849.529C1129.61 1013.06 911.615 1046.94 788.07 914.664C748.402 872.192 711.139 826.332 646.666 830.118Z" fill="#FAFAFA"/>
</svg>
