<svg width="330" height="337" viewBox="0 0 330 337" fill="none" xmlns="http://www.w3.org/2000/svg">
<path d="M7.77877 333.021C7.77877 331 6.14039 329.362 4.11935 329.362C2.09831 329.362 0.459961 331 0.459961 333.021C0.459961 335.042 2.09831 336.681 4.11935 336.681C6.14039 336.681 7.77877 335.042 7.77877 333.021Z" fill="white"/>
<path d="M7.77877 300.107C7.77877 298.086 6.14039 296.447 4.11935 296.447C2.09831 296.447 0.459961 298.086 0.459961 300.107C0.459961 302.128 2.09831 303.766 4.11935 303.766C6.14039 303.766 7.77877 302.128 7.77877 300.107Z" fill="white"/>
<path d="M7.77877 267.195C7.77877 265.174 6.14039 263.535 4.11935 263.535C2.09831 263.535 0.459961 265.174 0.459961 267.195C0.459961 269.216 2.09831 270.854 4.11935 270.854C6.14039 270.854 7.77877 269.216 7.77877 267.195Z" fill="white"/>
<path d="M4.11935 230.623C6.13311 230.623 7.77877 232.269 7.77877 234.282C7.77877 236.296 6.13311 237.942 4.11935 237.942C2.10559 237.942 0.459961 236.296 0.459961 234.282C0.459961 232.269 2.10559 230.623 4.11935 230.623Z" fill="white"/>
<path d="M4.11935 197.709C6.13311 197.709 7.77877 199.355 7.77877 201.368C7.77877 203.382 6.13311 205.028 4.11935 205.028C2.10559 205.028 0.459961 203.382 0.459961 201.368C0.459961 199.355 2.10559 197.709 4.11935 197.709Z" fill="white"/>
<path d="M7.77877 168.455C7.77877 166.434 6.14039 164.796 4.11935 164.796C2.09831 164.796 0.459961 166.434 0.459961 168.455C0.459961 170.476 2.09831 172.115 4.11935 172.115C6.14039 172.115 7.77877 170.476 7.77877 168.455Z" fill="white"/>
<path d="M7.77877 135.542C7.77877 133.521 6.14039 131.883 4.11935 131.883C2.09831 131.883 0.459961 133.521 0.459961 135.542C0.459961 137.563 2.09831 139.202 4.11935 139.202C6.14039 139.202 7.77877 137.563 7.77877 135.542Z" fill="white"/>
<path d="M7.77877 102.628C7.77877 100.607 6.14039 98.9683 4.11935 98.9683C2.09831 98.9683 0.459961 100.607 0.459961 102.628C0.459961 104.649 2.09831 106.287 4.11935 106.287C6.14039 106.287 7.77877 104.649 7.77877 102.628Z" fill="white"/>
<path d="M7.77877 69.717C7.77877 67.696 6.14039 66.0577 4.11935 66.0577C2.09831 66.0577 0.459961 67.696 0.459961 69.717C0.459961 71.7381 2.09831 73.3765 4.11935 73.3765C6.14039 73.3765 7.77877 71.7381 7.77877 69.717Z" fill="white"/>
<path d="M7.77877 36.8035C7.77877 34.7824 6.14039 33.1441 4.11935 33.1441C2.09831 33.1441 0.459961 34.7824 0.459961 36.8035C0.459961 38.8245 2.09831 40.4629 4.11935 40.4629C6.14039 40.4629 7.77877 38.8245 7.77877 36.8035Z" fill="white"/>
<path d="M7.77877 3.8899C7.77877 1.86886 6.14039 0.230477 4.11935 0.230477C2.09831 0.230477 0.459961 1.86886 0.459961 3.8899C0.459961 5.91094 2.09831 7.54932 4.11935 7.54932C6.14039 7.54932 7.77877 5.91094 7.77877 3.8899Z" fill="white"/>
<path d="M37.0327 333.021C37.0327 331 35.3943 329.361 33.3733 329.361C31.3522 329.361 29.7139 331 29.7139 333.021C29.7139 335.042 31.3522 336.68 33.3733 336.68C35.3943 336.68 37.0327 335.042 37.0327 333.021Z" fill="white"/>
<path d="M37.0327 300.106C37.0327 298.085 35.3943 296.447 33.3733 296.447C31.3522 296.447 29.7139 298.085 29.7139 300.106C29.7139 302.127 31.3522 303.766 33.3733 303.766C35.3943 303.766 37.0327 302.127 37.0327 300.106Z" fill="white"/>
<path d="M37.0327 267.194C37.0327 265.173 35.3943 263.534 33.3733 263.534C31.3522 263.534 29.7139 265.173 29.7139 267.194C29.7139 269.215 31.3522 270.853 33.3733 270.853C35.3943 270.853 37.0327 269.215 37.0327 267.194Z" fill="white"/>
<path d="M33.3733 230.623C35.387 230.623 37.0327 232.268 37.0327 234.282C37.0327 236.296 35.387 237.941 33.3733 237.941C31.3595 237.941 29.7139 236.296 29.7139 234.282C29.7139 232.268 31.3595 230.623 33.3733 230.623Z" fill="white"/>
<path d="M33.3733 197.708C35.387 197.708 37.0327 199.354 37.0327 201.367C37.0327 203.381 35.387 205.027 33.3733 205.027C31.3595 205.027 29.7139 203.381 29.7139 201.367C29.7139 199.354 31.3595 197.708 33.3733 197.708Z" fill="white"/>
<path d="M37.0327 168.455C37.0327 166.434 35.3943 164.795 33.3733 164.795C31.3522 164.795 29.7139 166.434 29.7139 168.455C29.7139 170.476 31.3522 172.114 33.3733 172.114C35.3943 172.114 37.0327 170.476 37.0327 168.455Z" fill="white"/>
<path d="M37.0327 135.541C37.0327 133.52 35.3943 131.882 33.3733 131.882C31.3522 131.882 29.7139 133.52 29.7139 135.541C29.7139 137.562 31.3522 139.201 33.3733 139.201C35.3943 139.201 37.0327 137.562 37.0327 135.541Z" fill="white"/>
<path d="M37.0327 102.627C37.0327 100.606 35.3943 98.9673 33.3733 98.9673C31.3522 98.9673 29.7139 100.606 29.7139 102.627C29.7139 104.648 31.3522 106.286 33.3733 106.286C35.3943 106.286 37.0327 104.648 37.0327 102.627Z" fill="white"/>
<path d="M37.0327 69.7161C37.0327 67.695 35.3943 66.0567 33.3733 66.0567C31.3522 66.0567 29.7139 67.695 29.7139 69.7161C29.7139 71.7371 31.3522 73.3755 33.3733 73.3755C35.3943 73.3755 37.0327 71.7371 37.0327 69.7161Z" fill="white"/>
<path d="M37.0327 36.8025C37.0327 34.7815 35.3943 33.1431 33.3733 33.1431C31.3522 33.1431 29.7139 34.7815 29.7139 36.8025C29.7139 38.8235 31.3522 40.4619 33.3733 40.4619C35.3943 40.4619 37.0327 38.8235 37.0327 36.8025Z" fill="white"/>
<path d="M37.0327 3.88892C37.0327 1.86788 35.3943 0.2295 33.3733 0.2295C31.3522 0.2295 29.7139 1.86788 29.7139 3.88892C29.7139 5.90996 31.3522 7.54834 33.3733 7.54834C35.3943 7.54834 37.0327 5.90996 37.0327 3.88892Z" fill="white"/>
<path d="M66.2866 333.021C66.2866 331 64.6482 329.362 62.6272 329.362C60.6062 329.362 58.9678 331 58.9678 333.021C58.9678 335.042 60.6062 336.681 62.6272 336.681C64.6482 336.681 66.2866 335.042 66.2866 333.021Z" fill="white"/>
<path d="M66.2866 300.107C66.2866 298.086 64.6482 296.447 62.6272 296.447C60.6062 296.447 58.9678 298.086 58.9678 300.107C58.9678 302.128 60.6062 303.766 62.6272 303.766C64.6482 303.766 66.2866 302.128 66.2866 300.107Z" fill="white"/>
<path d="M66.2866 267.194C66.2866 265.173 64.6482 263.535 62.6272 263.535C60.6062 263.535 58.9678 265.173 58.9678 267.194C58.9678 269.215 60.6062 270.854 62.6272 270.854C64.6482 270.854 66.2866 269.215 66.2866 267.194Z" fill="white"/>
<path d="M62.6272 230.623C64.641 230.623 66.2866 232.269 66.2866 234.282C66.2866 236.296 64.641 237.942 62.6272 237.942C60.6134 237.942 58.9678 236.296 58.9678 234.282C58.9678 232.269 60.6134 230.623 62.6272 230.623Z" fill="white"/>
<path d="M62.6272 197.709C64.641 197.709 66.2866 199.354 66.2866 201.368C66.2866 203.382 64.641 205.027 62.6272 205.027C60.6134 205.027 58.9678 203.382 58.9678 201.368C58.9678 199.354 60.6134 197.709 62.6272 197.709Z" fill="white"/>
<path d="M66.2866 168.455C66.2866 166.434 64.6482 164.796 62.6272 164.796C60.6062 164.796 58.9678 166.434 58.9678 168.455C58.9678 170.476 60.6062 172.115 62.6272 172.115C64.6482 172.115 66.2866 170.476 66.2866 168.455Z" fill="white"/>
<path d="M66.2866 135.542C66.2866 133.521 64.6482 131.882 62.6272 131.882C60.6062 131.882 58.9678 133.521 58.9678 135.542C58.9678 137.563 60.6062 139.201 62.6272 139.201C64.6482 139.201 66.2866 137.563 66.2866 135.542Z" fill="white"/>
<path d="M66.2866 102.627C66.2866 100.606 64.6482 98.9678 62.6272 98.9678C60.6062 98.9678 58.9678 100.606 58.9678 102.627C58.9678 104.648 60.6062 106.287 62.6272 106.287C64.6482 106.287 66.2866 104.648 66.2866 102.627Z" fill="white"/>
<path d="M66.2866 69.7166C66.2866 67.6955 64.6482 66.0572 62.6272 66.0572C60.6062 66.0572 58.9678 67.6955 58.9678 69.7166C58.9678 71.7376 60.6062 73.376 62.6272 73.376C64.6482 73.376 66.2866 71.7376 66.2866 69.7166Z" fill="white"/>
<path d="M66.2866 36.803C66.2866 34.7819 64.6482 33.1436 62.6272 33.1436C60.6062 33.1436 58.9678 34.7819 58.9678 36.803C58.9678 38.824 60.6062 40.4624 62.6272 40.4624C64.6482 40.4624 66.2866 38.824 66.2866 36.803Z" fill="white"/>
<path d="M66.2866 3.88941C66.2866 1.86837 64.6482 0.229988 62.6272 0.229988C60.6062 0.229989 58.9678 1.86837 58.9678 3.88941C58.9678 5.91045 60.6062 7.54883 62.6272 7.54883C64.6482 7.54883 66.2866 5.91045 66.2866 3.88941Z" fill="white"/>
<path d="M91.8801 329.361C93.8939 329.361 95.5395 331.007 95.5395 333.021C95.5395 335.035 93.8939 336.68 91.8801 336.68C89.8664 336.68 88.2207 335.035 88.2207 333.021C88.2207 331.007 89.8664 329.361 91.8801 329.361Z" fill="white"/>
<path d="M91.8801 296.447C93.8939 296.447 95.5395 298.093 95.5395 300.107C95.5395 302.12 93.8939 303.766 91.8801 303.766C89.8664 303.766 88.2207 302.12 88.2207 300.107C88.2207 298.093 89.8664 296.447 91.8801 296.447Z" fill="white"/>
<path d="M91.8801 263.534C93.8939 263.534 95.5395 265.18 95.5395 267.194C95.5395 269.207 93.8939 270.853 91.8801 270.853C89.8664 270.853 88.2207 269.207 88.2207 267.194C88.2207 265.18 89.8664 263.534 91.8801 263.534Z" fill="white"/>
<path d="M91.8801 230.623C93.8939 230.623 95.5395 232.268 95.5395 234.282C95.5395 236.296 93.8939 237.941 91.8801 237.941C89.8664 237.941 88.2207 236.296 88.2207 234.282C88.2207 232.268 89.8664 230.623 91.8801 230.623Z" fill="white"/>
<path d="M91.8801 197.709C93.8939 197.709 95.5395 199.354 95.5395 201.368C95.5395 203.382 93.8939 205.027 91.8801 205.027C89.8664 205.027 88.2207 203.382 88.2207 201.368C88.2207 199.354 89.8664 197.709 91.8801 197.709Z" fill="white"/>
<path d="M91.8801 164.796C93.8939 164.796 95.5395 166.442 95.5395 168.455C95.5395 170.469 93.8939 172.115 91.8801 172.115C89.8664 172.115 88.2207 170.469 88.2207 168.455C88.2207 166.442 89.8664 164.796 91.8801 164.796Z" fill="white"/>
<path d="M91.8801 131.882C93.8939 131.882 95.5395 133.528 95.5395 135.542C95.5395 137.556 93.8939 139.201 91.8801 139.201C89.8664 139.201 88.2207 137.556 88.2207 135.542C88.2207 133.528 89.8664 131.882 91.8801 131.882Z" fill="white"/>
<path d="M91.8801 98.9683C93.8939 98.9683 95.5395 100.614 95.5395 102.628C95.5395 104.641 93.8939 106.287 91.8801 106.287C89.8664 106.287 88.2207 104.641 88.2207 102.628C88.2207 100.614 89.8664 98.9683 91.8801 98.9683Z" fill="white"/>
<path d="M91.8801 66.0572C93.8939 66.0572 95.5395 67.7028 95.5395 69.7166C95.5395 71.7303 93.8939 73.376 91.8801 73.376C89.8664 73.376 88.2207 71.7303 88.2207 69.7166C88.2207 67.7028 89.8664 66.0572 91.8801 66.0572Z" fill="white"/>
<path d="M91.8801 33.1441C93.8939 33.1441 95.5395 34.7897 95.5395 36.8035C95.5395 38.8172 93.8939 40.4629 91.8801 40.4629C89.8664 40.4629 88.2207 38.8172 88.2207 36.8035C88.2207 34.7897 89.8664 33.1441 91.8801 33.1441Z" fill="white"/>
<path d="M91.8801 0.230477C93.8939 0.230477 95.5395 1.87614 95.5395 3.8899C95.5395 5.90366 93.8939 7.54932 91.8801 7.54932C89.8664 7.54932 88.2207 5.90366 88.2207 3.8899C88.2207 1.87614 89.8664 0.230477 91.8801 0.230477Z" fill="white"/>
<path d="M121.134 329.362C123.148 329.362 124.793 331.008 124.793 333.022C124.793 335.036 123.148 336.681 121.134 336.681C119.12 336.681 117.475 335.036 117.475 333.022C117.475 331.008 119.12 329.362 121.134 329.362Z" fill="white"/>
<path d="M121.134 296.448C123.148 296.448 124.793 298.094 124.793 300.108C124.793 302.121 123.148 303.767 121.134 303.767C119.12 303.767 117.475 302.121 117.475 300.108C117.475 298.094 119.12 296.448 121.134 296.448Z" fill="white"/>
<path d="M121.134 263.536C123.148 263.536 124.793 265.182 124.793 267.196C124.793 269.209 123.148 270.855 121.134 270.855C119.12 270.855 117.475 269.209 117.475 267.196C117.475 265.182 119.12 263.536 121.134 263.536Z" fill="white"/>
<path d="M121.134 230.624C123.148 230.624 124.793 232.27 124.793 234.283C124.793 236.297 123.148 237.943 121.134 237.943C119.12 237.943 117.475 236.297 117.475 234.283C117.475 232.27 119.12 230.624 121.134 230.624Z" fill="white"/>
<path d="M121.134 197.71C123.148 197.71 124.793 199.356 124.793 201.369C124.793 203.383 123.148 205.029 121.134 205.029C119.12 205.029 117.475 203.383 117.475 201.369C117.475 199.356 119.12 197.71 121.134 197.71Z" fill="white"/>
<path d="M121.134 164.797C123.148 164.797 124.793 166.443 124.793 168.456C124.793 170.47 123.148 172.116 121.134 172.116C119.12 172.116 117.475 170.47 117.475 168.456C117.475 166.443 119.12 164.797 121.134 164.797Z" fill="white"/>
<path d="M121.134 131.884C123.148 131.884 124.793 133.529 124.793 135.543C124.793 137.557 123.148 139.203 121.134 139.203C119.12 139.203 117.475 137.557 117.475 135.543C117.475 133.529 119.12 131.884 121.134 131.884Z" fill="white"/>
<path d="M121.134 98.9693C123.148 98.9693 124.793 100.615 124.793 102.629C124.793 104.642 123.148 106.288 121.134 106.288C119.12 106.288 117.475 104.642 117.475 102.629C117.475 100.615 119.12 98.9693 121.134 98.9693Z" fill="white"/>
<path d="M121.134 66.0586C123.148 66.0586 124.793 67.7043 124.793 69.718C124.793 71.7318 123.148 73.3774 121.134 73.3774C119.12 73.3774 117.475 71.7318 117.475 69.718C117.475 67.7043 119.12 66.0586 121.134 66.0586Z" fill="white"/>
<path d="M121.134 33.145C123.148 33.145 124.793 34.7907 124.793 36.8044C124.793 38.8182 123.148 40.4639 121.134 40.4639C119.12 40.4639 117.475 38.8182 117.475 36.8044C117.475 34.7907 119.12 33.145 121.134 33.145Z" fill="white"/>
<path d="M121.134 0.231453C123.148 0.231453 124.793 1.87711 124.793 3.89087C124.793 5.90463 123.148 7.55029 121.134 7.55029C119.12 7.55029 117.475 5.90463 117.475 3.89087C117.475 1.87711 119.12 0.231453 121.134 0.231453Z" fill="white"/>
<path d="M150.387 329.362C152.401 329.362 154.046 331.008 154.046 333.022C154.046 335.036 152.401 336.681 150.387 336.681C148.373 336.681 146.728 335.036 146.728 333.022C146.728 331.008 148.373 329.362 150.387 329.362Z" fill="white"/>
<path d="M150.387 296.448C152.401 296.448 154.046 298.094 154.046 300.108C154.046 302.121 152.401 303.767 150.387 303.767C148.373 303.767 146.728 302.121 146.728 300.108C146.728 298.094 148.373 296.448 150.387 296.448Z" fill="white"/>
<path d="M150.387 263.536C152.401 263.536 154.046 265.181 154.046 267.195C154.046 269.209 152.401 270.854 150.387 270.854C148.373 270.854 146.728 269.209 146.728 267.195C146.728 265.181 148.373 263.536 150.387 263.536Z" fill="white"/>
<path d="M150.387 230.624C152.401 230.624 154.046 232.27 154.046 234.283C154.046 236.297 152.401 237.943 150.387 237.943C148.373 237.943 146.728 236.297 146.728 234.283C146.728 232.27 148.373 230.624 150.387 230.624Z" fill="white"/>
<path d="M150.387 197.71C152.401 197.71 154.046 199.356 154.046 201.369C154.046 203.383 152.401 205.029 150.387 205.029C148.373 205.029 146.728 203.383 146.728 201.369C146.728 199.356 148.373 197.71 150.387 197.71Z" fill="white"/>
<path d="M150.387 164.797C152.401 164.797 154.046 166.443 154.046 168.456C154.046 170.47 152.401 172.116 150.387 172.116C148.373 172.116 146.728 170.47 146.728 168.456C146.728 166.443 148.373 164.797 150.387 164.797Z" fill="white"/>
<path d="M150.387 131.884C152.401 131.884 154.046 133.529 154.046 135.543C154.046 137.557 152.401 139.203 150.387 139.203C148.373 139.203 146.728 137.557 146.728 135.543C146.728 133.529 148.373 131.884 150.387 131.884Z" fill="white"/>
<path d="M150.387 98.9693C152.401 98.9693 154.046 100.615 154.046 102.629C154.046 104.642 152.401 106.288 150.387 106.288C148.373 106.288 146.728 104.642 146.728 102.629C146.728 100.615 148.373 98.9693 150.387 98.9693Z" fill="white"/>
<path d="M150.387 66.0586C152.401 66.0586 154.046 67.7043 154.046 69.718C154.046 71.7318 152.401 73.3774 150.387 73.3774C148.373 73.3774 146.728 71.7318 146.728 69.718C146.728 67.7043 148.373 66.0586 150.387 66.0586Z" fill="white"/>
<path d="M150.387 33.145C152.401 33.145 154.046 34.7907 154.046 36.8044C154.046 38.8182 152.401 40.4639 150.387 40.4639C148.373 40.4639 146.728 38.8182 146.728 36.8044C146.728 34.7907 148.373 33.145 150.387 33.145Z" fill="white"/>
<path d="M150.387 0.231453C152.401 0.231453 154.046 1.87711 154.046 3.89087C154.046 5.90463 152.401 7.55029 150.387 7.55029C148.373 7.55029 146.728 5.90463 146.728 3.89087C146.728 1.87711 148.373 0.231453 150.387 0.231453Z" fill="white"/>
<path d="M183.3 333.021C183.3 331 181.662 329.362 179.641 329.362C177.62 329.362 175.981 331 175.981 333.021C175.981 335.042 177.62 336.681 179.641 336.681C181.662 336.681 183.3 335.042 183.3 333.021Z" fill="white"/>
<path d="M183.3 300.107C183.3 298.086 181.662 296.448 179.641 296.448C177.62 296.448 175.981 298.086 175.981 300.107C175.981 302.128 177.62 303.767 179.641 303.767C181.662 303.767 183.3 302.128 183.3 300.107Z" fill="white"/>
<path d="M183.3 267.195C183.3 265.174 181.662 263.535 179.641 263.535C177.62 263.535 175.981 265.174 175.981 267.195C175.981 269.216 177.62 270.854 179.641 270.854C181.662 270.854 183.3 269.216 183.3 267.195Z" fill="white"/>
<path d="M179.641 230.624C181.655 230.624 183.3 232.269 183.3 234.283C183.3 236.297 181.655 237.942 179.641 237.942C177.627 237.942 175.981 236.297 175.981 234.283C176.003 232.269 177.627 230.624 179.641 230.624Z" fill="white"/>
<path d="M179.641 197.709C181.655 197.709 183.3 199.355 183.3 201.368C183.3 203.382 181.655 205.028 179.641 205.028C177.627 205.028 175.981 203.382 175.981 201.368C176.003 199.355 177.627 197.709 179.641 197.709Z" fill="white"/>
<path d="M183.3 168.456C183.3 166.435 181.662 164.796 179.641 164.796C177.62 164.796 175.981 166.435 175.981 168.456C175.981 170.477 177.62 172.115 179.641 172.115C181.662 172.115 183.3 170.477 183.3 168.456Z" fill="white"/>
<path d="M183.3 135.542C183.3 133.521 181.662 131.883 179.641 131.883C177.62 131.883 175.981 133.521 175.981 135.542C175.981 137.563 177.62 139.202 179.641 139.202C181.662 139.202 183.3 137.563 183.3 135.542Z" fill="white"/>
<path d="M183.3 102.628C183.3 100.607 181.662 98.9683 179.641 98.9683C177.62 98.9683 175.981 100.607 175.981 102.628C175.981 104.649 177.62 106.287 179.641 106.287C181.662 106.287 183.3 104.649 183.3 102.628Z" fill="white"/>
<path d="M183.3 69.717C183.3 67.696 181.662 66.0577 179.641 66.0577C177.62 66.0577 175.981 67.696 175.981 69.717C175.981 71.7381 177.62 73.3765 179.641 73.3765C181.662 73.3765 183.3 71.7381 183.3 69.717Z" fill="white"/>
<path d="M183.3 36.8035C183.3 34.7824 181.662 33.1441 179.641 33.1441C177.62 33.1441 175.981 34.7824 175.981 36.8035C175.981 38.8245 177.62 40.4629 179.641 40.4629C181.662 40.4629 183.3 38.8245 183.3 36.8035Z" fill="white"/>
<path d="M183.3 3.8899C183.3 1.86886 181.662 0.230477 179.641 0.230477C177.62 0.230477 175.981 1.86886 175.981 3.8899C175.981 5.91094 177.62 7.54932 179.641 7.54932C181.662 7.54932 183.3 5.91094 183.3 3.8899Z" fill="white"/>
<path d="M208.916 329.362C210.93 329.362 212.576 331.007 212.576 333.021C212.576 335.035 210.93 336.681 208.916 336.681C206.902 336.681 205.257 335.035 205.257 333.021C205.257 331.007 206.881 329.362 208.916 329.362Z" fill="white"/>
<path d="M208.916 296.448C210.93 296.448 212.576 298.093 212.576 300.107C212.576 302.121 210.93 303.767 208.916 303.767C206.902 303.767 205.257 302.121 205.257 300.107C205.257 298.093 206.881 296.448 208.916 296.448Z" fill="white"/>
<path d="M208.916 263.535C210.93 263.535 212.576 265.181 212.576 267.195C212.576 269.208 210.93 270.854 208.916 270.854C206.902 270.854 205.257 269.208 205.257 267.195C205.257 265.181 206.881 263.535 208.916 263.535Z" fill="white"/>
<path d="M208.916 230.624C210.93 230.624 212.576 232.269 212.576 234.283C212.576 236.297 210.93 237.942 208.916 237.942C206.902 237.942 205.257 236.297 205.257 234.283C205.257 232.269 206.881 230.624 208.916 230.624Z" fill="white"/>
<path d="M208.916 197.709C210.93 197.709 212.576 199.355 212.576 201.368C212.576 203.382 210.93 205.028 208.916 205.028C206.902 205.028 205.257 203.382 205.257 201.368C205.257 199.355 206.881 197.709 208.916 197.709Z" fill="white"/>
<path d="M208.916 164.796C210.93 164.796 212.576 166.442 212.576 168.455C212.576 170.469 210.93 172.115 208.916 172.115C206.902 172.115 205.257 170.469 205.257 168.455C205.257 166.442 206.881 164.796 208.916 164.796Z" fill="white"/>
<path d="M208.916 131.883C210.93 131.883 212.576 133.528 212.576 135.542C212.576 137.556 210.93 139.202 208.916 139.202C206.902 139.202 205.257 137.556 205.257 135.542C205.257 133.528 206.881 131.883 208.916 131.883Z" fill="white"/>
<path d="M208.916 98.9683C210.93 98.9683 212.576 100.614 212.576 102.628C212.576 104.641 210.93 106.287 208.916 106.287C206.902 106.287 205.257 104.641 205.257 102.628C205.257 100.614 206.881 98.9683 208.916 98.9683Z" fill="white"/>
<path d="M208.916 66.0577C210.93 66.0577 212.576 67.7033 212.576 69.717C212.576 71.7308 210.93 73.3765 208.916 73.3765C206.902 73.3765 205.257 71.7308 205.257 69.717C205.257 67.7033 206.881 66.0577 208.916 66.0577Z" fill="white"/>
<path d="M208.916 33.1441C210.93 33.1441 212.576 34.7897 212.576 36.8035C212.576 38.8172 210.93 40.4629 208.916 40.4629C206.902 40.4629 205.257 38.8172 205.257 36.8035C205.257 34.7897 206.881 33.1441 208.916 33.1441Z" fill="white"/>
<path d="M208.916 0.230477C210.93 0.230477 212.576 1.87614 212.576 3.8899C212.576 5.90366 210.93 7.54932 208.916 7.54932C206.902 7.54932 205.257 5.90366 205.257 3.8899C205.257 1.87614 206.881 0.230477 208.916 0.230477Z" fill="white"/>
<path d="M238.17 329.362C240.184 329.362 241.83 331.007 241.83 333.021C241.83 335.035 240.184 336.681 238.17 336.681C236.156 336.681 234.511 335.035 234.511 333.021C234.511 331.007 236.135 329.362 238.17 329.362Z" fill="white"/>
<path d="M238.17 296.447C240.184 296.447 241.83 298.093 241.83 300.107C241.83 302.12 240.184 303.766 238.17 303.766C236.156 303.766 234.511 302.12 234.511 300.107C234.511 298.093 236.135 296.447 238.17 296.447Z" fill="white"/>
<path d="M238.17 263.535C240.184 263.535 241.83 265.18 241.83 267.194C241.83 269.208 240.184 270.854 238.17 270.854C236.156 270.854 234.511 269.208 234.511 267.194C234.511 265.18 236.135 263.535 238.17 263.535Z" fill="white"/>
<path d="M238.17 230.623C240.184 230.623 241.83 232.269 241.83 234.282C241.83 236.296 240.184 237.942 238.17 237.942C236.156 237.942 234.511 236.296 234.511 234.282C234.511 232.269 236.135 230.623 238.17 230.623Z" fill="white"/>
<path d="M238.17 197.709C240.184 197.709 241.83 199.355 241.83 201.368C241.83 203.382 240.184 205.028 238.17 205.028C236.156 205.028 234.511 203.382 234.511 201.368C234.511 199.355 236.135 197.709 238.17 197.709Z" fill="white"/>
<path d="M238.17 164.796C240.184 164.796 241.83 166.442 241.83 168.455C241.83 170.469 240.184 172.115 238.17 172.115C236.156 172.115 234.511 170.469 234.511 168.455C234.511 166.442 236.135 164.796 238.17 164.796Z" fill="white"/>
<path d="M238.17 131.883C240.184 131.883 241.83 133.528 241.83 135.542C241.83 137.556 240.184 139.202 238.17 139.202C236.156 139.202 234.511 137.556 234.511 135.542C234.511 133.528 236.135 131.883 238.17 131.883Z" fill="white"/>
<path d="M238.17 98.9683C240.184 98.9683 241.83 100.614 241.83 102.628C241.83 104.641 240.184 106.287 238.17 106.287C236.156 106.287 234.511 104.641 234.511 102.628C234.511 100.614 236.135 98.9683 238.17 98.9683Z" fill="white"/>
<path d="M238.17 66.0577C240.184 66.0577 241.83 67.7033 241.83 69.717C241.83 71.7308 240.184 73.3765 238.17 73.3765C236.156 73.3765 234.511 71.7308 234.511 69.717C234.511 67.7033 236.135 66.0577 238.17 66.0577Z" fill="white"/>
<path d="M238.17 33.1441C240.184 33.1441 241.83 34.7897 241.83 36.8035C241.83 38.8172 240.184 40.4629 238.17 40.4629C236.156 40.4629 234.511 38.8172 234.511 36.8035C234.511 34.7897 236.135 33.1441 238.17 33.1441Z" fill="white"/>
<path d="M238.17 0.230477C240.184 0.230477 241.83 1.87614 241.83 3.8899C241.83 5.90366 240.184 7.54932 238.17 7.54932C236.156 7.54932 234.511 5.90366 234.511 3.8899C234.511 1.87614 236.135 0.230477 238.17 0.230477Z" fill="white"/>
<path d="M267.424 329.362C269.438 329.362 271.083 331.007 271.083 333.021C271.083 335.035 269.438 336.681 267.424 336.681C265.41 336.681 263.765 335.035 263.765 333.021C263.765 331.007 265.41 329.362 267.424 329.362Z" fill="white"/>
<path d="M267.424 296.447C269.438 296.447 271.083 298.093 271.083 300.107C271.083 302.12 269.438 303.766 267.424 303.766C265.41 303.766 263.765 302.12 263.765 300.107C263.765 298.093 265.41 296.447 267.424 296.447Z" fill="white"/>
<path d="M267.424 263.535C269.438 263.535 271.083 265.18 271.083 267.194C271.083 269.208 269.438 270.854 267.424 270.854C265.41 270.854 263.765 269.208 263.765 267.194C263.765 265.18 265.41 263.535 267.424 263.535Z" fill="white"/>
<path d="M267.424 230.623C269.438 230.623 271.083 232.269 271.083 234.282C271.083 236.296 269.438 237.942 267.424 237.942C265.41 237.942 263.765 236.296 263.765 234.282C263.765 232.269 265.41 230.623 267.424 230.623Z" fill="white"/>
<path d="M267.424 197.709C269.438 197.709 271.083 199.355 271.083 201.368C271.083 203.382 269.438 205.028 267.424 205.028C265.41 205.028 263.765 203.382 263.765 201.368C263.765 199.355 265.41 197.709 267.424 197.709Z" fill="white"/>
<path d="M267.424 164.796C269.438 164.796 271.083 166.442 271.083 168.455C271.083 170.469 269.438 172.115 267.424 172.115C265.41 172.115 263.765 170.469 263.765 168.455C263.765 166.442 265.41 164.796 267.424 164.796Z" fill="white"/>
<path d="M267.424 131.883C269.438 131.883 271.083 133.528 271.083 135.542C271.083 137.556 269.438 139.202 267.424 139.202C265.41 139.202 263.765 137.556 263.765 135.542C263.765 133.528 265.41 131.883 267.424 131.883Z" fill="white"/>
<path d="M267.424 98.9683C269.438 98.9683 271.083 100.614 271.083 102.628C271.083 104.641 269.438 106.287 267.424 106.287C265.41 106.287 263.765 104.641 263.765 102.628C263.765 100.614 265.41 98.9683 267.424 98.9683Z" fill="white"/>
<path d="M267.424 66.0572C269.438 66.0572 271.083 67.7028 271.083 69.7166C271.083 71.7303 269.438 73.376 267.424 73.376C265.41 73.376 263.765 71.7303 263.765 69.7166C263.765 67.7028 265.41 66.0572 267.424 66.0572Z" fill="white"/>
<path d="M267.424 33.1436C269.438 33.1436 271.083 34.7892 271.083 36.803C271.083 38.8167 269.438 40.4624 267.424 40.4624C265.41 40.4624 263.765 38.8167 263.765 36.803C263.765 34.7892 265.41 33.1436 267.424 33.1436Z" fill="white"/>
<path d="M267.424 0.230477C269.438 0.230477 271.083 1.87614 271.083 3.8899C271.083 5.90366 269.438 7.54932 267.424 7.54932C265.41 7.54932 263.765 5.90366 263.765 3.8899C263.765 1.87614 265.41 0.230477 267.424 0.230477Z" fill="white"/>
<path d="M300.336 333.021C300.336 331 298.698 329.362 296.677 329.362C294.656 329.362 293.018 331 293.018 333.021C293.018 335.042 294.656 336.681 296.677 336.681C298.698 336.681 300.336 335.042 300.336 333.021Z" fill="white"/>
<path d="M300.336 300.108C300.336 298.087 298.698 296.448 296.677 296.448C294.656 296.448 293.018 298.087 293.018 300.108C293.018 302.129 294.656 303.767 296.677 303.767C298.698 303.767 300.336 302.129 300.336 300.108Z" fill="white"/>
<path d="M300.336 267.195C300.336 265.174 298.698 263.535 296.677 263.535C294.656 263.535 293.018 265.174 293.018 267.195C293.018 269.216 294.656 270.854 296.677 270.854C298.698 270.854 300.336 269.216 300.336 267.195Z" fill="white"/>
<path d="M296.677 230.624C298.691 230.624 300.336 232.269 300.336 234.283C300.336 236.297 298.691 237.942 296.677 237.942C294.663 237.942 293.018 236.297 293.018 234.283C293.018 232.269 294.663 230.624 296.677 230.624Z" fill="white"/>
<path d="M296.677 197.709C298.691 197.709 300.336 199.355 300.336 201.368C300.336 203.382 298.691 205.028 296.677 205.028C294.663 205.028 293.018 203.382 293.018 201.368C293.018 199.355 294.663 197.709 296.677 197.709Z" fill="white"/>
<path d="M300.336 168.456C300.336 166.435 298.698 164.796 296.677 164.796C294.656 164.796 293.018 166.435 293.018 168.456C293.018 170.477 294.656 172.115 296.677 172.115C298.698 172.115 300.336 170.477 300.336 168.456Z" fill="white"/>
<path d="M300.336 135.542C300.336 133.521 298.698 131.883 296.677 131.883C294.656 131.883 293.018 133.521 293.018 135.542C293.018 137.563 294.656 139.202 296.677 139.202C298.698 139.202 300.336 137.563 300.336 135.542Z" fill="white"/>
<path d="M300.336 102.628C300.336 100.607 298.698 98.9688 296.677 98.9688C294.656 98.9688 293.018 100.607 293.018 102.628C293.018 104.649 294.656 106.288 296.677 106.288C298.698 106.288 300.336 104.649 300.336 102.628Z" fill="white"/>
<path d="M300.336 69.7175C300.336 67.6965 298.698 66.0581 296.677 66.0581C294.656 66.0581 293.018 67.6965 293.018 69.7175C293.018 71.7386 294.656 73.377 296.677 73.377C298.698 73.377 300.336 71.7386 300.336 69.7175Z" fill="white"/>
<path d="M300.336 36.804C300.336 34.7829 298.698 33.1445 296.677 33.1445C294.656 33.1445 293.018 34.7829 293.018 36.804C293.018 38.825 294.656 40.4634 296.677 40.4634C298.698 40.4634 300.336 38.825 300.336 36.804Z" fill="white"/>
<path d="M300.336 3.89038C300.336 1.86935 298.698 0.230965 296.677 0.230965C294.656 0.230965 293.018 1.86935 293.018 3.89038C293.018 5.91142 294.656 7.5498 296.677 7.5498C298.698 7.5498 300.336 5.91142 300.336 3.89038Z" fill="white"/>
<path d="M325.932 329.362C327.946 329.362 329.591 331.007 329.591 333.021C329.591 335.035 327.946 336.681 325.932 336.681C323.918 336.681 322.272 335.035 322.272 333.021C322.272 331.007 323.918 329.362 325.932 329.362Z" fill="white"/>
<path d="M325.932 296.448C327.946 296.448 329.591 298.093 329.591 300.107C329.591 302.121 327.946 303.767 325.932 303.767C323.918 303.767 322.272 302.121 322.272 300.107C322.272 298.093 323.918 296.448 325.932 296.448Z" fill="white"/>
<path d="M325.932 263.535C327.946 263.535 329.591 265.18 329.591 267.194C329.591 269.208 327.946 270.854 325.932 270.854C323.918 270.854 322.272 269.208 322.272 267.194C322.272 265.18 323.918 263.535 325.932 263.535Z" fill="white"/>
<path d="M325.932 230.623C327.946 230.623 329.591 232.269 329.591 234.282C329.591 236.296 327.946 237.942 325.932 237.942C323.918 237.942 322.272 236.296 322.272 234.282C322.272 232.269 323.918 230.623 325.932 230.623Z" fill="white"/>
<path d="M325.932 197.709C327.946 197.709 329.591 199.355 329.591 201.368C329.591 203.382 327.946 205.028 325.932 205.028C323.918 205.028 322.272 203.382 322.272 201.368C322.272 199.355 323.918 197.709 325.932 197.709Z" fill="white"/>
<path d="M325.932 164.796C327.946 164.796 329.591 166.442 329.591 168.456C329.591 170.47 327.946 172.115 325.932 172.115C323.918 172.115 322.272 170.47 322.272 168.456C322.272 166.442 323.918 164.796 325.932 164.796Z" fill="white"/>
<path d="M325.932 131.883C327.946 131.883 329.591 133.528 329.591 135.542C329.591 137.556 327.946 139.202 325.932 139.202C323.918 139.202 322.272 137.556 322.272 135.542C322.272 133.528 323.918 131.883 325.932 131.883Z" fill="white"/>
<path d="M325.932 98.9688C327.946 98.9688 329.591 100.614 329.591 102.628C329.591 104.642 327.946 106.288 325.932 106.288C323.918 106.288 322.272 104.642 322.272 102.628C322.272 100.614 323.918 98.9688 325.932 98.9688Z" fill="white"/>
<path d="M325.932 66.0577C327.946 66.0577 329.591 67.7033 329.591 69.717C329.591 71.7308 327.946 73.3765 325.932 73.3765C323.918 73.3765 322.272 71.7308 322.272 69.717C322.272 67.7033 323.918 66.0577 325.932 66.0577Z" fill="white"/>
<path d="M325.932 33.1445C327.946 33.1445 329.591 34.7902 329.591 36.804C329.591 38.8177 327.946 40.4634 325.932 40.4634C323.918 40.4634 322.272 38.8177 322.272 36.804C322.272 34.7902 323.918 33.1445 325.932 33.1445Z" fill="white"/>
<path d="M325.932 0.230965C327.946 0.230965 329.591 1.87662 329.591 3.89038C329.591 5.90415 327.946 7.5498 325.932 7.5498C323.918 7.5498 322.272 5.90415 322.272 3.89038C322.272 1.87662 323.918 0.230965 325.932 0.230965Z" fill="white"/>
</svg>
