<svg width="171" height="35" viewBox="0 0 171 35" fill="none" xmlns="http://www.w3.org/2000/svg">
<path d="M153.95 8.09113C148.863 10.2132 146.459 16.0571 148.581 21.144C150.703 26.2308 156.547 28.6343 161.634 26.5122C166.721 24.3902 169.124 18.5462 167.002 13.4594C164.88 8.37254 159.036 5.96909 153.95 8.09113Z" fill="#FF9D00"/>
<path d="M48.9861 34.2817C58.3561 34.2817 65.9561 26.6817 65.9561 17.3117C65.9561 7.94174 58.3561 0.341735 48.9861 0.341734C39.6161 0.341734 32.0161 7.94174 32.0161 17.3117C32.0161 26.6817 39.6161 34.2817 48.9861 34.2817ZM48.9861 9.21174C53.4561 9.21174 57.0761 12.8317 57.0761 17.3017C57.0761 21.7717 53.4561 25.3917 48.9861 25.3917C44.5161 25.3917 40.8961 21.7717 40.8961 17.3017C40.8961 12.8317 44.5161 9.21173 48.9861 9.21174Z" fill="#FF9D00"/>
<path d="M9.92639 27.1616C15.3664 27.1616 19.7764 22.7516 19.7764 17.3116C19.7764 11.8716 15.3664 7.46162 9.92639 7.46162C4.48639 7.46162 0.0763563 11.8716 0.0763558 17.3116C0.0763554 22.7516 4.48639 27.1616 9.92639 27.1616ZM9.92639 14.6516C11.3964 14.6516 12.5864 15.8416 12.5864 17.3116C12.5864 18.7816 11.3964 19.9716 9.92639 19.9716C8.45639 19.9716 7.26636 18.7816 7.26636 17.3116C7.26636 15.8416 8.45639 14.6516 9.92639 14.6516Z" fill="#3483B4"/>
<path d="M86.6965 26.0415C91.5265 26.0415 95.4365 22.1315 95.4365 17.3015C95.4365 12.4715 91.5265 8.5615 86.6965 8.5615C81.8665 8.5615 77.9565 12.4715 77.9565 17.3015C77.9565 22.1315 81.8665 26.0415 86.6965 26.0415ZM86.6965 13.1415C88.9965 13.1415 90.8665 15.0115 90.8665 17.3115C90.8665 19.6115 88.9965 21.4815 86.6965 21.4815C84.3965 21.4815 82.5265 19.6115 82.5265 17.3115C82.5265 15.0115 84.3965 13.1415 86.6965 13.1415Z" fill="#3483B4"/>
</svg>
