<svg width="194" height="50" viewBox="0 0 194 50" fill="none" xmlns="http://www.w3.org/2000/svg">
<path d="M16.9025 20.7178L33.3425 4.35779L49.7925 20.7178L66.2325 4.35778L82.6725 20.7178L97.1725 6.28778L111.682 20.7178L128.122 4.35778L144.572 20.7178L161.012 4.35778L177.452 20.7178L193.772 4.47778L191.952 2.65778L177.452 17.0878L161.012 0.727778L144.572 17.0878L128.122 0.727781L111.682 17.0878L97.1725 2.64778L82.6725 17.0878L66.2325 0.727787L49.7925 17.0878L33.3425 0.72779L16.9025 17.0878L2.39245 2.65779L0.582457 4.47779L16.9025 20.7178Z" fill="white"/>
<path d="M16.9026 49.9678L33.3426 33.6078L49.7927 49.9678L66.2326 33.6078L82.6727 49.9678L95.7126 36.9878L95.7227 33.3478L82.6727 46.3378L66.2326 29.9778L49.7927 46.3378L33.3426 29.9778L16.9026 46.3378L2.39264 31.9078L0.58264 33.7378L16.9026 49.9678Z" fill="white"/>
</svg>
