<svg width="191" height="192" viewBox="0 0 191 192" fill="none" xmlns="http://www.w3.org/2000/svg">
<g clip-path="url(#clip0_156_261)">
<path d="M73.8991 12.1159C74.5737 12.1159 75.2331 11.9158 75.794 11.5411C76.3549 11.1663 76.792 10.6336 77.0502 10.0104C77.3083 9.38715 77.3759 8.70137 77.2443 8.03975C77.1127 7.37814 76.7878 6.77041 76.3108 6.29341C75.8338 5.81641 75.2261 5.49157 74.5645 5.35997C73.9029 5.22837 73.2171 5.29591 72.5939 5.55406C71.9706 5.81221 71.438 6.24937 71.0632 6.81026C70.6884 7.37115 70.4884 8.03057 70.4884 8.70515C70.4893 9.60945 70.8489 10.4765 71.4883 11.1159C72.1278 11.7553 72.9948 12.115 73.8991 12.1159ZM73.8991 6.99979C74.2364 6.99979 74.5661 7.09981 74.8465 7.2872C75.127 7.47458 75.3456 7.74092 75.4746 8.05254C75.6037 8.36415 75.6375 8.70704 75.5717 9.03785C75.5059 9.36865 75.3435 9.67252 75.105 9.91102C74.8665 10.1495 74.5626 10.3119 74.2318 10.3777C73.901 10.4435 73.5581 10.4098 73.2465 10.2807C72.9349 10.1516 72.6685 9.93304 72.4811 9.65259C72.2937 9.37215 72.1937 9.04244 72.1937 8.70515C72.194 8.25295 72.3738 7.81936 72.6935 7.49961C73.0133 7.17986 73.4469 7.00009 73.8991 6.99979ZM184.179 27.0173C183.729 27.0173 183.29 27.1506 182.916 27.4005C182.542 27.6503 182.25 28.0054 182.078 28.4209C181.906 28.8364 181.861 29.2936 181.949 29.7347C182.036 30.1758 182.253 30.5809 182.571 30.8989C182.889 31.2169 183.294 31.4335 183.735 31.5212C184.176 31.6089 184.634 31.5639 185.049 31.3918C185.464 31.2197 185.82 30.9283 186.069 30.5543C186.319 30.1804 186.453 29.7408 186.453 29.2911C186.452 28.6882 186.212 28.1102 185.786 27.6839C185.36 27.2576 184.782 27.0179 184.179 27.0173ZM184.179 30.428C183.954 30.428 183.734 30.3613 183.547 30.2364C183.36 30.1115 183.215 29.9339 183.128 29.7262C183.042 29.5184 183.02 29.2898 183.064 29.0693C183.108 28.8487 183.216 28.6462 183.375 28.4872C183.534 28.3282 183.737 28.2199 183.957 28.176C184.178 28.1322 184.406 28.1547 184.614 28.2407C184.822 28.3268 184.999 28.4725 185.124 28.6595C185.249 28.8464 185.316 29.0662 185.316 29.2911C185.315 29.5925 185.196 29.8815 184.982 30.0947C184.769 30.3078 184.48 30.4277 184.179 30.428ZM100.048 30.0926C99.5982 30.0926 99.1586 30.226 98.7846 30.4758C98.4107 30.7257 98.1193 31.0808 97.9472 31.4963C97.7751 31.9117 97.73 32.3689 97.8178 32.81C97.9055 33.2511 98.1221 33.6562 98.4401 33.9742C98.7581 34.2922 99.1632 34.5088 99.6043 34.5965C100.045 34.6843 100.503 34.6392 100.918 34.4671C101.334 34.295 101.689 34.0036 101.938 33.6297C102.188 33.2557 102.322 32.8161 102.322 32.3664C102.321 31.7635 102.081 31.1855 101.655 30.7592C101.229 30.333 100.651 30.0932 100.048 30.0926ZM100.048 33.5033C99.823 33.5033 99.6032 33.4366 99.4163 33.3117C99.2293 33.1868 99.0836 33.0092 98.9975 32.8015C98.9115 32.5937 98.889 32.3651 98.9328 32.1446C98.9767 31.9241 99.085 31.7215 99.244 31.5625C99.403 31.4035 99.6056 31.2952 99.8261 31.2513C100.047 31.2075 100.275 31.23 100.483 31.316C100.691 31.4021 100.868 31.5478 100.993 31.7348C101.118 31.9217 101.185 32.1415 101.185 32.3664C101.184 32.6678 101.065 32.9568 100.851 33.17C100.638 33.3831 100.349 33.503 100.048 33.5033ZM125.06 11.6986C124.61 11.6986 124.17 11.832 123.797 12.0818C123.423 12.3317 123.131 12.6868 122.959 13.1023C122.787 13.5178 122.742 13.975 122.83 14.416C122.917 14.8571 123.134 15.2623 123.452 15.5803C123.77 15.8983 124.175 16.1148 124.616 16.2025C125.057 16.2903 125.514 16.2453 125.93 16.0732C126.345 15.9011 126.701 15.6096 126.95 15.2357C127.2 14.8618 127.334 14.4221 127.334 13.9724C127.333 13.3696 127.093 12.7916 126.667 12.3653C126.241 11.939 125.663 11.6992 125.06 11.6986ZM125.06 15.1093C124.835 15.1093 124.615 15.0427 124.428 14.9177C124.241 14.7928 124.095 14.6152 124.009 14.4075C123.923 14.1998 123.901 13.9712 123.945 13.7506C123.989 13.5301 124.097 13.3275 124.256 13.1685C124.415 13.0095 124.617 12.9012 124.838 12.8574C125.059 12.8135 125.287 12.836 125.495 12.9221C125.703 13.0081 125.88 13.1538 126.005 13.3408C126.13 13.5278 126.197 13.7476 126.197 13.9724C126.196 14.2739 126.077 14.5629 125.863 14.776C125.65 14.9892 125.361 15.109 125.06 15.1093ZM14.78 56.5302C14.78 56.0805 14.6467 55.6408 14.3968 55.2669C14.147 54.893 13.7919 54.6016 13.3764 54.4295C12.9609 54.2574 12.5037 54.2123 12.0626 54.3001C11.6216 54.3878 11.2164 54.6044 10.8984 54.9224C10.5804 55.2403 10.3638 55.6455 10.2761 56.0866C10.1884 56.5277 10.2334 56.9848 10.4055 57.4003C10.5776 57.8158 10.869 58.1709 11.243 58.4208C11.6169 58.6706 12.0565 58.804 12.5062 58.804C13.1091 58.8034 13.6871 58.5636 14.1134 58.1373C14.5397 57.711 14.7794 57.133 14.78 56.5302ZM11.3693 56.5302C11.3693 56.3053 11.436 56.0855 11.5609 55.8985C11.6859 55.7116 11.8634 55.5659 12.0712 55.4798C12.2789 55.3938 12.5075 55.3713 12.728 55.4151C12.9486 55.459 13.1511 55.5673 13.3101 55.7263C13.4691 55.8853 13.5774 56.0878 13.6213 56.3084C13.6652 56.5289 13.6426 56.7575 13.5566 56.9653C13.4705 57.173 13.3248 57.3506 13.1379 57.4755C12.9509 57.6004 12.7311 57.6671 12.5062 57.6671C12.2048 57.6668 11.9158 57.5469 11.7027 57.3338C11.4895 57.1206 11.3696 56.8316 11.3693 56.5302Z" fill="#3483B4"/>
<path d="M5.01962 21.2995L6.7102 19.0758L5.64265 18.4709L4.55804 20.9607H4.52166L3.42 18.488L2.33312 19.111L4.00664 21.2814V21.3177L1.39062 20.9789V22.1886L4.0237 21.8509V21.8862L2.33312 24.0565L3.34724 24.6966L4.50461 22.1886H4.53871L5.60627 24.6784L6.72726 24.0383L5.01962 21.9032V21.868L7.70499 22.1886V20.9789L5.01962 21.3348V21.2995ZM42.9002 20.6629L41.927 21.9123L42.5113 22.2807L43.1776 20.8368H43.198L43.812 22.2705L44.4577 21.9021L43.4743 20.6731V20.6526L45.0205 20.8368V20.1399L43.4743 20.3445V20.3241L44.4475 19.0439L43.8336 18.696L43.2083 20.1297H43.1878L42.5534 18.7063L41.927 19.0644L42.8911 20.3138V20.3343L41.3847 20.1399V20.8368L42.9002 20.6424V20.6629ZM176.567 51.5151V50.3281L173.933 50.6772V50.6419L175.591 48.4613L174.543 47.869L173.479 50.3111H173.444L172.363 47.8861L171.298 48.4966L172.938 50.6249V50.6601L170.372 50.3281V51.5151L172.955 51.1842V51.2183L171.298 53.3466L172.292 53.9753L173.427 51.5151H173.461L174.508 53.9571L175.608 53.3296L173.933 51.2354V51.2013L176.567 51.5151ZM164.114 6.123L165.544 4.24256L164.641 3.73096L163.724 5.83764H163.693L162.759 3.74574L161.841 4.27212L163.256 6.10822V6.13892L161.043 5.85242V6.87564L163.271 6.59027V6.61983L161.841 8.45593L162.698 8.99824L163.678 6.87564H163.708L164.61 8.98346L165.559 8.44115L164.114 6.63461V6.60505L166.386 6.87564V5.85242L164.114 6.1537V6.123Z" fill="#E88D23"/>
<path d="M2.27381 172.352C3.5296 172.352 4.54762 171.334 4.54762 170.078C4.54762 168.823 3.5296 167.805 2.27381 167.805C1.01802 167.805 0 168.823 0 170.078C0 171.334 1.01802 172.352 2.27381 172.352Z" fill="#3483B4"/>
<path d="M12.5058 167.805H9.0951C8.49205 167.805 7.91369 168.044 7.48727 168.471C7.06085 168.897 6.82129 169.475 6.82129 170.078C6.82129 170.682 7.06085 171.26 7.48727 171.686C7.91369 172.113 8.49205 172.352 9.0951 172.352H12.5058C13.1089 172.352 13.6872 172.113 14.1136 171.686C14.5401 171.26 14.7796 170.682 14.7796 170.078C14.7796 169.475 14.5401 168.897 14.1136 168.471C13.6872 168.044 13.1089 167.805 12.5058 167.805Z" fill="#3483B4"/>
<path d="M134.329 176.9H124.884C124.311 176.944 123.777 177.203 123.387 177.625C122.996 178.046 122.78 178.599 122.78 179.174C122.78 179.748 122.996 180.301 123.387 180.723C123.777 181.144 124.311 181.403 124.884 181.448H134.329C134.902 181.403 135.437 181.144 135.827 180.723C136.217 180.301 136.434 179.748 136.434 179.174C136.434 178.599 136.217 178.046 135.827 177.625C135.437 177.203 134.902 176.944 134.329 176.9ZM66.1152 176.9H56.6698C56.0972 176.944 55.5624 177.203 55.1723 177.625C54.7821 178.046 54.5654 178.599 54.5654 179.174C54.5654 179.748 54.7821 180.301 55.1723 180.723C55.5624 181.144 56.0972 181.403 56.6698 181.448H66.1152C66.6878 181.403 67.2226 181.144 67.6128 180.723C68.0029 180.301 68.2196 179.748 68.2196 179.174C68.2196 178.599 68.0029 178.046 67.6128 177.625C67.2226 177.203 66.6878 176.944 66.1152 176.9ZM118.238 176.9H72.7615C72.1585 176.9 71.5801 177.139 71.1537 177.566C70.7273 177.992 70.4877 178.571 70.4877 179.174C70.4877 179.777 70.7273 180.355 71.1537 180.782C71.5801 181.208 72.1585 181.448 72.7615 181.448H90.8838V183.721H81.8568C81.2537 183.721 80.6754 183.961 80.249 184.387C79.8225 184.814 79.583 185.392 79.583 185.995C79.583 186.598 79.8225 187.177 80.249 187.603C80.6754 188.029 81.2537 188.269 81.8568 188.269H110.279C110.882 188.269 111.461 188.029 111.887 187.603C112.314 187.177 112.553 186.598 112.553 185.995C112.553 185.392 112.314 184.814 111.887 184.387C111.461 183.961 110.882 183.721 110.279 183.721H100.115V181.448H118.238C118.841 181.448 119.419 181.208 119.846 180.782C120.272 180.355 120.512 179.777 120.512 179.174C120.512 178.571 120.272 177.992 119.846 177.566C119.419 177.139 118.841 176.9 118.238 176.9Z" fill="#E88D23"/>
<path d="M159.167 65.4828V47.2924C159.167 46.6893 158.927 46.111 158.501 45.6845C158.074 45.2581 157.496 45.0186 156.893 45.0186H138.703C138.099 45.0186 137.521 45.2581 137.095 45.6845C136.668 46.111 136.429 46.6893 136.429 47.2924V65.4828C136.429 66.0859 136.668 66.6642 137.095 67.0907C137.521 67.5171 138.099 67.7567 138.703 67.7567H156.893C157.496 67.7567 158.074 67.5171 158.501 67.0907C158.927 66.6642 159.167 66.0859 159.167 65.4828ZM154.619 63.209H140.976V49.5662H154.619V63.209Z" fill="#3483B4"/>
<path d="M134.155 95.0427V72.3046C134.155 71.7015 133.915 71.1232 133.489 70.6967C133.062 70.2703 132.484 70.0308 131.881 70.0308H109.143C108.54 70.0308 107.962 70.2703 107.535 70.6967C107.109 71.1232 106.869 71.7015 106.869 72.3046V95.0427C106.869 95.6457 107.109 96.2241 107.535 96.6505C107.962 97.0769 108.54 97.3165 109.143 97.3165H131.881C132.484 97.3165 133.062 97.0769 133.489 96.6505C133.915 96.2241 134.155 95.6457 134.155 95.0427ZM129.607 92.7689H111.417V74.5784H129.607V92.7689Z" fill="#E88D23"/>
<path d="M134.155 114.133C135.41 114.133 136.428 113.115 136.428 111.859C136.428 110.603 135.41 109.585 134.155 109.585C132.899 109.585 131.881 110.603 131.881 111.859C131.881 113.115 132.899 114.133 134.155 114.133Z" fill="#E88D23"/>
<path d="M23.7535 124.221C24.0654 124.429 24.4237 124.556 24.7966 124.592C25.1694 124.628 25.5454 124.571 25.8909 124.426C30.8192 122.366 35.8368 120.527 40.9288 118.914V124.602H45.4764V112.971C45.4555 108.846 47.0717 104.881 49.9704 101.946C52.869 99.0116 56.8135 97.3466 60.9383 97.3165H62.2957C60.4811 96.1577 58.8488 94.7354 57.4525 93.0963C52.8069 93.9493 48.6081 96.4059 45.5884 100.038C42.5686 103.67 40.9195 108.246 40.9288 112.969V114.158C36.32 115.573 31.7688 117.17 27.2859 118.944V32.4891C71.0631 50.0689 119.937 50.0689 163.714 32.4891V118.945C156.84 116.211 149.809 113.89 142.658 111.996C142.075 111.842 141.454 111.925 140.933 112.229C140.411 112.532 140.031 113.03 139.877 113.613C139.723 114.196 139.806 114.817 140.109 115.338C140.413 115.86 140.911 116.239 141.494 116.394C149.541 118.525 157.432 121.209 165.109 124.426C165.455 124.571 165.831 124.628 166.204 124.592C166.577 124.557 166.936 124.43 167.248 124.222C167.56 124.014 167.816 123.733 167.993 123.403C168.17 123.072 168.262 122.703 168.262 122.328V29.1023C168.262 28.7276 168.169 28.3587 167.992 28.0285C167.815 27.6983 167.559 27.417 167.247 27.2095C166.935 27.0021 166.577 26.8749 166.204 26.8394C165.831 26.8038 165.455 26.861 165.109 27.0058C143.085 36.3222 119.414 41.1226 95.5002 41.1226C71.5862 41.1226 47.9155 36.3222 25.8909 27.0058C25.5454 26.861 25.1694 26.8038 24.7964 26.8394C24.4234 26.8749 24.065 27.0021 23.753 27.2095C23.441 27.417 23.1851 27.6983 23.0081 28.0285C22.8311 28.3587 22.7384 28.7276 22.7383 29.1023V122.328C22.7382 122.703 22.8309 123.072 23.008 123.403C23.1852 123.733 23.4413 124.014 23.7535 124.221Z" fill="#3483B4"/>
<path d="M68.5229 100.023L65.9682 116.251C65.9126 116.604 65.941 116.965 66.051 117.305C66.1611 117.645 66.3496 117.954 66.6015 118.207L72.286 123.93C72.707 124.354 73.2781 124.596 73.8758 124.602C74.4735 124.609 75.0496 124.379 75.4796 123.964L81.1641 118.471C81.4243 118.219 81.6208 117.91 81.7373 117.567C81.8537 117.225 81.8868 116.859 81.8337 116.502L79.3894 99.9937C77.9193 100.38 76.4124 100.608 74.8941 100.676L77.1633 116.013L73.9311 119.135L70.6409 115.821L73.0227 100.683C71.5037 100.623 69.9952 100.402 68.5229 100.023ZM90.9529 79.1258C90.9529 75.753 89.9527 72.4559 88.0789 69.6515C86.2051 66.8471 83.5417 64.6613 80.4257 63.3705C77.3096 62.0797 73.8808 61.7419 70.5727 62.3999C67.2647 63.0578 64.226 64.6819 61.841 67.0667C59.456 69.4516 57.8317 72.4902 57.1735 75.7982C56.5154 79.1062 56.8529 82.535 58.1435 85.6512C59.4341 88.7673 61.6197 91.4308 64.424 93.3048C67.2283 95.1788 70.5253 96.1792 73.8981 96.1794C76.1378 96.1799 78.3557 95.7391 80.425 94.8822C82.4943 94.0254 84.3745 92.7693 85.9582 91.1856C87.542 89.602 88.7982 87.7218 89.6552 85.6526C90.5122 83.5833 90.9532 81.3655 90.9529 79.1258ZM73.8981 91.6318C71.4248 91.6316 69.007 90.8979 66.9505 89.5236C64.8941 88.1493 63.2913 86.1961 62.345 83.9109C61.3986 81.6257 61.1511 79.1112 61.6338 76.6854C62.1164 74.2595 63.3076 72.0313 65.0566 70.2824C66.8057 68.5335 69.034 67.3426 71.4599 66.8601C73.8858 66.3777 76.4003 66.6254 78.6854 67.572C80.9705 68.5185 82.9236 70.1215 84.2977 72.178C85.6718 74.2346 86.4052 76.6524 86.4052 79.1258C86.4016 82.4417 85.0827 85.6207 82.7379 87.9653C80.3932 90.3099 77.214 91.6285 73.8981 91.6318ZM127.717 110.993C127.766 110.699 127.757 110.397 127.689 110.106C127.622 109.815 127.498 109.541 127.325 109.298C127.151 109.055 126.931 108.848 126.678 108.69C126.424 108.532 126.142 108.425 125.848 108.376C119.176 107.274 112.448 106.543 105.695 106.185C104.515 102.846 102.474 99.8768 99.779 97.5785C97.0839 95.2802 93.8299 93.734 90.3458 93.0961C88.9492 94.7348 87.3169 96.1571 85.5025 97.3163H86.86C90.9848 97.3464 94.9292 99.0114 97.8279 101.946C100.727 104.881 102.343 108.846 102.322 112.97V124.602H106.87V112.97C106.866 112.244 106.823 111.518 106.742 110.797C112.893 111.167 119.02 111.857 125.1 112.861C125.695 112.961 126.304 112.82 126.795 112.469C127.286 112.119 127.618 111.588 127.717 110.993Z" fill="#3483B4"/>
<path d="M47.7497 48.4297H34.1068C33.5038 48.4297 32.9254 48.6692 32.499 49.0957C32.0726 49.5221 31.833 50.1004 31.833 50.7035C31.833 51.3065 32.0726 51.8849 32.499 52.3113C32.9254 52.7377 33.5038 52.9773 34.1068 52.9773H47.7497C48.3527 52.9773 48.9311 52.7377 49.3575 52.3113C49.7839 51.8849 50.0235 51.3065 50.0235 50.7035C50.0235 50.1004 49.7839 49.5221 49.3575 49.0957C48.9311 48.6692 48.3527 48.4297 47.7497 48.4297ZM47.7497 57.5249H34.1068C33.5038 57.5249 32.9254 57.7645 32.499 58.1909C32.0726 58.6173 31.833 59.1957 31.833 59.7987C31.833 60.4018 32.0726 60.9801 32.499 61.4066C32.9254 61.833 33.5038 62.0725 34.1068 62.0725H47.7497C48.3527 62.0725 48.9311 61.833 49.3575 61.4066C49.7839 60.9801 50.0235 60.4018 50.0235 59.7987C50.0235 59.1957 49.7839 58.6173 49.3575 58.1909C48.9311 57.7645 48.3527 57.5249 47.7497 57.5249Z" fill="#E88D23"/>
<path d="M54.5717 159.846C55.1747 159.846 55.7531 159.607 56.1795 159.18C56.6059 158.754 56.8455 158.175 56.8455 157.572V143.93C56.8455 143.327 56.6059 142.748 56.1795 142.322C55.7531 141.895 55.1747 141.656 54.5717 141.656C53.9686 141.656 53.3903 141.895 52.9638 142.322C52.5374 142.748 52.2979 143.327 52.2979 143.93V157.572C52.2979 158.175 52.5374 158.754 52.9638 159.18C53.3903 159.607 53.9686 159.846 54.5717 159.846ZM63.6669 159.846C64.27 159.846 64.8483 159.607 65.2747 159.18C65.7011 158.754 65.9407 158.175 65.9407 157.572V143.93C65.9407 143.327 65.7011 142.748 65.2747 142.322C64.8483 141.895 64.27 141.656 63.6669 141.656C63.0638 141.656 62.4855 141.895 62.0591 142.322C61.6326 142.748 61.3931 143.327 61.3931 143.93V157.572C61.3931 158.175 61.6326 158.754 62.0591 159.18C62.4855 159.607 63.0638 159.846 63.6669 159.846ZM72.7621 159.846C73.3652 159.846 73.9435 159.607 74.37 159.18C74.7964 158.754 75.0359 158.175 75.0359 157.572V143.93C75.0359 143.327 74.7964 142.748 74.37 142.322C73.9435 141.895 73.3652 141.656 72.7621 141.656C72.1591 141.656 71.5807 141.895 71.1543 142.322C70.7279 142.748 70.4883 143.327 70.4883 143.93V157.572C70.4883 158.175 70.7279 158.754 71.1543 159.18C71.5807 159.607 72.1591 159.846 72.7621 159.846Z" fill="#3483B4"/>
<path d="M81.8568 159.846C82.4599 159.846 83.0382 159.607 83.4646 159.18C83.8911 158.754 84.1306 158.175 84.1306 157.572V143.93C84.1306 143.327 83.8911 142.748 83.4646 142.322C83.0382 141.895 82.4599 141.656 81.8568 141.656C81.2538 141.656 80.6754 141.895 80.249 142.322C79.8226 142.748 79.583 143.327 79.583 143.93V157.572C79.583 158.175 79.8226 158.754 80.249 159.18C80.6754 159.607 81.2538 159.846 81.8568 159.846ZM90.9521 159.846C91.5551 159.846 92.1335 159.607 92.5599 159.18C92.9863 158.754 93.2259 158.175 93.2259 157.572V143.93C93.2259 143.327 92.9863 142.748 92.5599 142.322C92.1335 141.895 91.5551 141.656 90.9521 141.656C90.349 141.656 89.7707 141.895 89.3442 142.322C88.9178 142.748 88.6782 143.327 88.6782 143.93V157.572C88.6782 158.175 88.9178 158.754 89.3442 159.18C89.7707 159.607 90.349 159.846 90.9521 159.846ZM100.047 159.846C100.65 159.846 101.229 159.607 101.655 159.18C102.082 158.754 102.321 158.175 102.321 157.572V143.93C102.321 143.327 102.082 142.748 101.655 142.322C101.229 141.895 100.65 141.656 100.047 141.656C99.4442 141.656 98.8659 141.895 98.4395 142.322C98.013 142.748 97.7735 143.327 97.7735 143.93V157.572C97.7735 158.175 98.013 158.754 98.4395 159.18C98.8659 159.607 99.4442 159.846 100.047 159.846ZM109.143 159.846C109.746 159.846 110.324 159.607 110.75 159.18C111.177 158.754 111.416 158.175 111.416 157.572V143.93C111.416 143.327 111.177 142.748 110.75 142.322C110.324 141.895 109.746 141.656 109.143 141.656C108.539 141.656 107.961 141.895 107.535 142.322C107.108 142.748 106.869 143.327 106.869 143.93V157.572C106.869 158.175 107.108 158.754 107.535 159.18C107.961 159.607 108.539 159.846 109.143 159.846Z" fill="#E88D23"/>
<path d="M118.239 159.846C118.842 159.846 119.42 159.607 119.846 159.18C120.273 158.754 120.512 158.175 120.512 157.572V143.93C120.512 143.327 120.273 142.748 119.846 142.322C119.42 141.895 118.842 141.656 118.239 141.656C117.636 141.656 117.057 141.895 116.631 142.322C116.204 142.748 115.965 143.327 115.965 143.93V157.572C115.965 158.175 116.204 158.754 116.631 159.18C117.057 159.607 117.636 159.846 118.239 159.846ZM127.334 159.846C127.937 159.846 128.515 159.607 128.942 159.18C129.368 158.754 129.608 158.175 129.608 157.572V143.93C129.608 143.327 129.368 142.748 128.942 142.322C128.515 141.895 127.937 141.656 127.334 141.656C126.731 141.656 126.152 141.895 125.726 142.322C125.3 142.748 125.06 143.327 125.06 143.93V157.572C125.06 158.175 125.3 158.754 125.726 159.18C126.152 159.607 126.731 159.846 127.334 159.846ZM136.429 159.846C137.032 159.846 137.611 159.607 138.037 159.18C138.463 158.754 138.703 158.175 138.703 157.572V143.93C138.703 143.327 138.463 142.748 138.037 142.322C137.611 141.895 137.032 141.656 136.429 141.656C135.826 141.656 135.248 141.895 134.821 142.322C134.395 142.748 134.155 143.327 134.155 143.93V157.572C134.155 158.175 134.395 158.754 134.821 159.18C135.248 159.607 135.826 159.846 136.429 159.846Z" fill="#3483B4"/>
<path d="M45.4769 153.025C46.7327 153.025 47.7507 152.007 47.7507 150.751C47.7507 149.496 46.7327 148.478 45.4769 148.478C44.2211 148.478 43.2031 149.496 43.2031 150.751C43.2031 152.007 44.2211 153.025 45.4769 153.025Z" fill="#3483B4"/>
<path d="M145.524 153.025C146.78 153.025 147.798 152.007 147.798 150.751C147.798 149.496 146.78 148.478 145.524 148.478C144.268 148.478 143.25 149.496 143.25 150.751C143.25 152.007 144.268 153.025 145.524 153.025Z" fill="#3483B4"/>
<path d="M181.905 167.805H178.495C177.891 167.805 177.313 168.044 176.887 168.471C176.46 168.897 176.221 169.475 176.221 170.078C176.221 170.682 176.46 171.26 176.887 171.686C177.313 172.113 177.891 172.352 178.495 172.352H181.905C182.508 172.352 183.087 172.113 183.513 171.686C183.939 171.26 184.179 170.682 184.179 170.078C184.179 169.475 183.939 168.897 183.513 168.471C183.087 168.044 182.508 167.805 181.905 167.805Z" fill="#3483B4"/>
<path d="M188.727 172.352C189.983 172.352 191.001 171.334 191.001 170.078C191.001 168.823 189.983 167.805 188.727 167.805C187.471 167.805 186.453 168.823 186.453 170.078C186.453 171.334 187.471 172.352 188.727 172.352Z" fill="#3483B4"/>
<path d="M171.356 167.805H167.864C168.126 167.075 168.261 166.306 168.262 165.531V135.971C168.26 134.163 167.541 132.429 166.262 131.15C164.983 129.871 163.249 129.152 161.441 129.15H29.5599C27.7514 129.152 26.0175 129.871 24.7387 131.15C23.4599 132.429 22.7405 134.163 22.7384 135.971V165.531C22.7401 166.306 22.8747 167.075 23.1364 167.805H19.6449C19.3214 167.762 18.9927 167.79 18.6806 167.885C18.3684 167.98 18.0802 168.14 17.835 168.355C17.5898 168.57 17.3934 168.835 17.2589 169.133C17.1243 169.43 17.0547 169.752 17.0547 170.078C17.0547 170.405 17.1243 170.727 17.2589 171.024C17.3934 171.322 17.5898 171.587 17.835 171.802C18.0802 172.017 18.3684 172.177 18.6806 172.272C18.9927 172.367 19.3214 172.395 19.6449 172.352H171.355C171.678 172.395 172.007 172.367 172.319 172.272C172.631 172.177 172.919 172.017 173.165 171.802C173.41 171.587 173.606 171.322 173.741 171.024C173.875 170.727 173.945 170.405 173.945 170.078C173.945 169.752 173.875 169.43 173.741 169.133C173.606 168.835 173.41 168.57 173.165 168.355C172.919 168.14 172.631 167.98 172.319 167.885C172.007 167.79 171.679 167.762 171.356 167.805ZM27.2861 135.971C27.287 135.369 27.5268 134.791 27.953 134.365C28.3793 133.938 28.9571 133.698 29.5599 133.698H161.441C162.044 133.698 162.621 133.938 163.048 134.365C163.474 134.791 163.714 135.369 163.715 135.971V165.531C163.714 166.134 163.474 166.711 163.048 167.138C162.621 167.564 162.044 167.804 161.441 167.805H29.5599C28.9571 167.804 28.3793 167.564 27.953 167.138C27.5268 166.711 27.287 166.134 27.2861 165.531V135.971Z" fill="#3483B4"/>
</g>
<defs>
<clipPath id="clip0_156_261">
<rect width="191" height="191" fill="white" transform="translate(0 0.5)"/>
</clipPath>
</defs>
</svg>
